<?xml version="1.0" encoding="utf-8"?>
<!-- Generator: Adobe Illustrator 23.0.1, SVG Export Plug-In . SVG Version: 6.00 Build 0)  -->
<svg version="1.1" id="Calque_1" xmlns="http://www.w3.org/2000/svg" xmlns:xlink="http://www.w3.org/1999/xlink" x="0px" y="0px"
	 viewBox="0 0 200 200" style="enable-background:new 0 0 200 200;" xml:space="preserve">
<style type="text/css">
	.st0{fill:#C61A27;}
	.st1{fill:#3C3C3B;}
	.st2{enable-background:new    ;}
	.st3{clip-path:url(#SVGID_2_);fill:#3C3C3B;}
	.st4{fill:#FFFFFF;}
	.st5{clip-path:url(#SVGID_4_);fill:#3C3C3B;}
	.st6{clip-path:url(#SVGID_6_);fill:#3C3C3B;}
	.st7{clip-path:url(#SVGID_8_);fill:#3C3C3B;}
	.st8{clip-path:url(#SVGID_10_);fill:#FFFFFF;}
	.st9{clip-path:url(#SVGID_12_);fill:#FFFFFF;}
	.st10{clip-path:url(#SVGID_14_);fill:#FFFFFF;}
	.st11{clip-path:url(#SVGID_16_);fill:#FFFFFF;}
	.st12{clip-path:url(#SVGID_18_);fill:#3C3C3B;}
	.st13{clip-path:url(#SVGID_20_);fill:#3C3C3B;}
	.st14{clip-path:url(#SVGID_22_);fill:#C61A27;}
	.st15{clip-path:url(#SVGID_24_);fill:#C61A27;}
	.st16{clip-path:url(#SVGID_26_);fill:#C61A27;}
	.st17{clip-path:url(#SVGID_28_);fill:#C61A27;}
	.st18{clip-path:url(#SVGID_30_);fill:#C61A27;}
	.st19{clip-path:url(#SVGID_32_);fill:#C61A27;}
	.st20{clip-path:url(#SVGID_34_);fill:#3C3C3B;}
	.st21{clip-path:url(#SVGID_36_);fill:#3C3C3B;}
	.st22{clip-path:url(#SVGID_38_);fill:#3C3C3B;}
	.st23{clip-path:url(#SVGID_40_);fill:#3C3C3B;}
	.st24{clip-path:url(#SVGID_42_);fill:#FFFFFF;}
	.st25{clip-path:url(#SVGID_44_);fill:#FFFFFF;}
</style>
<g>
	<rect y="0" class="st0" width="200" height="200"/>
	<polygon class="st1" points="86.74,151.85 105.88,170.62 59.83,171.43 40.69,152.66 	"/>
	<polygon class="st1" points="88.36,28.98 107.5,47.75 105.88,170.62 86.74,151.85 	"/>
	<polygon class="st1" points="110.61,86.94 129.76,105.71 112.87,106.01 93.73,87.24 	"/>
	<g class="st2">
		<defs>
			<path id="SVGID_33_" class="st2" d="M131.74,36.61l19.14,18.77c5.3,5.2,8.53,12.5,8.43,20.64
				c-0.21,16.11-13.45,29.41-29.55,29.69l-19.14-18.77c16.1-0.28,29.34-13.58,29.55-29.69C140.27,49.11,137.04,41.81,131.74,36.61z"
				/>
		</defs>
		<use xlink:href="#SVGID_33_"  style="overflow:visible;fill:#3C3C3B;"/>
		<clipPath id="SVGID_2_">
			<use xlink:href="#SVGID_33_"  style="overflow:visible;"/>
		</clipPath>
		<path class="st3" d="M131.74,36.61l19.14,18.77c0.48,0.47,0.93,0.95,1.38,1.45l-19.14-18.77
			C132.67,37.56,132.22,37.08,131.74,36.61"/>
		<path class="st3" d="M133.12,38.06l19.14,18.77c1.49,1.69,2.78,3.56,3.84,5.57l-19.14-18.77
			C135.9,41.61,134.61,39.74,133.12,38.06"/>
		<path class="st3" d="M136.95,43.63l19.14,18.77c1.37,2.61,2.34,5.48,2.84,8.51l-19.14-18.77
			C139.29,49.11,138.32,46.24,136.95,43.63"/>
		<path class="st3" d="M139.79,52.14l19.14,18.77c0.27,1.66,0.4,3.36,0.38,5.11c-0.01,0.61-0.03,1.21-0.08,1.8l-19.14-18.77
			c0.04-0.6,0.07-1.2,0.08-1.8C140.19,55.51,140.06,53.8,139.79,52.14"/>
		<path class="st3" d="M140.09,59.06l19.14,18.77c-0.11,1.5-0.33,2.97-0.66,4.4l-19.14-18.77
			C139.75,62.03,139.98,60.55,140.09,59.06"/>
		<path class="st3" d="M139.42,63.46l19.14,18.77c-0.29,1.25-0.65,2.47-1.09,3.65l-19.14-18.77
			C138.77,65.93,139.14,64.71,139.42,63.46"/>
		<path class="st3" d="M138.34,67.11l19.14,18.77c-0.42,1.13-0.9,2.23-1.45,3.3l-19.14-18.77
			C137.44,69.35,137.92,68.25,138.34,67.11"/>
		<path class="st3" d="M136.89,70.41l19.14,18.77c-0.56,1.09-1.18,2.14-1.86,3.15l-19.14-18.77
			C135.71,72.56,136.33,71.5,136.89,70.41"/>
		<path class="st3" d="M135.03,73.57l19.14,18.77c-0.74,1.09-1.55,2.14-2.42,3.13l-19.14-18.77
			C133.48,75.7,134.29,74.66,135.03,73.57"/>
		<path class="st3" d="M132.61,76.69l19.14,18.77c-1.06,1.2-2.2,2.31-3.43,3.33l-19.14-18.77C130.4,79,131.55,77.89,132.61,76.69"/>
		<path class="st3" d="M129.17,80.02l19.14,18.77c-5.08,4.21-11.55,6.8-18.56,6.92l-19.14-18.77
			C117.62,86.82,124.09,84.23,129.17,80.02"/>
	</g>
	<g>
		<path class="st4" d="M95.49,29.86l15.91-0.28l0.5,0c7.41,0,14.32,2.86,19.45,8.06c5.14,5.2,7.91,12.17,7.81,19.6
			c-0.2,15.56-13.02,28.43-28.57,28.7l-15.85,0.28L95.49,29.86z"/>
		<path class="st1" d="M111.9,28.57v2c7.14,0,13.8,2.76,18.74,7.76c4.95,5.01,7.62,11.72,7.52,18.89
			c-0.2,15.02-12.57,27.46-27.59,27.72L95.76,85.2l0.72-54.36l14.94-0.26c0.16,0,0.32,0,0.48,0L111.9,28.57 M111.9,28.57
			c-0.17,0-0.35,0-0.52,0L94.5,28.87l-0.77,58.36l16.88-0.29c16.1-0.28,29.34-13.58,29.55-29.69
			C140.37,41.29,127.76,28.57,111.9,28.57L111.9,28.57z"/>
	</g>
	<polygon class="st1" points="109.77,151.45 128.91,170.22 112.02,170.52 92.88,151.75 	"/>
	<g class="st2">
		<defs>
			<path id="SVGID_35_" class="st2" d="M130.89,101.12l19.14,18.77c5.3,5.2,8.54,12.5,8.43,20.64
				c-0.21,16.11-13.45,29.41-29.55,29.69l-19.14-18.77c16.1-0.28,29.34-13.58,29.55-29.69
				C139.42,113.62,136.19,106.32,130.89,101.12z"/>
		</defs>
		<use xlink:href="#SVGID_35_"  style="overflow:visible;fill:#3C3C3B;"/>
		<clipPath id="SVGID_4_">
			<use xlink:href="#SVGID_35_"  style="overflow:visible;"/>
		</clipPath>
		<path class="st5" d="M130.89,101.12l19.14,18.77c0.48,0.47,0.94,0.95,1.38,1.45l-19.14-18.77
			C131.82,102.07,131.36,101.59,130.89,101.12"/>
		<path class="st5" d="M132.26,102.57l19.14,18.77c1.49,1.69,2.78,3.56,3.84,5.58l-19.14-18.77
			C135.05,106.13,133.76,104.26,132.26,102.57"/>
		<path class="st5" d="M136.1,108.15l19.14,18.77c1.37,2.62,2.34,5.48,2.84,8.51l-19.14-18.77
			C138.44,113.63,137.47,110.76,136.1,108.15"/>
		<path class="st5" d="M138.94,116.66l19.14,18.77c0.27,1.65,0.4,3.36,0.38,5.1c-0.01,0.61-0.03,1.21-0.08,1.8l-19.14-18.77
			c0.04-0.6,0.07-1.2,0.08-1.8C139.34,120.02,139.21,118.31,138.94,116.66"/>
		<path class="st5" d="M139.24,123.56l19.14,18.77c-0.11,1.5-0.33,2.97-0.66,4.4l-19.14-18.77
			C138.9,126.53,139.13,125.06,139.24,123.56"/>
		<path class="st5" d="M138.58,127.97l19.14,18.77c-0.29,1.25-0.65,2.47-1.09,3.65l-19.14-18.77
			C137.93,130.44,138.29,129.22,138.58,127.97"/>
		<path class="st5" d="M137.49,131.62l19.14,18.77c-0.42,1.13-0.9,2.23-1.45,3.3l-19.14-18.77
			C136.59,133.86,137.07,132.75,137.49,131.62"/>
		<path class="st5" d="M136.04,134.92l19.14,18.77c-0.56,1.09-1.18,2.14-1.86,3.15l-19.14-18.77
			C134.86,137.06,135.48,136.01,136.04,134.92"/>
		<path class="st5" d="M134.18,138.07l19.14,18.77c-0.74,1.09-1.55,2.14-2.42,3.13l-19.14-18.77
			C132.63,140.21,133.44,139.17,134.18,138.07"/>
		<path class="st5" d="M131.76,141.2l19.14,18.77c-1.06,1.2-2.2,2.31-3.43,3.33l-19.14-18.77
			C129.55,143.51,130.7,142.4,131.76,141.2"/>
		<path class="st5" d="M128.32,144.53l19.14,18.77c-5.08,4.21-11.55,6.8-18.56,6.92l-19.14-18.77
			C116.77,151.33,123.24,148.74,128.32,144.53"/>
	</g>
	<g>
		<path class="st4" d="M94.64,94.37l15.91-0.28l0.5,0c7.41,0,14.31,2.86,19.45,8.06c5.14,5.21,7.91,12.17,7.82,19.6
			c-0.2,15.56-13.02,28.43-28.57,28.7l-15.85,0.28L94.64,94.37z"/>
		<path class="st1" d="M111.05,95.08c7.14,0,13.79,2.76,18.73,7.77c4.95,5.01,7.62,11.72,7.53,18.88
			c-0.2,15.02-12.57,27.46-27.59,27.72l-14.82,0.26l0.72-54.36l14.94-0.26C110.73,95.08,110.89,95.08,111.05,95.08L111.05,95.08
			 M111.05,93.08c-0.17,0-0.35,0-0.52,0l-16.88,0.29l-0.77,58.36l16.88-0.29c16.1-0.28,29.34-13.58,29.55-29.69
			C139.53,105.82,126.91,93.08,111.05,93.08L111.05,93.08z"/>
	</g>
	<g>
		<polygon class="st4" points="43.29,30.77 87.34,30 85.75,150.87 41.7,151.64 		"/>
		<path class="st1" d="M86.33,31.02l-1.56,118.87l-42.05,0.73l1.56-118.87L86.33,31.02 M88.36,28.98l-46.05,0.8l-1.62,122.87
			l46.05-0.8L88.36,28.98L88.36,28.98z"/>
	</g>
</g>
</svg>
