<?xml version="1.0" encoding="utf-8"?>
<!-- Generator: Adobe Illustrator 23.0.1, SVG Export Plug-In . SVG Version: 6.00 Build 0)  -->
<svg version="1.1" id="Calque_1" xmlns="http://www.w3.org/2000/svg" xmlns:xlink="http://www.w3.org/1999/xlink" x="0px" y="0px"
	 viewBox="0 0 150 55" style="enable-background:new 0 0 150 55;" xml:space="preserve">
<style type="text/css">
	.st0{fill:#6AC0AC;}
</style>
<g>
	<g>
		<path class="st0" d="M32.69,24.42c0.13-0.03,0.11-0.21,0.16-0.37c0.03,0-0.03-0.05-0.03-0.05l-0.08,0.03
			c-0.03,0.03-0.03,0.03-0.11,0c-0.05-0.11-0.05-0.21,0.05-0.32c0.05-0.11,0.08-0.08,0.13,0c0,0.05,0.08,0.05,0.08,0.08
			c0.05-0.21,0.16-0.4,0.08-0.61c0.11-0.11,0.11-0.11,0.05-0.19c-0.16-0.11-0.16-0.11-0.03-0.13c0.13,0,0.21-0.08,0.27-0.24
			c0.08-0.4,0.16-0.69,0.29-1.09c0.03-0.11-0.03-0.26-0.05-0.4c0-0.03-0.05-0.03-0.08-0.03l0.03-0.05c0.05,0,0.05,0.05,0.05,0.08
			c0.11-0.08,0.21-0.13,0.19-0.21c0.05-0.29,0.16-0.53,0.29-0.77v-0.16h0.11c0.11-0.03,0.08-0.08,0.05-0.21
			c-0.03,0.03-0.03,0-0.03-0.03c0.05-0.05,0.03-0.11,0-0.27c-0.08,0.05-0.03,0.21-0.05,0.27h-0.11l0.03,0.24
			c-0.08,0.03-0.11,0.08-0.16,0.13H33.8c0-0.05-0.03-0.11-0.03-0.11c0-0.11,0.08-0.21,0.19-0.26c-0.05-0.19-0.08-0.35,0.13-0.45
			l-0.03-0.19c0-0.11-0.03-0.19-0.11-0.16c-0.48,0.08-0.93-0.05-1.41,0.05c-0.27-0.03-0.53-0.05-0.85-0.03
			c-0.27-0.11-0.45,0-0.72,0.03c-0.24,0-0.56,0.11-0.77,0l-0.9,0.11c-0.19,0.03-0.32,0.13-0.34,0.24c-0.08,0.11-0.11,0.16-0.19,0.16
			c-0.11,0.03-0.19,0.11-0.19,0.16c0.05,0.32-0.03,0.42-0.24,0.58c-0.13,0.08-0.27,0.24-0.29,0.32c-0.03,0.21-0.05,0.4-0.21,0.56
			l-0.32,0.45c-0.16,0.21-0.34,0.4-0.45,0.66c-0.05,0.26-0.24,0.45-0.37,0.69l-0.11,0.19c-0.32,0.45-0.5,0.95-0.82,1.41
			c-0.5,0.66-0.8,1.38-1.17,2.04l-0.69,1.25c0.11,0.08,0.13,0.11,0.11,0.16c-0.08,0.19,0.03,0.37-0.03,0.56
			c0,0.27-0.13,0.32-0.27,0.37c-0.37,0.16-0.74,0.03-0.93-0.32c-0.19-0.11-0.24-0.27-0.26-0.48c-0.08-0.37,0-0.66,0.19-0.98
			c0.16-0.27,0.42-0.56,0.53-0.85c0.13-0.34,0.37-0.48,0.45-0.87c0.05-0.05,0.16-0.13,0.19-0.21c0.35-0.34,0.53-0.8,0.8-1.22
			c0.08-0.03,0.13-0.21,0.13-0.26L25,23.57c0.11-0.13,0.03-0.29,0.19-0.35c0.03,0.03,0,0.08,0.05,0.03c0,0-0.03-0.03-0.05-0.03
			l0.16-0.21c0.03-0.13,0.16-0.08,0.21,0c0.08-0.03,0.03-0.16,0.05-0.24l0.11-0.13h-0.13c-0.03-0.24,0.11-0.34,0.29-0.48
			c0.03,0,0.05,0.08,0.16,0.08c0.08-0.13,0.11-0.24,0.19-0.35c0.08-0.03,0.05-0.11,0.11-0.16c0.03,0,0.08-0.05,0.05-0.13H26.3
			c-0.03-0.24,0.08-0.4,0.27-0.48L26.53,21l0.11-0.08c0.11-0.05,0.16,0,0.16,0.05l0.37-0.37v-0.24c0-0.05,0.03-0.11,0.13-0.16
			c0.03-0.03,0.05-0.05,0.05-0.13h-0.08c0-0.08,0-0.21,0.05-0.26c0-0.05,0.16-0.11,0.21-0.13l0.03,0.11
			c-0.05,0.03-0.11,0.05-0.11,0.19c0.08-0.03,0.11-0.11,0.11-0.19c0.11,0,0.08-0.03,0.11-0.11h-0.13c0-0.05-0.03-0.13-0.05-0.16
			c0-0.03-0.08-0.03-0.11-0.03c-0.29,0.03-0.5,0.05-0.72,0.11c-0.19,0.05-0.37,0.13-0.58,0.24c-0.13,0.08-0.26,0.08-0.45,0.11
			l-0.08,0.03c-0.24,0.03-0.32,0.32-0.56,0.32c-0.21-0.05-0.37,0.11-0.5,0.27c-0.27,0.26-0.66,0.37-1.06,0.61
			c-0.16,0.08-0.4,0.21-0.58,0.34h-0.08c-0.03,0-0.21-0.03-0.19-0.16l0.11-0.26c0.24-0.32,0.48-0.69,0.8-0.9
			c0.24-0.16,0.35-0.32,0.58-0.42c0.21-0.08,0.32-0.29,0.53-0.48c0.21-0.24,0.45-0.37,0.77-0.5c0.21-0.05,0.32-0.16,0.48-0.27
			c0.13-0.08,0.35-0.13,0.56-0.16c0.11-0.03,0.27-0.05,0.42-0.21c0.08-0.03,0.24-0.05,0.4-0.05c0.32-0.08,0.66-0.08,0.93-0.26
			c0.11-0.05,0.24,0.11,0.4,0.03c0.08-0.11,0.21-0.03,0.32-0.13c0.13-0.03,0.18-0.11,0.29-0.11c0.05,0.13,0.21,0.05,0.32,0.03
			c0.03-0.03,0.11-0.08,0.13-0.19c0.29-0.35,0.56-0.69,0.82-1.03c0.26-0.53,0.69-0.98,0.98-1.46c0.29-0.45,0.61-0.9,0.95-1.35
			c0.29-0.4,0.61-0.85,0.98-1.25c0.37-0.45,0.72-0.9,1.09-1.3c0.42-0.45,0.77-0.95,1.17-1.35c0.35-0.32,0.58-0.79,0.96-1.09
			l0.19-0.18c0.26-0.43,0.66-0.8,1.03-1.17c0.24-0.16,0.4-0.48,0.66-0.61c0.34-0.48,0.72-0.88,1.22-1.25l0.42-0.45
			c0.03,0,0-0.13,0-0.16c-0.37,0.24-0.64,0.53-0.98,0.82c-0.16,0.16-0.32,0.32-0.53,0.42l-0.11,0.13c-0.32,0.42-0.69,0.74-1.06,1.09
			c-0.03,0.05-0.16,0.08-0.21,0.21c0,0.05-0.11,0.11-0.19,0.21c-0.29,0.37-0.66,0.66-0.93,1.09l-0.24,0.21
			c-0.13,0.11-0.16,0.16-0.24,0.29c-0.03,0.11-0.03,0.18-0.08,0.18c-0.29,0.21-0.45,0.48-0.61,0.69l-0.5,0.5
			c-0.21,0.21-0.34,0.45-0.53,0.66c-0.03,0.03-0.11,0.13-0.21,0.13c0-0.11,0.08-0.19,0.16-0.29l0.21-0.42
			c0.21-0.11,0.32-0.26,0.4-0.48c0.26-0.05,0.34-0.24,0.42-0.42c0.11-0.05,0.19-0.13,0.24-0.26c-0.08,0.03-0.11,0.03-0.16,0
			c-0.03,0-0.03,0-0.08-0.03c0.05,0,0.05-0.03,0.08-0.03l0.16-0.03c-0.03-0.05,0-0.13,0-0.13l0.08,0.13H35.1v0.08l0.08-0.08
			c0.13-0.08,0.16-0.19,0.16-0.29c0.11-0.03,0.13-0.08,0.13-0.16c0.08,0,0.08-0.05,0.08-0.11c0.16-0.11,0.29-0.24,0.32-0.4
			c0.19-0.03,0.29-0.08,0.32-0.29c0-0.03-0.05,0-0.08,0c0.05-0.13,0.08-0.03,0.08,0l0.4-0.37c0.05-0.03,0.05-0.05-0.13-0.11
			c0.05-0.18,0.16-0.34,0.37-0.26c-0.03-0.24-0.03-0.24,0.16-0.32v0.13l0.16-0.16c0.05,0,0.08-0.03,0.05-0.11
			c0.13-0.03,0.21-0.03,0.21-0.16c-0.03,0-0.05-0.03-0.05-0.05h0.05v0.05c0.08-0.05,0.11-0.08,0.16-0.08
			c0.05-0.05,0.19-0.03,0.16-0.19c0.13-0.05,0.21-0.13,0.21-0.26c0.08,0,0.21-0.03,0.24-0.13l-0.27,0.03l0.13-0.21
			c0.03-0.03,0.05,0,0.05,0c0.08,0.05,0.08,0.13,0.08,0.19c0.11-0.08,0.21-0.16,0.21-0.29c0,0,0.03-0.05,0.05-0.08l-0.08-0.03
			c0.05-0.21,0.05-0.21,0.26-0.21c0.08,0,0.11,0,0.13-0.05c-0.03-0.03-0.05-0.03-0.05-0.08c0.03-0.11,0.05,0.05,0.05,0.08
			c0.16-0.05,0.13-0.24,0.19-0.29l0.24-0.35c0.05-0.03,0.11-0.05,0.24-0.08c0-0.19,0.13-0.27,0.32-0.29
			c0.03-0.16,0.08-0.21,0.27-0.24l0.03,0.08c0.03,0,0.08-0.03,0.11-0.11l-0.13,0.03c0.03-0.11,0.03-0.13,0.13-0.16
			c-0.03-0.05,0.03-0.11,0.11-0.11l0.03,0.11h-0.13v0.13l0.13-0.13l0.11-0.03l0.08-0.05c-0.08,0-0.11,0-0.11-0.05l-0.11,0.03
			c0-0.13,0.08-0.24,0.21-0.27c0.19-0.13,0.37-0.32,1.59,0.72l-0.24,0.37c-0.19,0.16-0.4,0.34-0.42,0.61l-0.11,0.19
			c-0.35,0.42-0.58,0.85-0.77,1.33c-0.13,0.34-0.37,0.69-0.5,1.01c-0.27,0.48-0.48,0.93-0.66,1.38c-0.45,1.09-0.82,2.1-1.27,3.13
			c-0.32,0.64-0.58,1.3-0.82,1.91c0,0.16-0.05,0.32-0.05,0.42c0,0.03-0.08,0.13-0.11,0.13c-0.16,0.08-0.16,0.24-0.08,0.37
			c0.05,0.05,0.05,0.08,0,0.13l-0.03,0.05c-0.19-0.05-0.19,0.05-0.24,0.13l-0.21,0.56c0,0.03-0.05,0.11-0.08,0.19
			c0.08,0.21-0.11,0.42-0.13,0.64c-0.08,0.19-0.13,0.37-0.24,0.5c-0.05,0.13,0.16,0.24-0.05,0.34c0,0.03-0.05,0.08,0,0.05
			c0.11,0.13,0.24,0.16,0.32,0.27c0.24,0.16,0.4,0.37,0.32,0.74c0,0.08,0.19,0.16,0.05,0.21c-0.05,0.21-0.08,0.21-0.29,0.21
			c-0.21-0.11-0.35-0.11-0.5-0.13c-0.05,0-0.11-0.03-0.19-0.03c-0.24-0.05-0.32,0.08-0.4,0.27v0.05c-0.13,0.45-0.03,0.42-0.53,0.48
			c-0.19,0.03-0.32,0.19-0.35,0.48c0.03,0.05,0,0.19,0,0.29l0.08-0.11c0.16-0.11,0.19-0.03,0.32,0.05c0.05,0.03,0.05,0.11,0.05,0.19
			c-0.13,0.29-0.24,0.64-0.35,0.93c-0.11,0.21-0.08,0.42-0.16,0.58c-0.16,0.16-0.08,0.4-0.21,0.5l-0.16,0.58
			c0,0.08-0.05,0.16-0.16,0.13c-0.08-0.03-0.11-0.08-0.13-0.19c-0.03-0.08,0.08-0.13,0-0.21c-0.05-0.11-0.05-0.19-0.08-0.24h-0.03
			l-0.37,1.27v0.21c0.21-0.16,0.24-0.4,0.29-0.58c0-0.11,0.03-0.13,0.08-0.21c0,0,0.03,0,0.08,0.05c0.03,0,0.03,0,0.05,0.03
			c0.11,0.45,0.11,0.85-0.19,1.19c0,0.16,0.03,0.21,0,0.35c-0.16,0.24-0.11,0.64-0.32,0.82c0.05,0.32-0.08,0.56-0.08,0.82
			c0,0.03,0.03,0.13,0,0.21c-0.11,0.29-0.29,0.61-0.29,0.98c0.03,0.05-0.21,0.19-0.03,0.34c-0.08,0.05-0.05,0.21-0.08,0.32
			c-0.03,0.11-0.11,0.27-0.05,0.37c-0.05,0.16-0.05,0.24-0.05,0.4c0,0.13-0.08,0.21-0.05,0.37c0.03,0.05,0.03,0.11,0.11,0.21
			c-0.05,0.08-0.05,0.16-0.05,0.21c0.03,0.11,0.11,0.13,0.11,0.21l0.05,0.24c0,0.13,0.05,0.32,0.13,0.48l0.03,0.19
			c0.03,0.19,0.11,0.34,0.21,0.5l-0.32-0.13c-0.34-0.16-0.64-0.35-0.88-0.66c-0.24-0.29-0.4-0.66-0.45-1.06l-0.05-0.37
			c0.03-0.11,0.05-0.26,0.03-0.45l-0.03-0.03c0.05-0.21,0.08-0.4,0.05-0.58v-0.03c0.08-0.19,0.11-0.32,0.08-0.53
			c0-0.03,0-0.03-0.03-0.03l0.24-0.24c0-0.13,0.03-0.34,0.05-0.48c0.05-0.08,0.05,0.05,0.11,0.08c0.08-0.03,0.08,0,0.11,0.03
			c0-0.03,0.03-0.05,0-0.08c0-0.05,0-0.13-0.03-0.19c-0.21-0.16-0.16-0.34,0.03-0.42c0.03,0,0.03-0.03,0.03-0.11
			c0.13-0.03,0.13-0.11,0.11-0.13c0-0.05-0.08-0.03-0.08-0.05c-0.03,0.03-0.05,0.03-0.05,0.08l0.03,0.11
			c-0.03,0-0.11-0.03-0.13-0.08v-0.16c0.11-0.24,0-0.53,0.19-0.8c0-0.05,0.13-0.11,0.19-0.19c0.13-0.05,0-0.03-0.08-0.11
			c0-0.05-0.08-0.03-0.03-0.05c0.05-0.32,0.08-0.69,0.27-1.03l0.03-0.08l0.08,0.16L32.69,24.42c-0.05,0.05-0.08,0.08-0.08,0.21
			l0.03,0.19c-0.03,0-0.16,0,0,0.08c0-0.03-0.03-0.08,0-0.08c0.05-0.05,0.08-0.13,0.08-0.19L32.69,24.42z M25.08,23.57
			c0,0-0.03,0-0.03-0.03C25.05,23.57,25.05,23.68,25.08,23.57z M25.42,23.1l0.11-0.05C25.47,23.04,25.39,23.07,25.42,23.1z
			 M25.63,23.6c-0.13,0.03-0.16,0.03-0.19,0.05c0,0-0.03,0-0.03,0.03c0.03,0,0.08,0.08,0.08,0.08L25.63,23.6z M25.61,22.78
			c-0.03-0.03-0.05-0.03-0.08,0l0.05-0.13L25.61,22.78z M25.87,23.15l-0.11,0.03c-0.11,0.11-0.21,0.24-0.13,0.42
			C25.79,23.47,25.79,23.25,25.87,23.15z M26.24,22.62c0.24-0.4,0.5-0.79,0.74-1.22l0.24-0.29c0.03-0.05,0.03-0.11,0-0.21
			c-0.19,0.13-0.35,0.24-0.42,0.48c-0.11,0.32-0.32,0.58-0.48,0.82c-0.19,0.21-0.32,0.5-0.4,0.74c-0.08,0.03,0,0.08-0.05,0.21
			C26.03,22.96,26.16,22.78,26.24,22.62z M25.9,22.38l0.16-0.11C25.92,22.27,25.92,22.33,25.9,22.38z M26.22,21.9
			c-0.05,0-0.08-0.05-0.11-0.08l0.08-0.05L26.22,21.9z M26.32,21.74l-0.13,0.03c0-0.11,0-0.13,0.11-0.16L26.32,21.74z M26.4,21.61
			l0.08-0.16C26.43,21.53,26.4,21.58,26.4,21.61z M26.53,21.45c0.05,0,0.08,0,0.03-0.08C26.51,21.4,26.51,21.4,26.53,21.45z
			 M26.56,21.13c0.05,0,0.08,0,0.08,0.03c0.03-0.03,0.03-0.05,0.03-0.05L26.56,21.13z M26.8,20.71c0-0.03,0-0.03,0.03-0.05v0.03
			L26.8,20.71z M27.65,18.35c0.24-0.03,0.53,0.03,0.74-0.16c-0.24-0.05-0.5,0.05-0.66,0.05l-0.8,0.11c-0.03,0-0.05,0.03-0.05,0.11
			h0.05C27.17,18.45,27.46,18.4,27.65,18.35z M27.01,20.39c0,0,0.03,0.03,0,0.05C26.96,20.42,26.99,20.39,27.01,20.39z M27.09,20.31
			v0.08h-0.08L27.09,20.31z M27.14,20.23v0.08h0.03l-0.03,0.08v-0.08h-0.05C27.09,20.28,27.12,20.23,27.14,20.23z M27.3,20.2
			l-0.13,0.03c-0.03-0.08,0-0.16,0.11-0.16L27.3,20.2z M27.94,19.67c-0.27,0.32-0.5,0.72-0.69,1.11c-0.03,0.05,0,0.08,0,0.11
			c0.4-0.32,0.64-0.77,0.88-1.19v-0.08l0.26-0.29c0.03-0.05,0.03-0.05-0.03-0.08h-0.03c-0.19,0.03-0.21,0.03-0.24,0.19l0.03,0.19
			C28.1,19.62,27.99,19.62,27.94,19.67z M27.36,20.07c0.11-0.03,0.13-0.05,0.11-0.11C27.36,19.96,27.38,19.99,27.36,20.07z
			 M27.49,21.13c-0.03,0-0.05,0,0,0.08V21.13z M27.62,21c-0.11,0-0.11,0.03-0.13,0.05C27.6,21.05,27.62,21.03,27.62,21z M27.7,20.84
			c-0.05,0-0.11,0.08-0.08,0.16C27.68,20.95,27.7,20.95,27.7,20.84z M27.68,19.67c0.03,0,0.08-0.08,0.13-0.16
			C27.7,19.57,27.68,19.57,27.68,19.67z M27.73,20.84c0.05-0.03,0.08,0,0.05-0.05C27.78,20.79,27.78,20.81,27.73,20.84z
			 M27.81,19.33c0.03,0.08,0,0.13,0,0.19l0.11-0.11L27.81,19.33z M27.99,20.34c-0.03,0.03-0.05,0.05-0.05,0.16
			C27.97,20.5,27.99,20.36,27.99,20.34z M28.07,20.26c-0.05,0-0.08,0.03-0.08,0.05C28.02,20.31,28.07,20.28,28.07,20.26z
			 M28.15,20.07v0.11C28.18,20.15,28.21,20.15,28.15,20.07z M28.42,19.62c0,0.03,0,0.03-0.03,0.05
			C28.42,19.67,28.5,19.67,28.42,19.62z M28.66,19.41c0.03-0.05,0.03-0.08,0.03-0.08C28.66,19.33,28.58,19.33,28.66,19.41z
			 M28.68,19.3c0.05-0.03,0.08-0.03,0.05-0.11C28.74,19.22,28.68,19.3,28.68,19.3z M28.92,18.11c0.05,0.08,0.08,0.08,0.08,0.08
			c0.05-0.03,0.05,0,0.08-0.03c0.03,0,0.08-0.05,0.11-0.08c-0.03,0-0.11-0.03-0.13-0.03h-0.03C29,18.08,28.98,18.11,28.92,18.11z
			 M29,17.42c-0.03,0-0.03,0.03-0.03,0.03C28.9,17.42,28.95,17.42,29,17.42z M29.11,17.23c0.03,0.08,0,0.08-0.08,0.16L29,17.42
			c0,0,0-0.03,0.03-0.03C29,17.26,29.05,17.23,29.11,17.23z M29.24,17.21l-0.13,0.03c0-0.03,0.03-0.05,0.03-0.05
			S29.24,17.18,29.24,17.21z M29.16,17.58c0,0,0.03-0.05,0.03-0.11C29.32,17.55,29.19,17.58,29.16,17.58z M30.46,15.88l-0.19,0.13
			c0,0.11,0.03,0.19-0.08,0.24l-0.48,0.66c-0.05,0.13-0.21,0.24-0.24,0.42c-0.03,0.08-0.11,0.05-0.13,0.03
			c-0.03-0.08-0.08-0.13-0.08-0.16c0.16-0.08,0.24-0.24,0.24-0.37c-0.03,0-0.03-0.05-0.05-0.05c0.05-0.08,0.05,0,0.05,0.05
			l0.48-0.48l0.29-0.35l-0.05-0.24l0.13-0.03c0.08,0,0.16-0.13,0.19-0.03C30.57,15.75,30.54,15.83,30.46,15.88z M29.77,18
			c0,0,0.03,0.08,0.05,0.08c0.03,0,0.13,0,0.03-0.03c0.21-0.03,0.24,0,0.29-0.03c0.08,0,0.11-0.03,0.11-0.11h-0.13l-0.32,0.05
			C29.77,17.98,29.77,18,29.77,18z M29.93,17.37c-0.03,0-0.08,0.03,0.03,0.11C29.96,17.45,29.93,17.39,29.93,17.37z M29.98,15.93
			c0,0.03,0,0.05-0.03,0.05C29.93,15.93,29.96,15.96,29.98,15.93z M30.2,17.52l0.37,0.11l0.32-0.05c0.11,0,0.29-0.08,0.45-0.03
			c0.16,0.11,0.37,0.08,0.58,0.05c0.19-0.13,0.37,0.03,0.5,0c0.4-0.08,0.74,0.11,1.06,0c0.08,0,0.11,0.05,0.16,0.03
			c0.24,0.03,0.48,0.05,0.72,0.13c0.16,0,0.27-0.03,0.32-0.08c0.24,0.11,0.16-0.05,0.16-0.16c0.16-0.03,0.08-0.13,0.08-0.24
			c0.11-0.05,0.11-0.21,0.08-0.26c-0.08,0.03-0.13-0.03-0.08-0.13c0.03-0.08,0-0.21,0.19-0.16c0.03,0,0.08,0.03,0.08-0.08
			c0.11-0.08,0.24-0.29,0.16-0.5c-0.13-0.05-0.13-0.08,0.03-0.24l0.03,0.24c0.11-0.08,0.03-0.11,0.03-0.24
			c0.13-0.03,0.13-0.08,0.13-0.11c-0.03,0-0.11,0.03-0.16-0.03c0.05-0.08-0.03-0.21,0.13-0.24l0.03,0.21
			c0.13-0.11,0.13-0.13-0.03-0.21c0.03-0.05,0.03-0.08,0.05-0.08c0.11-0.05,0.11-0.13,0.03-0.24c-0.03-0.05,0-0.13,0.08-0.19
			l-0.03-0.19l0.13-0.29c0.03-0.16,0.21-0.05,0.27-0.08c0.11-0.08,0.11-0.19,0.08-0.32h-0.11c0-0.03-0.03-0.05,0-0.05
			c0-0.03-0.03-0.11,0.05-0.16c0,0.05,0.05,0.13,0.05,0.13v0.08c0.19-0.05,0.08-0.19,0.19-0.29c0,0-0.03-0.05-0.11-0.05
			c-0.03-0.03-0.11,0-0.08-0.13c0.03-0.05,0.11-0.11,0.16-0.08c0.19,0.05,0.19-0.05,0.05-0.16c-0.11-0.16,0.05-0.29,0.08-0.45
			c0,0,0.03,0,0.05,0.03c0,0.13,0.03,0.13,0.16,0.03c0.03-0.08,0.03-0.13,0.03-0.21h-0.03c-0.21-0.05-0.21-0.05-0.19-0.11l0.21-0.37
			c0-0.05,0.05-0.21,0.21-0.11c0.19-0.05,0.16-0.26,0.21-0.4c0.03-0.05-0.16-0.08-0.16-0.08c0.05-0.16,0.11-0.45,0.24-0.66
			l0.03-0.03c0.08,0.03,0.11,0.05,0.11,0.11c0.03,0,0.03,0.05,0.03,0.11h0.03c0.05-0.21,0.21-0.37,0-0.61c0,0,0.05-0.05,0.08-0.16
			c0.19-0.03,0.34-0.11,0.34-0.32l0.05-0.16c0.16-0.05,0.08-0.21,0.13-0.27C38.1,9.73,38,9.59,38.08,9.51
			c0.08-0.03,0.03-0.13,0.03-0.24c0.05,0,0.11-0.05,0.11-0.11h-0.13c0-0.08-0.03-0.24,0.11-0.24l0.03,0.21
			c0.13-0.05,0.24-0.24,0.21-0.37c0.13-0.05,0.19-0.21,0.19-0.34c-0.08,0.03-0.16,0.05-0.21,0.11V8.48c0-0.08,0-0.16,0.03-0.16
			c0.08-0.05,0.13,0.03,0.16,0.05c0.13,0,0.11-0.13,0.08-0.21C38.53,8.05,38.5,8,38.63,7.92c0-0.21,0.08-0.37,0.21-0.61
			c0.08-0.11,0.13-0.29,0.11-0.5c-0.16,0.11-0.34,0.27-0.5,0.5c-0.19,0.29-0.53,0.53-0.88,0.74c0-0.08-0.03-0.11-0.05-0.16
			c0,0,0-0.03-0.03-0.03v0.08l0.08,0.11c-0.03,0.05,0,0.11-0.03,0.13l-0.5,0.56c-0.32,0.37-0.56,0.77-0.96,1.09
			c-0.03,0-0.05,0.03-0.05,0.13c-0.13,0.21-0.34,0.34-0.5,0.53c-0.03,0.05-0.16,0.05-0.21,0.08l0.13-0.21
			c0.05-0.05,0.03-0.19,0.03-0.24c-0.16,0.16-0.27,0.29-0.4,0.48l0.24-0.03c-0.05,0.21-0.11,0.48-0.32,0.61
			c-0.18,0.13-0.29,0.27-0.4,0.45c-0.13,0.13-0.29,0.24-0.4,0.48c0,0.13-0.16,0.19-0.27,0.21c-0.05,0-0.11,0.11-0.13,0.13
			c-0.03,0.19-0.16,0.29-0.32,0.4l-0.21,0.5c-0.03,0.03-0.13,0-0.16,0.05c-0.03,0.05-0.08,0.21-0.19,0.24
			c-0.11,0.16-0.16,0.27-0.37,0.29c-0.08,0.03-0.13,0.03-0.21,0.11l-0.4,0.4c-0.03,0.03,0,0.11,0,0.19c0.03,0.03,0.03,0.03,0.08,0
			C32,14.69,32,14.71,31.97,14.71c0.03,0.21,0.03,0.21-0.19,0.26c0.03,0.16,0.03,0.35-0.11,0.48c-0.08,0.13-0.26,0.16-0.24,0.32
			l-0.03,0.03c-0.11-0.03-0.13-0.03-0.13-0.05l-0.03-0.19c-0.19,0.08-0.29,0.26-0.37,0.48c0,0.03,0.08,0.11,0.08,0.19
			c-0.03,0.05-0.03,0.21-0.19,0.29v-0.08c-0.03-0.08-0.05-0.13-0.11-0.05l-0.13,0.16l0.24-0.03c0.03,0.13,0.03,0.24-0.05,0.37
			l-0.42,0.27c0,0.08-0.13,0-0.13-0.08c-0.08,0.05-0.19,0.19-0.21,0.29C30.04,17.39,30.14,17.52,30.2,17.52z M30.09,15.77
			c0.03,0.11-0.03,0.16-0.08,0.16C30.01,15.83,30.04,15.8,30.09,15.77z M30.17,17.07c0.05,0,0.11-0.03,0.08-0.11
			C30.2,16.97,30.17,17.02,30.17,17.07z M30.54,16.6c-0.03,0-0.08,0.05,0,0.08V16.6z M30.62,15.27c-0.03-0.03-0.05-0.03-0.05-0.05
			C30.59,15.14,30.59,15.24,30.62,15.27z M30.59,15.43c-0.03-0.11,0-0.13,0.03-0.16l0.13-0.03c0.05,0,0.08,0,0.05,0.05
			c0.03,0.11,0,0.16-0.03,0.19c0.03,0.11-0.05,0.11-0.13,0.05C30.62,15.51,30.59,15.46,30.59,15.43z M30.73,14.85l0.03-0.03
			l0.03,0.03C30.75,14.87,30.75,14.87,30.73,14.85z M31.23,17.9l-0.37,0.05L30.83,18l0.03,0.03h0.13c0.16-0.03,0.19,0,0.27-0.05
			L31.23,17.9z M30.91,14.98c0.08-0.13,0.16-0.32,0.19-0.48l0.24-0.03c-0.03,0.24-0.16,0.42-0.32,0.58
			c-0.03,0.03-0.08,0.03-0.11,0.03C30.86,15.06,30.86,15,30.91,14.98z M31.07,14.39l0.03,0.08h-0.05
			C31.05,14.39,31.07,14.39,31.07,14.39z M31.26,15.53c0.11-0.03,0.13-0.11,0.13-0.13C31.26,15.4,31.23,15.46,31.26,15.53z
			 M31.34,14.47c-0.03-0.24,0.05-0.27,0.19-0.27C31.55,14.31,31.5,14.42,31.34,14.47z M31.39,15.38c0.19-0.03,0.19-0.03,0.21-0.24
			C31.44,15.16,31.42,15.32,31.39,15.38z M31.55,14.21c0-0.08,0.05-0.13,0.08-0.13C31.66,14.13,31.63,14.18,31.55,14.21z
			 M31.6,15.14c0.03-0.03,0.05-0.05,0.03-0.16C31.6,15,31.58,15.08,31.6,15.14z M31.89,17.98c-0.03,0-0.08-0.03-0.11-0.03h-0.05
			c-0.03,0-0.03,0-0.13,0.08c0.11-0.03,0.11,0.03,0.13,0.03h0.08L31.89,17.98z M32.03,13.73l-0.37,0.34c-0.03-0.11-0.03-0.19,0-0.26
			l0.16-0.24l0.24-0.03C32.03,13.57,32.05,13.73,32.03,13.73z M31.66,14.98h0.11c0-0.03,0-0.03-0.03-0.08
			C31.73,14.95,31.66,14.95,31.66,14.98z M31.76,13.52c0-0.05,0-0.05,0.03-0.05l0.03,0.08C31.79,13.55,31.79,13.52,31.76,13.52z
			 M31.97,14.71l-0.03-0.08c-0.03,0-0.05,0-0.05,0.03c-0.05,0-0.13,0.03-0.13,0.05H31.97z M31.87,13.39c0,0-0.05,0-0.08,0.05
			c0.03-0.05,0.03-0.08,0.03-0.08S31.87,13.36,31.87,13.39z M32.08,27.95c0-0.03-0.05-0.13-0.05-0.21l-0.05,0.03
			c-0.03,0.11,0,0.16,0.03,0.19v0.08C32.05,28,32.08,28,32.08,27.95z M32.32,13.01l0.08-0.29c-0.05,0-0.05-0.03-0.08-0.03
			c0.05-0.05,0.08,0,0.08,0.03c0.35-0.16,0.53-0.42,0.74-0.69l0.13-0.11c0.03,0.16,0.03,0.21-0.08,0.32
			c-0.11,0.19-0.37,0.35-0.48,0.58c-0.16,0.05-0.24,0.24-0.27,0.32c-0.05,0.08-0.13,0.08-0.16,0.13c0,0.21,0,0.21-0.24,0.24
			c0.03-0.08,0.11-0.21,0.24-0.24C32.27,13.17,32.27,13.09,32.32,13.01z M32.19,27.07c-0.03-0.03-0.03-0.03-0.05-0.03
			C32.16,27.1,32.16,27.1,32.19,27.07z M32.58,18c0,0,0-0.03-0.03-0.03l-0.35,0.05c0,0,0,0.03-0.03,0.03h0.05l0.32-0.03
			C32.58,18.03,32.58,18.03,32.58,18z M32.24,26.04v0.08l0.03,0.03C32.29,26.12,32.29,26.12,32.24,26.04z M32.32,28.06h-0.05
			l0.03,0.05C32.32,28.08,32.32,28.08,32.32,28.06z M32.37,25.83l-0.03-0.03C32.32,25.91,32.37,25.88,32.37,25.83z M32.4,27.1h-0.03
			l0.03,0.08C32.42,27.18,32.42,27.1,32.4,27.1z M32.4,14.21c0.05,0,0.05-0.03,0.05-0.03c0.03,0.03,0.05,0.11,0.03,0.11L32.4,14.21z
			 M32.53,25.11c0-0.03-0.03-0.03-0.05-0.03c0,0.03,0,0.05-0.05,0.13c0.05,0,0.08,0.05,0.11,0.03
			C32.5,25.19,32.53,25.11,32.53,25.11z M32.48,26.76l-0.05,0.03l0.05,0.03C32.5,26.78,32.5,26.78,32.48,26.76z M32.53,26.25
			c-0.03,0.05-0.03,0.13-0.03,0.16l0.03,0.03V26.25z M32.56,13.65c0.08,0,0.11,0.03,0.16,0.03l0.21-0.03l-0.19-0.21l-0.11,0.08
			C32.61,13.52,32.61,13.57,32.56,13.65z M32.61,25.99c0,0-0.03,0,0,0.08l0.03,0.03L32.61,25.99z M32.64,25.7
			c-0.03,0.08,0,0.08,0,0.11c0.11-0.03,0.13-0.05,0.13-0.05c0-0.08-0.03-0.11-0.03-0.11C32.64,25.67,32.64,25.7,32.64,25.7z
			 M32.72,23.41l0.03-0.21c0.08-0.11,0.13-0.08,0.24-0.03c-0.11,0.08-0.08,0.21-0.11,0.24c0,0.05-0.08,0.05-0.11,0.08
			C32.74,23.49,32.72,23.41,32.72,23.41z M33.11,13.41l-0.05-0.24l-0.08-0.11l-0.24,0.34C32.87,13.41,32.98,13.39,33.11,13.41z
			 M32.87,26.41c-0.03,0-0.16,0.03-0.03,0.11C32.85,26.46,32.85,26.46,32.87,26.41z M32.87,25.06c0,0,0-0.03-0.03-0.03L32.87,25.06z
			 M32.87,26.15v-0.03h-0.03C32.85,26.17,32.87,26.17,32.87,26.15z M32.85,26.38c0.03,0,0.05,0,0.03-0.03
			C32.87,26.36,32.87,26.38,32.85,26.38z M32.95,24.82l-0.05-0.05C32.93,24.85,32.93,24.85,32.95,24.82z M32.93,24.56
			c0,0.03,0.08,0.03,0.08,0.05c0.03-0.03,0.03-0.05,0.03-0.16l-0.03-0.03C32.93,24.45,32.93,24.45,32.93,24.56z M33.17,25.62
			l-0.13-0.08c0-0.03-0.03-0.03-0.03-0.03s-0.03,0-0.03,0.03c-0.03,0.08-0.05,0.24-0.03,0.32c0,0,0.03,0.05,0.08,0.05
			C33.19,25.83,33.19,25.77,33.17,25.62z M32.98,22.64c0,0,0.03,0,0.03-0.03v0.03H32.98z M33.17,23.79
			c-0.08,0.05-0.03,0.19-0.13,0.24c-0.03,0.11-0.03,0.13,0,0.21c0,0.03,0.16-0.03,0.16-0.11C33.19,24,33.19,23.87,33.17,23.79z
			 M33.03,22.62v-0.11C33.19,22.59,33.06,22.62,33.03,22.62z M33.11,25.03c-0.03,0.11-0.11,0.11-0.03,0.16
			C33.11,25.16,33.11,25.11,33.11,25.03z M33.14,26.41c0,0.03-0.03,0.03-0.03,0.03c0.03,0,0.03,0.05,0.03,0.05V26.41z M33.59,24.98
			c-0.03-0.08-0.05-0.18-0.13-0.21c-0.13-0.08-0.16-0.19-0.19-0.27l-0.03,0.03c-0.05,0.19-0.13,0.32-0.11,0.5
			C33.27,24.98,33.41,24.93,33.59,24.98z M33.17,22.27c0-0.03-0.03-0.03-0.03-0.05c0-0.03,0.03-0.03,0.05-0.03
			c0,0,0.03,0.03,0.03,0.05C33.22,22.25,33.19,22.27,33.17,22.27z M33.22,23.55c-0.05,0.03-0.05,0.03-0.03,0.11
			c0,0.03-0.03,0.08-0.03,0.11c0.03,0,0.08-0.05,0.16-0.11C33.33,23.65,33.25,23.63,33.22,23.55z M33.17,25.38l0.13,0.05
			C33.3,25.4,33.27,25.3,33.17,25.38z M33.22,12.99c0,0,0.03-0.03,0.03-0.08C33.22,12.96,33.19,12.91,33.22,12.99z M33.27,11.56
			c-0.05-0.05,0-0.05,0.03-0.05C33.3,11.53,33.27,11.53,33.27,11.56z M33.46,12.59c-0.08,0.11-0.21,0.19-0.19,0.32l0.21-0.05
			L33.46,12.59c0.08-0.03,0.11-0.05,0.11-0.08C33.46,12.51,33.43,12.56,33.46,12.59z M33.27,11.93c0.05-0.21,0.21-0.4,0.4-0.48
			C33.64,11.71,33.54,11.87,33.27,11.93z M33.38,21.72h-0.11C33.38,21.66,33.38,21.66,33.38,21.72z M33.35,23.2
			c-0.03,0-0.05,0.03-0.05,0.11c-0.03,0.03,0,0.05,0.03,0.05v-0.03C33.35,23.31,33.35,23.23,33.35,23.2z M33.3,11.5
			c0-0.11,0-0.16,0.11-0.19C33.43,11.4,33.41,11.4,33.3,11.5z M33.43,22.94c-0.13,0.03-0.11,0.13-0.11,0.21
			C33.46,23.12,33.46,23.02,33.43,22.94z M33.43,21.5c-0.03-0.05-0.05-0.05-0.05-0.05c0-0.05,0.05-0.05,0.05-0.05l0.03,0.03
			C33.46,21.42,33.43,21.45,33.43,21.5z M33.41,11.32c0.05-0.03,0.05-0.08,0.05-0.08C33.48,11.32,33.46,11.29,33.41,11.32z
			 M33.51,22.78c0-0.03,0-0.03-0.08-0.03c0,0-0.03,0,0,0.03v0.16C33.54,22.88,33.56,22.8,33.51,22.78z M33.59,22.51
			c0-0.08-0.03-0.08-0.03-0.08s-0.05,0.03-0.05,0.11c0,0,0.05-0.03,0.05,0C33.56,22.51,33.59,22.51,33.59,22.51z M33.59,24.66
			c0.05,0,0.05,0,0.05-0.08l-0.08-0.03L33.59,24.66z M33.59,12.48c0.03,0,0.05-0.03,0.03-0.11C33.62,12.46,33.62,12.48,33.59,12.48z
			 M33.62,22.3c0.05-0.08,0.05-0.08,0-0.11V22.3z M33.75,21.82c-0.03,0-0.11,0.08-0.11,0.08c0,0.03,0.03,0.08,0.11,0.08V21.82
			c0.05-0.05,0.08-0.05,0.05-0.11v-0.11l-0.08,0.08L33.75,21.82z M34.04,22.14c0-0.03-0.03-0.05-0.03-0.08l-0.16,0.08
			c0,0.16-0.05,0.37-0.13,0.58c-0.03,0.05-0.08,0.13-0.03,0.26c0.08-0.03,0.21,0,0.19-0.11c-0.03-0.19,0.05-0.37,0.19-0.53
			C34.04,22.27,34.07,22.25,34.04,22.14z M33.8,12.19c0.08-0.05,0.08-0.05,0.05-0.11C33.78,12.11,33.75,12.11,33.8,12.19z
			 M34.02,10.73l-0.08,0.03c0,0-0.11-0.03-0.13-0.03c0.03,0,0.03-0.03,0.03-0.03l0.16-0.03C33.99,10.71,34.02,10.73,34.02,10.73z
			 M33.91,21.32c-0.03,0-0.13,0.05,0.03,0.13C33.94,21.4,33.91,21.34,33.91,21.32z M33.91,12.09c0.03,0,0.05-0.03,0.05-0.08
			C33.94,12.01,33.91,12.03,33.91,12.09z M33.96,21.11l-0.03-0.03v0.21C33.99,21.29,34.04,21.24,33.96,21.11z M33.99,12.01
			c0.19-0.03,0.19-0.11,0.16-0.29C34.07,11.74,33.99,11.85,33.99,12.01z M34.04,21.64c-0.05,0.05-0.05,0.16,0,0.24l0.13,0.19
			c0,0.03,0.08,0.03,0.08,0.03c0.05-0.03,0.05-0.05,0.05-0.08c-0.03-0.11-0.08-0.11,0.03-0.16c0.21-0.27,0.24-0.29,0.21-0.48
			l-0.08-0.58c-0.03,0.03-0.13,0.05-0.13,0.05c0.03,0.19,0,0.32-0.13,0.45c-0.03,0.05-0.03,0.16-0.03,0.21L34.04,21.64z
			 M34.07,20.89v-0.05C34.02,20.87,34.02,20.89,34.07,20.89z M34.1,20.84c0.16-0.11,0.13-0.16,0.08-0.27
			C34.04,20.6,34.07,20.71,34.1,20.84z M34.41,19.06c0,0-0.08,0-0.08-0.03h-0.03L34.1,19.3l0.03,0.19
			C34.36,19.43,34.33,19.22,34.41,19.06z M34.17,22.59l-0.05-0.11c0,0-0.03,0.05,0,0.13c0,0,0.03,0.03,0.03,0.05
			C34.17,22.64,34.17,22.64,34.17,22.59z M34.31,21.64v0.05c-0.05-0.03-0.11-0.03-0.11-0.03l-0.03-0.16
			C34.31,21.53,34.36,21.58,34.31,21.64z M34.25,22.3c0,0,0-0.05-0.05-0.05l-0.03,0.05c0.03,0,0.03,0,0.05,0.03
			C34.2,22.3,34.25,22.3,34.25,22.3z M34.2,11.69c0.05,0,0.08-0.05,0.08-0.11C34.25,11.64,34.2,11.64,34.2,11.69z M34.23,20.55
			c0.05,0,0.03-0.08,0.03-0.19c0,0-0.03,0-0.03-0.03c0,0.03-0.03,0.03-0.03,0.03L34.23,20.55z M34.28,11.53
			c0.11,0,0.11-0.05,0.11-0.08C34.28,11.48,34.25,11.5,34.28,11.53z M34.41,10.26c0-0.03-0.05-0.03-0.08-0.03
			C34.41,10.18,34.41,10.23,34.41,10.26z M34.39,11.4c0.21,0.03,0.35-0.16,0.37-0.37C34.52,11.08,34.47,11.24,34.39,11.4z
			 M34.44,19.94c0-0.03-0.03-0.03-0.05-0.05v0.16C34.41,19.99,34.44,19.99,34.44,19.94z M34.52,19.62l0.08-0.16
			c0-0.03-0.03-0.05-0.03-0.08l-0.03,0.03C34.49,19.49,34.49,19.51,34.52,19.62c-0.03,0.03-0.13,0.03-0.03,0.08
			C34.49,19.67,34.49,19.65,34.52,19.62z M34.6,9.91c0.03,0.03,0,0.05,0,0.05l-0.03-0.05H34.6z M34.87,9.83L34.6,9.86
			C34.76,9.73,34.79,9.73,34.87,9.83z M34.84,20.2c0,0,0.03,0,0.11-0.05c0.05,0.05,0.11,0.08,0.13,0.16c0,0.11-0.03,0.13-0.03,0.21
			c-0.13,0.08-0.16,0.03-0.19-0.03c-0.03,0-0.11,0.03-0.11,0c-0.08-0.03-0.13-0.03-0.05-0.13C34.73,20.31,34.79,20.23,34.84,20.2z
			 M34.76,19.78c0,0-0.11,0.03-0.03,0.11C34.76,19.86,34.76,19.83,34.76,19.78z M34.81,17.29l0.03,0.24
			C34.68,17.45,34.68,17.42,34.81,17.29z M34.76,11.03c0.13,0,0.16-0.03,0.13-0.16C34.89,10.97,34.81,10.97,34.76,11.03z
			 M34.97,19.22c0-0.05-0.08,0.03-0.05,0.13c-0.03,0.11-0.19,0.27-0.13,0.42c0.21,0.05,0.21,0.05,0.19-0.13
			C35,19.57,35,19.43,35,19.38C35,19.35,35.05,19.25,34.97,19.22z M34.92,17.29h-0.11l0.05-0.05
			C34.89,17.23,34.89,17.26,34.92,17.29z M34.92,10.87c0.03-0.03,0.08-0.05,0.08-0.08C34.94,10.79,34.92,10.84,34.92,10.87z
			 M35,10.76c0.08,0,0.11-0.03,0.11-0.08C35.02,10.68,35.02,10.73,35,10.76z M35.02,16.97c0,0.03,0,0.03-0.03,0.05
			C35.02,17.02,35.13,17.02,35.02,16.97z M35.21,17.6c-0.11,0.03-0.13,0.05-0.08,0.16v0.05c0.08-0.03,0.08-0.03,0.08-0.08
			C35.24,17.66,35.21,17.63,35.21,17.6z M35.32,17.47c-0.08,0-0.11,0.05-0.11,0.11C35.29,17.58,35.32,17.52,35.32,17.47z
			 M35.29,9.09c-0.03-0.08,0-0.11,0.05-0.13l0.11-0.03l0.03,0.11c-0.03,0-0.11,0.05-0.13,0.16C35.34,9.14,35.29,9.14,35.29,9.09z
			 M35.37,17.21c-0.11,0.05-0.08,0.16-0.08,0.24C35.4,17.42,35.37,17.34,35.37,17.21z M35.45,16.97c-0.13,0.05-0.08,0.16-0.08,0.24
			C35.53,17.18,35.45,17.02,35.45,16.97z M35.42,15.91h-0.05c0-0.05,0-0.08,0.03-0.13L35.42,15.91z M35.55,17.76l-0.03-0.05
			l-0.13,0.16l0.05,0.03C35.55,17.9,35.55,17.82,35.55,17.76z M35.55,8.93h-0.11c0.05,0,0.05-0.05,0.05-0.08
			C35.53,8.88,35.53,8.93,35.55,8.93z M35.53,16.76c-0.11,0-0.03,0.16-0.03,0.21C35.61,16.91,35.53,16.84,35.53,16.76z M35.5,10.1
			c0.08,0,0.11,0,0.08-0.05C35.5,10.07,35.5,10.07,35.5,10.1z M35.61,17.42c-0.03,0-0.08,0.03,0,0.11V17.42z M35.63,16.6
			c-0.05,0.05-0.05,0.11-0.05,0.11C35.66,16.7,35.69,16.7,35.63,16.6z M35.74,17.18c-0.16,0.03-0.08,0.13-0.13,0.21
			C35.79,17.37,35.77,17.29,35.74,17.18z M35.66,16.38c0.03,0.05,0.05,0.05,0.03,0H35.66z M35.69,15.03
			c0.05,0.03,0.05,0.11,0.08,0.11c0,0,0-0.08,0.08-0.13c0.03,0,0.05,0,0-0.08c0,0.05-0.03,0.05,0,0.08L35.69,15.03z M36.14,16.91
			c-0.03,0-0.13-0.03-0.16-0.03c-0.13-0.03-0.21-0.03-0.24,0.08c0,0.03,0.03,0.13,0,0.21c0.11-0.03,0.19-0.03,0.27-0.08
			C36.11,17.1,36.14,17.05,36.14,16.91z M35.82,9.83l0.13-0.16C35.82,9.75,35.79,9.8,35.82,9.83z M35.87,8.53
			C35.85,8.5,35.82,8.5,35.82,8.5c0-0.03,0.03-0.03,0.03-0.11L35.87,8.53z M35.85,8.4c0-0.05,0.03-0.08,0.03-0.08
			C36.01,8.37,35.87,8.35,35.85,8.4z M35.85,15.93v0.05l0.03-0.05C35.85,15.91,35.85,15.91,35.85,15.93z M36.01,14.71H35.9v0.03
			L36.01,14.71z M36.46,16.41c-0.24-0.34-0.24-0.34-0.45-0.08c0,0.05-0.08,0.05-0.08,0.05c0.03,0.08,0,0.11,0,0.13h0.13
			C36.14,16.44,36.27,16.36,36.46,16.41z M35.95,9.67c0.05,0,0.05-0.03,0.05-0.08C35.95,9.59,35.95,9.65,35.95,9.67z M36.01,14.24
			l-0.05-0.03c0.03-0.03,0.05-0.03,0.05-0.05C36.01,14.18,36.03,14.24,36.01,14.24z M35.95,15.69c0.03,0,0.03-0.03,0.03-0.03
			L35.95,15.69z M36.01,9.57c0.03,0,0.08-0.08,0.16-0.13C36.03,9.46,36.01,9.51,36.01,9.57z M36.16,9.41c0.03,0,0.03-0.03,0.03-0.05
			C36.16,9.35,36.14,9.38,36.16,9.41z M36.24,15.06v-0.08L36.16,15L36.24,15.06z M36.19,15.99c0.05,0.05,0.05,0.05,0.05,0
			c0-0.03-0.03-0.03-0.03-0.03S36.19,15.96,36.19,15.99z M36.24,9.33c0.03-0.05,0.08-0.05,0.05-0.16
			C36.24,9.17,36.24,9.22,36.24,9.33z M36.3,14.77c0.03,0,0-0.03,0-0.03l-0.03,0.03C36.3,14.85,36.32,14.85,36.3,14.77z M36.35,7.89
			c0,0-0.05,0.03-0.05,0l0.08-0.05C36.38,7.87,36.35,7.89,36.35,7.89z M36.32,9.17c0.19-0.03,0.29-0.11,0.29-0.29
			C36.48,8.9,36.35,9.01,36.32,9.17z M36.35,15.77c0-0.05,0-0.05-0.03-0.08L36.35,15.77z M36.43,14.47c-0.03,0-0.13,0.03-0.03,0.05
			C36.4,14.5,36.4,14.5,36.43,14.47z M36.4,15.32c-0.03,0.03-0.05,0.05-0.03,0.11c0,0,0,0.08,0.03,0.11c0-0.03,0.03-0.03,0.03-0.03
			L36.4,15.32z M36.38,7.84c0-0.03,0-0.08,0.08-0.08C36.48,7.82,36.46,7.84,36.38,7.84z M36.48,15.83h-0.11
			C36.43,15.85,36.43,15.91,36.48,15.83z M36.43,14.47c0.16-0.05,0.13-0.16,0.13-0.24c0.03-0.08,0.03-0.13,0.03-0.16
			c0.03,0,0-0.03-0.03-0.05c0,0,0,0.03-0.03,0.05l0.03,0.16C36.4,14.26,36.43,14.42,36.43,14.47z M36.43,15.3
			c0.05-0.03,0.08-0.03,0.08-0.08h-0.03C36.48,15.22,36.48,15.27,36.43,15.3z M36.54,14.9h-0.03v0.05c0.03,0.11,0.05,0.11,0.03,0
			C36.64,14.92,36.54,14.92,36.54,14.9z M36.62,13.84c0.05-0.03,0.03-0.08,0.03-0.08C36.59,13.76,36.59,13.76,36.62,13.84z
			 M36.62,8.88c0.08,0,0.16,0,0.08-0.08C36.69,8.82,36.69,8.82,36.62,8.88z M36.83,14.45v-0.03l-0.13,0.03
			c0,0.03-0.03,0.03-0.05,0.05c0.03,0.11,0,0.13,0,0.13c0.03,0.03,0.03,0.03,0.05,0.03C36.91,14.66,36.91,14.63,36.83,14.45z
			 M36.72,12.67c-0.03,0.03-0.03,0.05-0.03,0.05C36.72,12.72,36.77,12.72,36.72,12.67z M36.75,13.6c0,0.03-0.03,0.13-0.03,0.13
			C36.75,13.7,36.83,13.7,36.75,13.6z M36.83,7.58c-0.08,0-0.11,0.03-0.08,0.11C36.83,7.6,36.83,7.58,36.83,7.58z M36.8,12.51
			l0.08-0.03c0-0.03-0.08,0-0.08,0h-0.03C36.77,12.51,36.8,12.51,36.8,12.51z M36.88,13.39c-0.05,0-0.13,0-0.05,0.05
			C36.83,13.44,36.88,13.41,36.88,13.39z M36.83,7.5l0.03,0.08c0-0.03,0.03-0.05,0.03-0.08H36.83z M36.85,14.29
			c-0.03,0-0.03,0.08-0.03,0.13C36.85,14.42,36.88,14.39,36.85,14.29z M36.88,8.61c0.08-0.05,0.05-0.08,0.05-0.08
			C36.85,8.53,36.77,8.56,36.88,8.61z M36.91,12.01c-0.05,0.03-0.05,0-0.05,0s-0.03-0.08,0.03-0.08
			C36.88,11.98,36.91,12.01,36.91,12.01z M36.88,13.39c0.13-0.11,0.11-0.19,0.08-0.29C36.83,13.15,36.88,13.28,36.88,13.39z
			 M36.88,7.5l0.11-0.19C36.96,7.31,36.93,7.34,36.88,7.5z M36.96,14.1l-0.05-0.03c-0.03,0.05-0.03,0.05,0,0.11
			c-0.05,0.03,0,0.08,0,0.11c0-0.03,0.03-0.03,0.08-0.05L36.96,14.1z M36.96,8.48c0.03-0.03,0.05-0.03,0.03-0.08L36.96,8.48z
			 M37.04,12.88c-0.11,0.03-0.05,0.11-0.08,0.21C37.07,13.07,37.04,12.93,37.04,12.88z M37.15,7.15l-0.16,0.03
			c0.03-0.08,0.05-0.11,0.13-0.13L37.15,7.15z M37.15,13.76h-0.08c-0.08,0.03-0.08,0.11-0.05,0.18h0.11l0.05-0.18
			C37.17,13.73,37.15,13.76,37.15,13.76z M37.04,12.86c0.03,0,0.11-0.03,0.08-0.11C37.07,12.83,37.07,12.86,37.04,12.86z M37.2,7.05
			h-0.08c0.03-0.05,0.03-0.05,0.03-0.11L37.2,7.05z M37.23,13.44c-0.03,0-0.11,0-0.03,0.05C37.2,13.47,37.2,13.47,37.23,13.44z
			 M37.17,11.61v0.03C37.2,11.58,37.2,11.58,37.17,11.61z M37.2,12.51h-0.03C37.23,12.59,37.23,12.59,37.2,12.51z M37.6,13.31
			c-0.08,0.03-0.08,0.03-0.11,0c-0.08,0-0.11-0.08-0.13-0.08c-0.08-0.05-0.16,0.03-0.13,0.11v0.11l0.26-0.03L37.6,13.31z
			 M37.25,11.4c0.08-0.03,0.05-0.08,0.05-0.11C37.25,11.32,37.23,11.32,37.25,11.4z M37.25,8.11c0.03,0,0.05,0.03,0.08,0.05
			c0-0.03,0.03-0.03,0.03-0.03c-0.03-0.03-0.05-0.05-0.05-0.11L37.25,8.11z M37.41,12.01c0,0-0.11,0-0.08,0.05
			C37.41,12.03,37.41,12.01,37.41,12.01z M37.33,13.01l0.03,0.03l0.03-0.03c0,0,0-0.08-0.03-0.08L37.33,13.01z M37.57,6.75
			l-0.16,0.03c-0.03-0.08,0.05-0.13,0.13-0.13L37.57,6.75z M37.46,11.74c-0.08,0.08-0.05,0.11-0.03,0.21
			C37.54,11.95,37.46,11.82,37.46,11.74z M37.44,12.72c0,0,0,0.05-0.03,0.05c0.03,0,0.03,0.03,0.03,0.03
			C37.52,12.78,37.52,12.75,37.44,12.72z M37.54,11.66c-0.05,0-0.05,0.03-0.03,0.08C37.54,11.69,37.57,11.69,37.54,11.66z
			 M37.57,12.56c0-0.03-0.03-0.13-0.05-0.03C37.54,12.54,37.57,12.54,37.57,12.56z M37.73,6.62c-0.05,0-0.13,0.03-0.19,0
			C37.6,6.52,37.68,6.49,37.73,6.62z M37.84,10.04h-0.08c-0.03-0.03-0.16,0-0.13-0.08l0.13-0.21c0.03-0.03,0.05-0.03,0.21,0.03
			C37.78,9.83,37.84,9.94,37.84,10.04z M37.73,12.22l-0.03-0.03l-0.08,0.03c0,0.03,0.03,0.11,0.05,0.08
			C37.73,12.3,37.7,12.22,37.73,12.22z M37.7,12.56h-0.08C37.62,12.59,37.62,12.7,37.7,12.56z M37.73,11.24c0-0.05,0-0.11,0.03-0.11
			C37.73,11.13,37.68,11.13,37.73,11.24z M37.76,11l-0.03,0.08C37.76,11.05,37.89,11.05,37.76,11z M37.84,11.79
			c-0.03,0-0.08,0.03,0,0.11C37.84,11.87,37.81,11.79,37.84,11.79z M37.94,11.61c-0.11,0-0.11,0-0.11,0.03v0.13
			c0.03,0,0.13-0.03,0.16-0.08L37.94,11.61z M37.94,6.36C37.92,6.3,37.92,6.3,37.89,6.3l0.03-0.05L37.94,6.36z M37.92,10.79h-0.03
			v0.03C37.92,10.81,37.92,10.81,37.92,10.79z M38,9.54c0,0-0.03-0.03-0.05-0.03C37.97,9.41,38,9.51,38,9.54z M38.1,9.27L38.05,9.3
			l0.03-0.13L38.1,9.27z M38.42,8.77l-0.24,0.16c-0.03-0.16,0.03-0.32,0.21-0.4L38.42,8.77z M38.39,5.93
			c-0.03,0-0.11-0.05-0.11-0.08c0,0,0.08,0,0.08-0.03L38.39,5.93z M38.42,10.65c-0.03-0.03-0.11,0-0.11-0.05
			c-0.03,0.05,0,0.08,0,0.13h0.03L38.42,10.65z M38.69,10.26c-0.03,0-0.05-0.05-0.08-0.05l-0.13,0.03c0.08,0.03,0.08,0.05,0.16,0.05
			C38.63,10.28,38.66,10.26,38.69,10.26z M38.74,7.92h-0.08l0.03,0.24C38.79,8.11,38.74,7.97,38.74,7.92z M38.82,7.82
			c-0.05,0-0.05,0.05-0.05,0.08C38.82,7.87,38.84,7.89,38.82,7.82z M38.95,7.52c-0.05,0.03-0.16,0.03-0.03,0.13
			C38.9,7.58,38.95,7.52,38.95,7.52z M38.95,6.81c0.05,0,0.13-0.03,0.03-0.11C38.98,6.75,38.98,6.75,38.95,6.81z M38.98,7.42
			L38.95,7.5C38.98,7.5,39.03,7.5,38.98,7.42z M39.14,7.18c-0.03,0-0.13,0.03,0,0.05V7.18z M39.14,7.18
			c0.03-0.11,0.11-0.11,0.03-0.13C39.16,7.05,39.14,7.07,39.14,7.18z M39.3,6.83c0,0,0-0.05-0.03-0.03
			C39.27,6.89,39.27,6.89,39.3,6.83z M39.45,4.98C39.43,5.03,39.3,5,39.43,5.06C39.43,5.06,39.45,5.03,39.45,4.98z M39.48,4.9
			c0-0.03-0.03-0.03-0.05-0.03l0.03,0.11C39.48,4.98,39.48,4.9,39.48,4.9z M39.75,4.74c-0.03,0.03-0.11,0.03-0.05,0.05
			C39.72,4.79,39.72,4.76,39.75,4.74z M39.83,4.6c-0.03-0.03-0.08-0.03-0.08-0.03v0.05C39.75,4.63,39.8,4.6,39.83,4.6z M40.04,4.42
			c-0.03,0-0.05,0-0.03,0.11C40.01,4.5,40.04,4.5,40.04,4.42z M40.12,4.76c0.05-0.03,0.11-0.03,0.03-0.08
			C40.12,4.74,40.12,4.74,40.12,4.76z"/>
		<path class="st0" d="M52.22,17.37c-0.27,0.32-0.56,0.53-0.88,0.74c-0.32,0.29-0.74,0.53-1.17,0.77c-0.34,0.21-0.66,0.4-0.98,0.69
			c-0.24,0.19-0.48,0.32-0.72,0.5c-0.26,0.19-0.56,0.32-0.82,0.56c-0.66,0.5-1.3,0.85-2.12,0.98c-0.16,0-0.29,0.08-0.48,0.08
			c-0.45,0.11-0.74,0.08-1.01-0.35c-0.03-0.08-0.03-0.11-0.08-0.18c-0.35-0.24-0.37-0.53-0.37-0.88v-0.32c0-0.32,0.03-0.64,0.21-0.9
			c0.05-0.21,0.13-0.4,0.21-0.61c0-0.03-0.05-0.03-0.05-0.05h-0.03c-0.08,0-0.11,0.03-0.11,0.03c-0.45,0.42-0.95,0.79-1.41,1.19
			c-0.45,0.32-0.9,0.66-1.35,1.01c-0.18,0.11-0.32,0.27-0.48,0.42c-0.42,0.42-0.98,0.64-1.54,0.85c-0.27,0.19-0.53,0.13-0.74-0.08
			c-0.48-0.42-0.61-0.9-0.48-1.46c0.13-0.53,0.34-1.03,0.66-1.51c0.56-0.9,1.11-1.83,1.83-2.6c0.26-0.29,0.42-0.29,0.69-0.05
			c0.05,0.05,0.11,0.08,0.11,0.16c0.08,0.08,0.11,0.21,0,0.26c-0.13,0.16-0.24,0.32-0.35,0.53c-0.19,0.32-0.34,0.72-0.61,1.06
			c-0.16,0.21-0.32,0.56-0.48,0.85c-0.21,0.34-0.45,0.69-0.64,1.09c-0.11,0.16-0.13,0.37-0.24,0.5l0.13,0.08
			c0.13-0.08,0.32-0.11,0.48-0.24c0.79-0.61,1.59-1.22,2.44-1.78l3.24-2.34c0.16-0.13,0.34-0.19,0.56-0.21c0-0.05,0.05,0,0.13,0.03
			c0.03,0.08,0.19,0.08,0.26,0.16c0.24,0.08,0.35,0.21,0.24,0.45c0,0.11-0.05,0.32-0.08,0.4c-0.24,0.21-0.32,0.56-0.53,0.74
			c-0.03,0.03-0.13,0.08-0.13,0.08c-0.32,0.77-0.77,1.51-1.06,2.28c-0.03,0.18,0,0.21,0.11,0.21c0.5,0.05,0.88-0.03,1.27-0.27
			c0.88-0.5,1.64-1.03,2.44-1.59c0.88-0.53,1.67-1.01,2.55-1.64l0.34-0.21c0.61-0.42,0.77-0.5,1.25,0
			C52.54,17.02,52.38,17.23,52.22,17.37z M48.64,18.88c-0.21,0-0.34,0.08-0.37,0.29C48.43,19.17,48.62,19.09,48.64,18.88z
			 M48.96,18.67c0,0-0.11-0.03-0.11,0c-0.08,0.05-0.13,0.13-0.16,0.19c0.08,0,0.16,0,0.27-0.08V18.67z M49.84,18.45
			c-0.11,0-0.21,0-0.24,0.19C49.73,18.64,49.81,18.64,49.84,18.45z M50.68,17.95c-0.21-0.05-0.34,0.03-0.4,0.27
			C50.47,18.21,50.58,18.11,50.68,17.95z M50.42,17.71c0.05,0.05,0.13,0.05,0.16,0.05c0,0.03,0.03,0,0.11,0
			c0.03-0.05,0.08-0.11,0.11-0.24c-0.08,0-0.21,0-0.24,0.13L50.42,17.71z"/>
		<path class="st0" d="M62.26,16.94c-0.05,0.16-0.11,0.29-0.21,0.42c-0.21,0.34-2.07,1.54-2.28,1.88c-0.34,0.45-0.77,0.48-1.27,0.48
			c-0.19,0-0.26-0.03-0.4-0.21c-0.03-0.16-0.11-0.24-0.13-0.37c-0.27-0.5-0.4-0.72-0.24-1.3c0-0.08-0.13-0.16-0.21-0.13
			c-0.27,0.13-0.56,0.21-0.8,0.35c-1.14,0.74-2.28,1.35-3.26,2.23c-0.13,0.11-0.32,0.21-0.48,0.32c-0.13,0.16-0.32,0.26-0.48,0.42
			c-0.34,0.32-0.69,0.58-0.9,0.98c-0.4,0.5-0.9,0.98-1.25,1.56c-0.13,0.29-0.37,0.42-0.48,0.66c-0.11,0.19-0.19,0.21-0.35,0.13
			c-0.11-0.05-0.19-0.05-0.21-0.08c-0.13-0.21-0.29-0.34-0.4-0.53c-0.05-0.21,0-0.42,0-0.61c0.08-0.16,0.11-0.24,0.21-0.37
			c0.42-0.77,0.85-1.51,1.3-2.36c0.53-0.9,1.03-1.88,1.51-2.84c0.21-0.42,0.45-0.8,0.61-1.3c0.11-0.29,0.56-0.45,0.85-0.24
			l0.42,0.24c0.08,0.13,0.16,0.32,0.05,0.4c-0.35,0.37-0.43,0.88-0.66,1.25l-0.72,1.3c-0.03,0-0.03,0.11,0,0.13h0.08
			c1.06-0.9,2.26-1.64,3.48-2.31c0.66-0.32,1.33-0.56,1.96-0.87c0.45-0.24,1.01-0.05,1.3,0.29l0.42,0.45
			c0.11,0.13,0.11,0.37-0.08,0.56c-0.16,0.11-0.24,0.24-0.34,0.42c-0.08,0.32-0.37,0.53-0.42,0.82c0.66-0.13,2.71-1.7,3.32-1.94
			C62.26,16.81,62.26,16.91,62.26,16.94z"/>
		<path class="st0" d="M72.79,18.35c0,0.05-0.13,0.08-0.16,0.08c-0.45,0.05-0.82,0.26-1.27,0.45c-0.66,0.29-1.33,0.53-1.96,0.8
			c-0.08,0.05-0.19,0.05-0.21,0.11c-0.53,0.4-1.19,0.5-1.75,0.82c-0.58,0.24-1.17,0.5-1.72,0.77c-0.8,0.45-1.67,0.77-2.6,0.9
			c-0.16,0.05-0.27,0.05-0.37,0.19c-0.53,0.21-0.98,0.03-1.43-0.13c-0.29-0.08-0.5-0.21-0.69-0.4c-0.32-0.24-0.45-0.58-0.56-0.9
			c-0.11-0.58-0.11-0.69,0-1.17l0.19-0.34c0.42-0.96,1.06-1.72,1.86-2.36c0.74-0.69,1.51-1.3,2.41-1.78
			c0.24-0.19,0.61-0.34,0.95-0.4c0.24-0.11,0.56-0.13,0.8-0.24c0.34-0.24,0.64-0.29,0.95-0.08c0.05,0.08,0.13,0,0.24,0.08
			c0.11,0.03,0.27,0.05,0.29,0.11c0.21,0.19,0.35,0.45,0.42,0.58c0.21,0.37,0.21,0.74-0.05,1.03c-0.34,0.42-0.56,0.9-1.09,1.11
			l-0.37,0.24c-0.72,0.58-1.59,0.85-2.47,0.98c-0.24,0.11-0.53,0.08-0.77,0.08c-0.35,0-0.77-0.08-1.19-0.08
			c-0.08,0-0.13,0-0.24,0.11c-0.42,0.61-0.95,1.17-1.19,1.86c-0.08,0.27,0.03,0.42,0.21,0.5c0.29,0.08,0.64,0.24,0.9,0.08
			c0.58,0,1.17-0.18,1.7-0.32c0.45-0.08,0.93-0.37,1.35-0.5c0.5-0.24,0.9-0.45,1.35-0.69c0.13,0.16,0.13,0.16,0.27,0
			c0.19-0.19,0.42-0.32,0.69-0.42c0.05-0.11,0.19-0.11,0.35-0.16c0.87-0.37,1.78-0.82,2.6-1.17c0.26-0.16,0.5-0.19,0.77-0.29
			c0.21-0.08,0.48-0.21,0.66-0.34c0.34-0.11,0.56-0.08,0.77,0.21c0.08,0.08,0.16,0.13,0.24,0.16
			C72.85,17.92,72.95,18.21,72.79,18.35z M62.42,18.4c0.08,0.08,0.24,0,0.32,0c0.11-0.05,0.21-0.05,0.34-0.05v0.05
			c0.24-0.05,0.56-0.08,0.77-0.13c0.32-0.11,0.56-0.19,0.9-0.34c0.72-0.21,1.3-0.53,1.86-0.95c0.29-0.16,0.53-0.48,0.66-0.8
			c0.08-0.08,0.08-0.24,0.08-0.37c0.08-0.13-0.03-0.19-0.13-0.29c-0.08-0.08-0.19,0.03-0.21,0.11c-0.03,0.11-0.16,0.13-0.32,0.13
			c-0.58,0.05-1.17,0.21-1.67,0.53c-0.66,0.32-1.19,0.77-1.72,1.17l-0.72,0.69C62.55,18.16,62.4,18.32,62.42,18.4z M66.8,13.2
			c-0.13-0.05-0.32-0.13-0.42-0.29c-0.05-0.08-0.05-0.21,0-0.27c0.08-0.11,0.19-0.24,0.29-0.24c0.13-0.03,0.21-0.05,0.29-0.13
			c0.08-0.13,0.16-0.24,0.24-0.37c0.11-0.08,0.21-0.19,0.29-0.32c0.03-0.05,0.05-0.05,0.13-0.16c0.13-0.19,0.34-0.4,0.45-0.64
			c0.24-0.21,0.5-0.48,0.77-0.72c0.03-0.05,0.08-0.05,0.11-0.08c0.05-0.05,0.21,0.03,0.21,0.13c0,0.11,0.03,0.26,0.08,0.37
			c0.03,0.05,0,0.08,0,0.08c-0.05,0.13-0.08,0.19-0.16,0.27C69.05,10.92,69,10.97,69,11.03c-0.05,0.13-0.13,0.21-0.19,0.32
			c-0.05,0.08-0.13,0.19-0.19,0.32c-0.11,0.24-0.27,0.48-0.45,0.72c-0.05,0.03-0.11,0.08-0.13,0.16c-0.08,0.19-0.24,0.32-0.4,0.48
			c-0.13,0.16-0.29,0.21-0.53,0.19C66.98,13.2,66.93,13.23,66.8,13.2z"/>
		<path class="st0" d="M83.94,9.22V8.98c-0.21,0.11-0.56,0.21-0.64,0.56c0.19,0,0.34-0.03,0.5-0.13
			C83.84,9.35,83.92,9.33,83.94,9.22v0.21c-0.13,0.13-0.29,0.4-0.48,0.48c-0.08,0.08-0.08,0.19-0.11,0.24
			c-0.4,0.42-1.03,0.88-1.3,1.38c0,0.08-0.05,0.11-0.08,0.11c-2.92,2.94-6.47,5.09-8.89,6.55l-0.56,0.61
			c-0.11,0.29-0.35,0.37-0.53,0.61c-0.08,0.19-0.21,0.32-0.24,0.48c-0.05,0.29-0.26,0.4-0.34,0.66c-0.05,0.18-0.16,0.29-0.27,0.53
			c-0.03,0.08-0.13,0.19-0.16,0.26c-0.11,0.11-0.32,0.19-0.05,0.35v0.03c-0.19,0.21-0.19,0.48-0.19,0.74c0,0.21,0.13,0.48,0.4,0.5
			c0.56,0.08,1.03,0.16,1.54,0.05c0.85-0.21,1.67-0.53,2.36-0.95c0.95-0.53,1.91-1.11,2.84-1.72c0.69-0.45,1.27-1.01,1.91-1.35
			c0.11-0.08,0.16-0.21,0.26-0.24c0.03-0.08,0.19-0.19,0.21-0.19c0.21,0.03,0.34-0.08,0.4-0.21c0.11-0.21,0.35-0.37,0.56-0.45
			c0.37-0.24,0.8-0.5,1.11-0.82c0.26-0.19,0.53-0.24,0.77-0.19c0.08,0,0.19,0.03,0.19,0.08c0.08,0.21,0.21,0.21,0.34,0.29
			c0.05,0,0.11,0.13,0.05,0.32c-0.08,0.03-0.16,0.13-0.24,0.21c-0.03,0.03-0.16,0.13-0.19,0.13c-0.37-0.03-0.64,0.21-0.85,0.4
			c-0.4,0.24-0.77,0.45-1.11,0.72l-1.03,0.74c-0.11,0.05-0.19,0.11-0.27,0.21c-0.21,0.19-0.4,0.11-0.5,0.03
			c0,0.05-0.11,0.08-0.11,0.16c0.11,0.16-0.03,0.26-0.16,0.34c-0.29,0.08-0.48,0.24-0.72,0.5c-0.13,0.13-0.37,0.26-0.58,0.34
			c-0.16,0.13-0.21,0.16-0.29,0.27c-0.24,0.19-0.42,0.32-0.66,0.42c-0.21,0.19-0.53,0.4-0.77,0.56c-0.34,0.27-0.77,0.42-1.17,0.61
			c-0.27,0.16-0.64,0.32-0.87,0.42c-0.32,0.13-0.53,0.27-0.88,0.27c-0.32,0.05-0.61,0.11-0.98,0.11c-1.3-0.11-1.96-0.77-2.33-1.88
			c-0.05-0.21-0.05-0.5,0-0.77c0.08-0.34,0.19-0.74,0.4-1.03c0.11-0.24,0.19-0.56,0.37-0.74c0.05,0.08,0.08,0.08,0.13,0
			c0.11-0.08,0.13-0.19,0.13-0.29h-0.13c-0.05-0.21,0.11-0.32,0.24-0.42c0.03-0.08,0.03-0.19,0.16-0.21c-0.03,0-0.03-0.08-0.03-0.08
			l0.08,0.08c0.03,0.08,0.08,0.08,0.11,0h-0.03l0.03-0.08v0.08c0.11-0.11,0.11-0.24,0.11-0.32h-0.11c0.13-0.42,0.34-0.77,0.66-1.09
			c0.08,0.08,0.08,0.08,0.08,0.11c0.05-0.03,0.05-0.03,0.05-0.11h-0.13c0-0.19,0.13-0.34,0.32-0.37l-0.08-0.05h0.08v0.08
			c0.03,0,0.08-0.03,0.08-0.08h-0.08c0-0.11,0-0.19,0.08-0.21v0.21h0.03l-0.03,0.05c0.13-0.08,0.13-0.19,0.13-0.29h-0.11
			c0-0.11,0.03-0.13,0.11-0.13v0.13c0.05,0,0.11-0.11,0.16-0.13h-0.16c0-0.24,0.11-0.32,0.29-0.42c0.05,0.13,0.08,0.11,0.13,0h-0.13
			c0-0.11,0.05-0.19,0.13-0.24v0.24c0.13-0.08,0.16-0.16,0.16-0.24c0.08-0.05,0.13-0.08,0.13-0.19l0.08-0.11h-0.08V15.4
			c0.19-0.45,0.48-0.95,0.93-1.27c0.03-0.26,0.13-0.42,0.42-0.58c0.03-0.21,0.16-0.42,0.42-0.5v0.19l0.03,0.03l0.05-0.03
			c0.05-0.11,0.05-0.13,0.05-0.19h-0.13c0-0.11,0.03-0.13,0.13-0.13v0.13c0.03-0.05,0.03-0.11,0.08-0.13h-0.08V12.8
			c0.18-0.29,0.37-0.56,0.64-0.69c0.03,0.03,0.03,0.03,0.03,0.05c0.08-0.03,0.08-0.03,0.08-0.05H75.9v-0.16
			c0.27-0.29,0.48-0.66,0.77-0.95c0.98-0.93,1.91-1.91,2.87-2.79c0.37-0.45,0.82-0.85,1.3-1.19c0.95-0.64,1.91-1.38,3.05-1.91
			c0.5-0.16,1.33-0.16,1.7,0.11c0.21,0.08,0.32,0.21,0.42,0.32c0.11,0.16,0.13,0.35,0.05,0.53c-0.11,0.21-0.16,0.48-0.37,0.64
			l-0.48,0.66c-0.05,0.21-0.35,0.21-0.43,0.34c-0.05,0-0.05,0.05-0.05,0.13h0.13c0.05,0,0.13-0.13,0.16,0.05
			c0.03,0,0,0.03-0.03,0.11c0,0.03-0.13,0.11-0.19,0.11c-0.21-0.11-0.34,0-0.45,0.21v0.11h0.08c0.03,0,0.03,0,0.13-0.05
			c0.03,0,0.03,0,0.08,0.05c0,0.03-0.05,0.05-0.05,0.05c-0.13,0.05-0.21,0.05-0.32,0.05c-0.21-0.05-0.21,0.13-0.24,0.34
			c0,0.03,0,0.03-0.11,0.11h0.32C84.23,9.09,84.13,9.19,83.94,9.22z M71,21.03c-0.05-0.05-0.11-0.05-0.16-0.08h-0.08v-0.4
			c-0.11,0-0.16,0.08-0.11,0.11v0.29c-0.19,0.03-0.16,0.16-0.16,0.24h0.11c0.05,0,0.05,0.08,0.08,0.11c0-0.03,0.08-0.11,0.08-0.11
			c0.05-0.03,0.08-0.03,0.13-0.08C70.94,21.08,70.94,21.03,71,21.03z M71.26,19.83v-0.24c-0.11,0.05-0.11,0.13-0.11,0.27
			c-0.21,0-0.26,0.21-0.26,0.34c0.11,0,0.19-0.03,0.26-0.11c0,0.08,0.08,0.08,0.08,0.11c0.03-0.03,0.03-0.03,0.03-0.11
			C71.45,19.99,71.45,19.89,71.26,19.83z M71.71,18.9c-0.21,0-0.29,0.21-0.26,0.4C71.58,19.22,71.77,19.12,71.71,18.9z M72.88,17.45
			c0,0-0.03-0.05-0.08-0.05v-0.24c-0.24,0.03-0.29,0.18-0.26,0.32h0.11c0-0.03,0.05-0.08,0.16-0.08v0.08
			C72.85,17.47,72.88,17.45,72.88,17.45z M73.07,16.7c0.13-0.05,0.21-0.08,0.24-0.08c0-0.13,0-0.21,0.05-0.32
			C73.09,16.41,73.07,16.46,73.07,16.7z M73.44,16.04c-0.08,0.05-0.13,0.13-0.08,0.27C73.49,16.28,73.49,16.17,73.44,16.04z
			 M73.65,15.88c0.13-0.03,0.21-0.16,0.21-0.37C73.73,15.53,73.6,15.72,73.65,15.88z M85.24,5.51c-0.08-0.21-0.37-0.24-0.5-0.08
			c-0.26,0.29-0.64,0.53-1.01,0.74c-0.45,0.29-0.98,0.53-1.41,0.9c-0.11,0.05-0.13,0.19-0.24,0.19c-0.5,0.21-0.82,0.64-1.25,0.95
			c-0.45,0.27-0.74,0.77-1.19,1.11c-0.26,0.45-0.69,0.74-1.06,1.11c-0.05,0.08-0.16,0.13-0.19,0.21c-0.16,0.21-0.29,0.4-0.5,0.61
			c-0.16,0.21-0.42,0.48-0.58,0.69c0,0.29-0.27,0.42-0.45,0.61c-0.08,0.16-0.21,0.24-0.26,0.37c-0.13,0.11-0.13,0.19-0.21,0.32
			c-0.13,0.08-0.21,0.21-0.34,0.32c-0.11,0.13-0.16,0.29-0.24,0.37c-0.08,0.08-0.11,0.13-0.11,0.19c0,0.24-0.21,0.32-0.35,0.53
			c-0.4,0.4-0.77,0.87-1.14,1.38c-0.16,0.19-0.19,0.45-0.37,0.61c-0.05,0.19-0.16,0.19-0.16,0.4c0.24,0.08,0.48-0.29,0.61-0.4
			c0.85-0.56,1.46-0.9,2.55-1.72c1.03-0.82,2.02-1.62,2.92-2.57c0.85-0.96,2.04-1.83,2.86-2.79c0.58-0.66,1.11-1.35,1.67-2.02
			c0.29-0.34,0.34-0.64,0.56-1.01c0.19-0.27,0.29-0.5,0.4-0.74C85.32,5.69,85.24,5.61,85.24,5.51z M73.86,15.43
			c0.24-0.03,0.32-0.13,0.32-0.37C73.97,15.19,73.86,15.32,73.86,15.43z M74.18,15.06c0.21-0.08,0.32-0.27,0.34-0.5
			C74.31,14.66,74.21,14.85,74.18,15.06z M74.84,14.42v-0.29c-0.11,0.08-0.13,0.16-0.13,0.29H74.84z M74.84,14.13
			c0.21-0.05,0.21-0.05,0.29-0.26C74.92,13.89,74.87,14,74.84,14.13z M74.95,22.51h0.21c0.88-0.26,1.57-0.87,2.42-1.33
			c0.53-0.42,1.19-0.66,1.7-1.17c0.05,0,0.11-0.03,0.24-0.03c0.03-0.11,0.03-0.16,0.11-0.21c0.4-0.24,0.74-0.53,1.14-0.8
			c0.27-0.19,0.48-0.4,0.74-0.56c0.29-0.08,0.5-0.27,0.72-0.45c0.03-0.05,0.03-0.08,0.11-0.19c-0.19,0-0.32,0.11-0.48,0.13
			c-0.4,0.34-0.9,0.66-1.35,0.98c-0.32,0.21-0.58,0.4-0.85,0.53c-0.64,0.42-1.33,0.77-1.88,1.22c-0.56,0.45-1.17,0.8-1.75,1.19
			c-0.11,0.11-0.21,0.19-0.37,0.21C75.4,22.14,75.13,22.25,74.95,22.51z M75.64,13.23c-0.16,0.03-0.24,0.05-0.24,0.21
			C75.61,13.44,75.64,13.44,75.64,13.23z M76.3,12.7v-0.32c-0.18,0.13-0.4,0.21-0.4,0.53C76.04,12.8,76.22,12.72,76.3,12.7z
			 M76.59,11.95c-0.13,0.05-0.16,0.16-0.13,0.29C76.59,12.17,76.65,12.11,76.59,11.95z M80.97,12.38l-0.11-0.13
			c-0.16,0.11-0.32,0.24-0.4,0.35C80.71,12.7,80.89,12.59,80.97,12.38z M81.95,11.42c-0.08-0.03-0.11-0.05-0.16-0.13
			c-0.11,0.08-0.27,0.11-0.27,0.29c0.11,0.03,0.13,0.03,0.13,0.08C81.79,11.61,81.95,11.58,81.95,11.42z M82.09,11.13v-0.08
			c-0.05,0-0.05,0.03-0.11,0.08H82.09v0.13c0.05,0,0.11-0.08,0.13-0.13H82.09z M82.62,10.57c0,0-0.08-0.05-0.11-0.08l-0.42,0.24
			v-0.08h-0.05l0.05,0.08V11c0.05,0.05,0.11,0.08,0.13,0.13C82.38,10.95,82.51,10.76,82.62,10.57z M82.32,17.79
			c0.13,0.03,0.24,0,0.32-0.13l0.05-0.05c-0.05,0-0.08-0.03-0.13-0.03C82.46,17.6,82.32,17.66,82.32,17.79z M83.17,9.78
			c-0.03,0.13-0.11,0.13-0.24,0.13c-0.13,0.08-0.13,0.08-0.11,0.24c0,0.03,0.05,0.13,0.05,0.16c0.05,0,0.08-0.03,0.19-0.13
			c0.08-0.11,0.21-0.21,0.4-0.27c-0.08-0.08,0-0.27-0.16-0.27C83.28,9.65,83.2,9.73,83.17,9.78V9.65c-0.03,0-0.03,0.08-0.08,0.08
			C83.15,9.73,83.15,9.78,83.17,9.78z"/>
		<path class="st0" d="M91.16,18.74v-0.16c-0.08,0-0.24,0-0.32,0.16c-0.08,0-0.13,0-0.21,0.05c-0.21,0.08-0.35,0.11-0.42,0.32
			c-0.11,0.05-0.24,0.05-0.29,0.13c-0.19,0-0.29,0.08-0.4,0.29h0.27v0.11c-0.35,0.24-0.8,0.45-1.03,0.74
			c-0.42,0.13-0.74,0.45-1.09,0.69c-0.4,0.19-0.74,0.42-1.09,0.64c-0.64,0.35-1.27,0.77-2.02,1.06c-0.34,0.11-0.66,0.24-1.01,0.37
			c-0.66,0.24-1.41,0.24-2.1,0.05c-0.05,0-0.19-0.05-0.21-0.08c-0.19-0.32-0.42-0.53-0.56-0.93c-0.19-0.42-0.29-0.9-0.24-1.38
			c0.08-0.42,0.19-0.82,0.29-1.22c0.4-1.01,0.93-1.88,1.62-2.71c0.21-0.27,0.53-0.53,0.74-0.8c0.24-0.24,0.56-0.29,0.85-0.16
			c0.24,0.16,0.45,0.34,0.66,0.53c0.08,0.13,0,0.34-0.11,0.34h-0.08c-0.37-0.08-0.66,0.16-0.8,0.45c-0.26,0.45-0.53,0.77-0.74,1.14
			c-0.42,0.58-0.85,1.25-1.06,1.88c-0.05,0.24-0.16,0.45-0.32,0.69c-0.11,0.32-0.13,0.61-0.05,0.98c0.24,0.19,0.64,0.19,0.98,0.11
			c0.32-0.11,0.66-0.21,1.01-0.35c0.32-0.08,0.64-0.21,0.98-0.37c0.27-0.18,0.64-0.26,0.95-0.5c0.66-0.29,1.19-0.66,1.88-1.06
			c0.5-0.26,0.96-0.61,1.51-0.87c0.13-0.03,0.35-0.13,0.45-0.24c0.29-0.32,0.74-0.5,1.06-0.69c0.32-0.16,0.56-0.32,0.85-0.5
			c0.13-0.08,0.77-0.4,0.93-0.37c0.13,0.05-0.13,0.29-0.03,0.56C91.67,18.24,91.3,18.69,91.16,18.74z M84.88,12.43
			c0.26-0.19,0.53-0.29,0.87-0.26c0.05,0,0.11,0.08,0.16,0.08c0.13,0.19,0.34,0.32,0.37,0.56c0,0.13,0.08,0.29-0.03,0.45
			c-0.19,0.11-0.34,0.27-0.64,0.29h-0.24c-0.08-0.03-0.24-0.03-0.4-0.08C84.56,13.33,84.45,12.72,84.88,12.43z M91.14,18.21
			c-0.4,0.11-0.77,0.27-1.14,0.48c-0.56,0.34-1.11,0.64-1.67,0.98c-0.11,0.05-0.27,0.16-0.27,0.21c0.27,0,0.48-0.11,0.72-0.24
			c0.72-0.4,1.43-0.87,2.18-1.25C91.01,18.4,91.08,18.27,91.14,18.21z"/>
		<path class="st0" d="M102.42,18.35c0,0.05-0.13,0.08-0.16,0.08c-0.45,0.05-0.82,0.26-1.27,0.45c-0.66,0.29-1.33,0.53-1.96,0.8
			c-0.08,0.05-0.19,0.05-0.21,0.11c-0.53,0.4-1.19,0.5-1.75,0.82c-0.58,0.24-1.17,0.5-1.72,0.77c-0.8,0.45-1.67,0.77-2.6,0.9
			c-0.16,0.05-0.27,0.05-0.37,0.19c-0.53,0.21-0.98,0.03-1.43-0.13c-0.29-0.08-0.5-0.21-0.69-0.4c-0.32-0.24-0.45-0.58-0.56-0.9
			c-0.11-0.58-0.11-0.69,0-1.17l0.19-0.34c0.42-0.96,1.06-1.72,1.86-2.36c0.74-0.69,1.51-1.3,2.41-1.78
			c0.24-0.19,0.61-0.34,0.95-0.4c0.24-0.11,0.56-0.13,0.8-0.24c0.34-0.24,0.64-0.29,0.95-0.08c0.05,0.08,0.13,0,0.24,0.08
			c0.11,0.03,0.27,0.05,0.29,0.11c0.21,0.19,0.35,0.45,0.42,0.58c0.21,0.37,0.21,0.74-0.05,1.03c-0.34,0.42-0.56,0.9-1.09,1.11
			l-0.37,0.24c-0.72,0.58-1.59,0.85-2.47,0.98c-0.24,0.11-0.53,0.08-0.77,0.08c-0.35,0-0.77-0.08-1.19-0.08
			c-0.08,0-0.13,0-0.24,0.11c-0.42,0.61-0.95,1.17-1.19,1.86c-0.08,0.27,0.03,0.42,0.21,0.5c0.29,0.08,0.64,0.24,0.9,0.08
			c0.58,0,1.17-0.18,1.7-0.32c0.45-0.08,0.93-0.37,1.35-0.5c0.5-0.24,0.9-0.45,1.35-0.69c0.13,0.16,0.13,0.16,0.27,0
			c0.19-0.19,0.42-0.32,0.69-0.42c0.05-0.11,0.19-0.11,0.35-0.16c0.87-0.37,1.78-0.82,2.6-1.17c0.26-0.16,0.5-0.19,0.77-0.29
			c0.21-0.08,0.48-0.21,0.66-0.34c0.34-0.11,0.56-0.08,0.77,0.21c0.08,0.08,0.16,0.13,0.24,0.16
			C102.47,17.92,102.58,18.21,102.42,18.35z M92.04,18.4c0.08,0.08,0.24,0,0.32,0c0.11-0.05,0.21-0.05,0.34-0.05v0.05
			c0.24-0.05,0.56-0.08,0.77-0.13c0.32-0.11,0.56-0.19,0.9-0.34c0.72-0.21,1.3-0.53,1.86-0.95c0.29-0.16,0.53-0.48,0.66-0.8
			c0.08-0.08,0.08-0.24,0.08-0.37c0.08-0.13-0.03-0.19-0.13-0.29c-0.08-0.08-0.19,0.03-0.21,0.11c-0.03,0.11-0.16,0.13-0.32,0.13
			c-0.58,0.05-1.17,0.21-1.67,0.53c-0.66,0.32-1.19,0.77-1.72,1.17l-0.72,0.69C92.18,18.16,92.02,18.32,92.04,18.4z"/>
		<path class="st0" d="M119.59,18.11c-0.53,0.21-1.03,0.37-1.59,0.56c-0.18,0.13-0.37,0.16-0.53,0.16c-0.19,0-0.26,0.05-0.21,0.24
			c0,0-0.08,0.03-0.16,0.08l-2.86,1.17c-0.77,0.29-1.62,0.61-2.31,0.85c-0.42,0.24-0.8,0.34-1.17,0.45
			c-0.42,0.16-0.85,0.16-1.3,0.08c-0.11-0.08-0.32-0.19-0.45-0.27c-0.13-0.13-0.35-0.34-0.45-0.5c-0.11-0.16-0.16-0.32-0.16-0.5
			c-0.03-0.88,0-1.75,0.29-2.57c0.13-0.26,0.21-0.56,0.27-0.8c0.05-0.13,0.08-0.37,0.08-0.58c0-0.19-0.03-0.21-0.16-0.08
			c-0.64,0.21-1.25,0.45-1.8,0.66c-0.35,0.16-0.56,0.35-0.88,0.5c-0.42,0.29-0.87,0.56-1.3,0.88c-0.16,0.16-0.5,0.16-0.66,0.4
			c-0.88,0.53-1.59,1.25-2.31,1.94c-0.13,0.11-0.27,0.27-0.37,0.37c-0.24,0.37-0.58,0.69-1.01,0.9c-0.11,0.11-0.16,0.21-0.26,0.32
			c-0.08,0.03-0.29,0.03-0.4-0.08c-0.21-0.37-0.45-0.77-0.21-1.22c0.08-0.21,0.19-0.53,0.32-0.74c0.13-0.32,0.29-0.56,0.42-0.88
			c0.03-0.08,0.08-0.24,0.21-0.34c0.58-0.88,1.03-1.88,1.33-2.92c0.13-0.29,0.32-0.37,0.56-0.29c0.29,0.16,0.53,0.32,0.72,0.58
			c0.11,0.11,0.03,0.16,0,0.21c-0.21,0.27-0.4,0.53-0.42,0.88c-0.08,0.11-0.16,0.21-0.19,0.34c-0.32,0.56-0.66,1.11-0.9,1.64
			c-0.05,0.11-0.16,0.24-0.16,0.37c0.05,0,0.11,0,0.16-0.03c0.53-0.37,1.01-0.69,1.51-1.09c0.56-0.45,1.01-0.9,1.67-1.22
			c0.32-0.29,0.74-0.42,1.09-0.64c0.34-0.32,0.74-0.48,1.17-0.74c0.32-0.08,0.53-0.26,0.77-0.4c0.21-0.16,0.53-0.27,0.77-0.37
			c0.27-0.16,0.5-0.13,0.74-0.13c0.03,0,0.13,0.08,0.19,0.13c0.13,0.19,0.34,0.4,0.48,0.61c0.03,0.08,0.03,0.21,0,0.34
			c-0.13,0.64-0.29,1.27-0.45,1.94c-0.08,0.48-0.21,1.01-0.32,1.46c-0.11,0.13-0.13,0.32-0.13,0.5c-0.05,0.29,0.13,0.37,0.45,0.32
			c0.74-0.03,1.41-0.27,2.04-0.42c0.48-0.29,1.06-0.4,1.56-0.64c0.45-0.19,0.85-0.4,1.33-0.56c0.64-0.19,1.27-0.5,1.86-0.66
			c0.58-0.26,1.09-0.42,1.7-0.66c0.48-0.26,1.01-0.37,1.51-0.64c0.16-0.11,0.45-0.05,0.69-0.08c0.05,0,0.08,0.03,0.08,0.08
			C120.38,17.39,120.67,17.68,119.59,18.11z M111.6,20.6h-0.29l-0.03,0.05c0.03,0,0.03,0.08,0.11,0.08
			C111.47,20.73,111.55,20.73,111.6,20.6z M111.97,20.5c-0.05,0-0.29-0.08-0.35,0.08h0.19C111.92,20.58,111.97,20.58,111.97,20.5z
			 M114.31,19.65c-0.05,0-0.13-0.03-0.21-0.03c-0.08,0-0.11,0.03-0.19,0.16C114.07,19.83,114.23,19.83,114.31,19.65z M115,19.41
			c-0.24-0.05-0.45,0.03-0.64,0.16v0.05C114.57,19.62,114.84,19.62,115,19.41z M115.39,19.22h-0.19c-0.11,0-0.21,0.11-0.21,0.19
			C115.18,19.41,115.34,19.43,115.39,19.22z M119.85,17.68c-0.05-0.03-0.08-0.11-0.08-0.03c-0.32,0.03-0.56,0.11-0.87,0.24
			c-0.03,0.03-0.13,0.13-0.21,0.08c-0.34-0.08-0.61,0.13-0.95,0.24c-0.11,0,0,0.24-0.27,0.24c-0.08,0-0.19,0.03-0.26,0.08
			c-0.13,0.05-0.29,0.11-0.37,0.11c-0.42,0.16-0.85,0.27-1.22,0.42c-0.08,0.03-0.19,0.08-0.19,0.16c0.19,0.11,0.34,0,0.53-0.03
			c0.69-0.19,1.3-0.56,1.96-0.66c0.03-0.05,0.08-0.05,0.16-0.08c0.13-0.21,0.4-0.13,0.53-0.24c0.5-0.08,0.82-0.32,1.19-0.5
			C119.85,17.71,119.85,17.68,119.85,17.68z"/>
	</g>
	<g>
		<path class="st0" d="M42.24,36.56c0.11,0,0.19,0,0.21-0.11c0.08,0,0.16,0.05,0.21-0.08h0.16c0.13,0,0.24-0.08,0.32-0.19
			c0.05-0.03,0.16-0.03,0.19-0.11c0.16,0,0.24-0.03,0.35-0.11c0.08-0.03,0.13,0,0.13,0.08c0.11,0,0.21,0.03,0.32,0.03
			c0,0.08-0.03,0.13,0.08,0.19l0.05,0.05h-0.03c-0.19,0.05-0.35,0.05-0.51,0.13c0,0.05-0.05,0.05-0.05,0.08
			c-0.03-0.03-0.03-0.03-0.03-0.08h0.08c-0.05-0.05-0.05-0.05-0.11,0c-0.21-0.03-0.37,0.16-0.59,0.11c-0.03,0-0.08,0.11-0.08,0.13
			c0.05,0.08,0.08,0.16-0.05,0.16c-0.13,0.03-0.29,0-0.37,0.08c-0.19,0.19-0.32,0.16-0.45-0.03c-0.03-0.03-0.11,0-0.13,0.03
			c-0.05,0.08-0.11,0.16-0.19,0.21c0.08,0,0.08,0.03,0.11,0.11h-0.11v-0.11h-0.11c0,0.03-0.03,0.03-0.05,0.03
			c0.03,0.05,0.05,0.05,0.11,0.08h0.05c0.05,0.03,0.08,0.08,0.11,0.11c-0.03,0.11-0.13,0.05-0.21,0.11
			c-0.03,0.05-0.08,0.11-0.16,0.05c-0.03-0.03-0.08-0.05-0.11-0.05c-0.03,0.11-0.13,0.11-0.21,0.11c-0.03,0.05-0.08,0.08-0.05,0.16
			c0,0.03,0.03,0.08,0,0.08c-0.35,0.16-0.61,0.48-0.99,0.62h-0.05l-0.11,0.11v-0.11c-0.05,0.05-0.05,0.05,0,0.11
			c-0.05,0.19-0.24,0.27-0.4,0.37c-0.13,0.05-0.27,0.05-0.21,0.24l-0.19,0.19c-0.08,0.05-0.08,0.16,0,0.19
			c0.27,0.13,0.51,0.27,0.77,0.37c0.32,0.11,0.61,0.22,0.93,0.27L42,40.48h0.21c0.32,0,0.59,0.11,0.88,0.13
			c0.05,0,0.08,0.03,0.08,0.03c-0.03,0-0.03,0.05-0.08,0.05c-0.13,0-0.24,0.03-0.32,0c-0.21-0.11-0.4-0.08-0.59-0.11
			c-0.21,0-0.43,0.03-0.61-0.08c-0.16-0.03-0.29,0-0.4,0h-0.05c0.03,0.03,0.03,0.08,0.05,0.08c0.19,0.03,0.4,0,0.53,0.16
			c0.03,0.03,0.11,0,0.16,0.03h0.37c0.05,0,0.05,0.05,0.05,0.05c0,0.03,0,0.05-0.05,0.05h-0.77c-0.13,0-0.24,0.05-0.37,0.05
			c-0.16,0-0.24-0.05-0.4-0.05c-0.48,0-0.96-0.19-1.44-0.29l-0.27-0.19c-0.11-0.03-0.16-0.11-0.21-0.19
			c-0.05-0.22-0.29-0.4-0.27-0.67c0.03-0.35,0.13-0.72,0.35-0.99c0.11-0.19,0.24-0.32,0.37-0.45c0.03-0.03,0.11-0.03,0.19-0.05v0.05
			l0.08-0.05c0.16-0.08,0.32-0.16,0.43-0.32c0-0.03,0.03-0.08,0.05-0.08H40h-0.03v-0.03h0.05L40,37.65c0.16-0.08,0.32-0.13,0.4-0.29
			c-0.03-0.03-0.08-0.03-0.08-0.03c0-0.05,0.05-0.05,0.08-0.08v0.11c0.05,0,0.16,0,0.21-0.11c0.08,0,0.24-0.08,0.27-0.21h-0.19
			c0-0.11,0.11-0.11,0.19-0.11v0.11c0.11-0.03,0.24-0.05,0.35-0.11c0.05-0.03,0.13-0.08,0.24-0.05c-0.05,0.03-0.05,0.11-0.08,0.16
			c0.13,0,0.24-0.05,0.27-0.16c0.19,0,0.32-0.08,0.4-0.22v-0.03c0,0-0.05,0-0.08-0.03c0.03,0,0.08-0.05,0.08-0.05v0.08v0.03
			C42.14,36.64,42.21,36.66,42.24,36.56h-0.16c0-0.13,0.11-0.11,0.16-0.11V36.56z M39.36,38.37c-0.03,0-0.03,0-0.03,0.05
			L39.36,38.37z M39.49,38.05h-0.08c0.03-0.05,0.03-0.08,0.05-0.08C39.47,37.97,39.47,38,39.49,38.05z M39.68,38.45
			c0,0-0.08,0,0,0.03V38.45z M39.65,38.18c0,0,0.03,0,0.03-0.05L39.65,38.18z M39.73,38.08l-0.03,0.03
			C39.73,38.1,39.79,38.1,39.73,38.08z M39.73,38.35c0,0.03-0.03,0.03-0.03,0.08C39.73,38.43,39.79,38.43,39.73,38.35z M39.89,37.65
			v0.08c0,0-0.05-0.03-0.08-0.03C39.84,37.65,39.89,37.65,39.89,37.65z M39.92,37.65h-0.03v-0.03h0.03V37.65z M39.97,37.62h-0.05
			c0,0,0-0.03,0.03-0.05C39.95,37.6,39.97,37.62,39.97,37.62z M40.29,37.73c-0.16,0.03-0.27,0.13-0.35,0.24c-0.03,0,0,0.03,0,0.03
			h0.03C40.13,37.97,40.21,37.89,40.29,37.73z M39.97,38.43h0.11C40.05,38.35,40.03,38.35,39.97,38.43z M40.37,37.68l-0.08,0.05
			C40.35,37.73,40.37,37.7,40.37,37.68z M40.56,37.25H40.4c0.03-0.13,0.13-0.21,0.27-0.21L40.56,37.25z M40.4,37.62
			c0.03,0,0.05,0,0.03-0.05C40.43,37.6,40.43,37.6,40.4,37.62z M40.45,37.89l-0.03-0.03v0.03H40.45z M40.67,37.47
			c-0.03,0-0.05,0-0.03,0.05C40.64,37.49,40.67,37.49,40.67,37.47z M40.75,37.38c-0.05,0-0.05,0.03-0.05,0.03
			C40.75,37.41,40.77,37.41,40.75,37.38z M40.8,40.45c0.05,0,0.08,0.03,0.11,0.03l0.03-0.03c-0.03,0-0.05-0.05-0.08-0.05
			C40.85,40.4,40.85,40.45,40.8,40.45z M40.88,36.93c0-0.03,0.03-0.05,0.11-0.05C40.99,36.9,40.93,36.93,40.88,36.93z M40.96,37.28
			h-0.05c0,0,0,0.05,0.03,0.05C40.93,37.3,40.93,37.28,40.96,37.28z M40.99,36.85c0.03-0.08,0.11-0.08,0.19-0.08
			C41.15,36.88,41.04,36.85,40.99,36.85z M41.17,37.14c-0.08,0-0.16,0-0.19,0.11C41.04,37.25,41.15,37.25,41.17,37.14z M41.15,37.52
			v-0.03h-0.03C41.12,37.52,41.15,37.52,41.15,37.52z M41.17,36.74c0.05-0.08,0.11-0.08,0.19-0.08
			C41.33,36.74,41.25,36.74,41.17,36.74z M41.36,37.04c-0.08,0.05-0.13,0-0.19,0.11C41.25,37.14,41.33,37.14,41.36,37.04z
			 M41.36,37.41c0-0.03,0-0.05-0.08-0.03C41.33,37.41,41.36,37.41,41.36,37.41z M41.39,36.66h-0.03c0-0.03,0.03-0.03,0.03-0.03
			V36.66z M41.47,36.64h-0.08c0,0,0-0.03,0.03-0.03L41.47,36.64z M41.47,36.85v0.03V36.85z M41.66,36.85h-0.16
			C41.57,36.74,41.6,36.74,41.66,36.85z M41.6,37.38c0.03,0.03,0.03,0.03,0.05,0.03C41.66,37.38,41.66,37.36,41.6,37.38z
			 M41.87,37.36v-0.11h0.19C42.05,37.36,41.95,37.36,41.87,37.36z M42,36.32l-0.03-0.03h0.08L42,36.32z M42.05,36.29v-0.03h0.03
			C42.05,36.26,42.05,36.29,42.05,36.29z M42.08,36.26c0.03-0.11,0.11-0.08,0.16-0.08C42.21,36.26,42.14,36.26,42.08,36.26z
			 M42.19,37.22c-0.05,0-0.08,0.03-0.11,0.03l0.05-0.11c0,0,0.05,0.03,0.08,0.03C42.21,37.22,42.19,37.22,42.19,37.22z M42.24,36.16
			c0.05-0.11,0.13-0.08,0.21-0.08C42.43,36.18,42.35,36.16,42.24,36.16z M42.45,36.45H42.3C42.35,36.37,42.35,36.37,42.45,36.45z
			 M42.45,36.05c0.03-0.11,0.11-0.08,0.16-0.08C42.62,36.08,42.54,36.08,42.45,36.05z M42.62,36.37c0-0.05-0.03-0.05-0.03-0.05
			C42.62,36.29,42.62,36.32,42.62,36.37z M42.67,35.97h-0.03H42.67z M42.67,35.94c0.05-0.11,0.16-0.05,0.27-0.05
			c0,0.05-0.08,0.08-0.11,0.08C42.78,35.97,42.72,35.97,42.67,35.94z M42.94,36.18c0,0-0.03,0.03-0.03,0.08
			C42.86,36.18,42.91,36.18,42.94,36.18z M42.94,35.89c0.03-0.16,0.13-0.11,0.21-0.11C43.1,35.89,43.04,35.89,42.94,35.89z
			 M43.15,36.08v0.08h-0.19C42.96,36.05,43.07,36.08,43.15,36.08z M43.07,40.83c0.03,0,0.03,0,0.03-0.05
			c0.05,0.05,0.08,0.05,0.11,0.05l-0.03,0.03C43.15,40.85,43.1,40.85,43.07,40.83z M43.15,35.78c0.03-0.11,0.11-0.11,0.19-0.11
			C43.31,35.78,43.2,35.78,43.15,35.78z M43.34,36.05h-0.19c0.03-0.11,0.11-0.08,0.19-0.08V36.05z M43.5,35.65
			c-0.08,0.03-0.11,0.03-0.16,0.03c0.05-0.03,0.08-0.08,0.08-0.08c0.03-0.03,0.08,0,0.11,0.05H43.5z M43.39,35.94h-0.03H43.39z
			 M43.79,40.85c-0.03,0-0.05,0.03-0.11,0c-0.03,0-0.05,0-0.11-0.03c0.05,0,0.08,0,0.08-0.05h0.08
			C43.74,40.83,43.76,40.83,43.79,40.85z M43.66,35.54c0-0.05,0.03-0.05,0.03-0.05h0.13c-0.03,0-0.05,0.05-0.08,0.08
			C43.74,35.57,43.68,35.54,43.66,35.54z M50.97,34.16c0-0.03,0-0.03-0.03-0.03c-0.05,0-0.08,0-0.11-0.03
			c0-0.05,0.03-0.08,0.05-0.08c0.21-0.03,0.37,0,0.59,0.08c0,0,0.03-0.05,0.08-0.05l-0.08-0.05c0,0-0.03,0-0.03-0.03
			c0.03,0,0.03-0.05,0.05-0.05c0.19,0,0.32-0.03,0.48-0.03c0.05-0.08,0.11-0.11,0.19-0.08c0.13,0,0.27,0.05,0.37,0.08
			c0.03,0,0.08-0.03,0.11-0.03c-0.03,0-0.08-0.05-0.08-0.05c-0.03-0.03-0.05-0.05-0.05-0.08c0.19,0,0.4,0,0.61-0.08
			c0.16-0.08,0.35-0.03,0.51-0.03v-0.11h-0.75c-0.03,0-0.03-0.03-0.03-0.03s0-0.05,0.03-0.05c0.03-0.03,0.11-0.03,0.13-0.03
			c0.4,0,0.8-0.08,1.17-0.16h0.13c0.4,0.03,0.83-0.08,1.2-0.16c0.51-0.05,0.99-0.03,1.47-0.08c0.45-0.08,0.91-0.05,1.39-0.11
			c1.58-0.13,3.18-0.08,4.81-0.08h0.24c0-0.03,0-0.03,0.03-0.03l-0.03-0.03c-0.05,0-0.11-0.05-0.16-0.05h-1.68
			c-0.24,0.08-0.43-0.11-0.72-0.03c-0.19,0.08-0.48,0.03-0.72,0.03h-0.72c-0.51,0-0.99,0-1.47,0.05c-0.29,0-0.59,0.03-0.88,0.05
			c-0.29,0.03-0.56-0.03-0.83,0.08c-0.24-0.11-0.45,0.03-0.67,0.03c-0.16,0-0.32,0.03-0.51,0.08c-0.05,0-0.16,0.03-0.27,0.03
			c-0.48-0.03-0.96,0.05-1.44,0.16c-0.24,0.05-0.45,0-0.69,0c0.03-0.03,0.08-0.05,0.11-0.05c0.35-0.05,0.64-0.19,0.99-0.13
			c0.56-0.11,1.09-0.19,1.65-0.22c0.27-0.11,0.56-0.08,0.83-0.08c0.16-0.03,0.37,0,0.51-0.05c0.03-0.05,0.03-0.05,0.08-0.05
			c0.43,0.05,0.85-0.05,1.31-0.05c0.61-0.03,1.23-0.03,1.84-0.03c0.24,0,0.45,0,0.64-0.08c0.08-0.03,0.19,0,0.24,0h0.93
			c0.32-0.03,0.61,0,0.93,0c0.03,0,0.11-0.03,0.13,0c0.61,0.13,1.2,0.03,1.81,0.08c0.19,0.03,0.35,0,0.51,0.05
			c0.11,0.03,0.19,0.03,0.29,0.03c0.48-0.03,0.96,0.11,1.44,0.11c0.16,0,0.35,0.08,0.51,0.11c0.24,0.08,0.45,0.08,0.64,0.11
			c0.59,0.11,1.17,0.27,1.68,0.61c0.05,0.03,0.08,0.11,0.11,0.13c0.08,0.13,0.11,0.32,0.19,0.43c0.11,0.24,0.03,0.43-0.08,0.62
			c-0.03,0.05-0.11,0.11-0.16,0.05c-0.48-0.24-1.01-0.27-1.49-0.51l-0.53-0.13c-0.32-0.08-0.59-0.11-0.91-0.13
			c-0.05,0-0.16-0.03-0.27-0.08c-0.35-0.05-0.64-0.13-0.99-0.11c-0.11,0-0.21,0-0.27,0.05c-0.08,0.03-0.16,0.05-0.21,0.03
			c-0.19-0.11-0.37-0.08-0.59-0.08l-0.88-0.05c-0.53-0.08-1.01-0.03-1.5-0.03c-0.05,0-0.13,0.03-0.16,0.03
			c-0.11,0.03-0.21,0.05-0.32,0.03c-0.4-0.11-0.85-0.05-1.25-0.21l-0.29-0.05c-0.08,0-0.19,0-0.24,0.11
			c-0.16,0.24-0.37,0.29-0.61,0.27h-0.16c0,0-0.03-0.03-0.03-0.08c-0.05-0.03,0-0.08,0.05-0.08c0.11,0,0.24,0,0.37-0.05h0.13
			c0.05,0,0.05-0.03,0.05-0.03s0-0.03-0.05-0.03s-0.13-0.11-0.19-0.08c-0.11,0.03-0.19,0.08-0.24,0.08
			c-0.19-0.08-0.24-0.05-0.32,0.13c-0.03,0.16-0.21,0.13-0.35,0.13c0,0-0.03-0.03-0.05-0.03c0.03,0,0.03-0.05,0.05-0.05
			c0.05-0.03,0.11-0.03,0.13-0.03c0.05-0.03,0.05-0.05,0.05-0.11c0-0.03-0.05-0.03-0.08-0.05h-0.03c-0.37,0.11-0.75,0.11-1.15,0.11
			c-0.13,0-0.05,0.05-0.03,0.13c0.03,0.05-0.03,0.13-0.11,0.13c-0.05-0.03-0.16-0.08-0.24-0.08l-0.11-0.05
			c0.05-0.05,0.08-0.05,0.16-0.08c0,0,0.03,0,0.05-0.03c0,0-0.03-0.03-0.05-0.03c-0.16,0-0.29,0-0.43,0.03h-0.21
			c-0.08-0.03-0.08-0.03-0.13,0.13c-0.13-0.03-0.24-0.11-0.37-0.11c-0.13,0.03-0.27,0.03-0.45,0.03c-0.08,0-0.19-0.03-0.29-0.05
			c-0.13-0.08-0.19-0.03-0.24,0.11c-0.08,0.13-0.13,0.16-0.21,0.13c-0.16-0.08-0.29-0.11-0.48-0.03c-0.05,0.03-0.16-0.05-0.27-0.05
			c-0.11-0.03-0.11,0.05-0.08,0.11c0,0.03-0.05,0.08-0.11,0.08s-0.13-0.05-0.16-0.08c-0.11-0.11-0.24-0.11-0.37-0.11
			c-0.03,0-0.11,0.05-0.08,0.08c0,0.03,0.05,0.05,0.08,0.11c-0.03,0.03-0.08,0.11-0.11,0.11H53c-0.05,0-0.05-0.05-0.05-0.08L53,34.1
			l0.03-0.05c0,0,0-0.03-0.03-0.03c-0.11,0-0.21-0.03-0.32,0c-0.13,0.03,0,0.08,0.03,0.11c0.05,0.03,0.05,0.03-0.03,0.08h-0.27
			c-0.11,0-0.21-0.11-0.27,0.05c-0.19,0-0.35,0.13-0.53,0.03c0,0.08-0.03,0.16,0.05,0.19c0.05,0.03,0.13,0.11,0.19,0.11
			c0.19,0,0.29,0.11,0.37,0.19c0.29,0.24,0.29,0.29,0.29,0.67c-0.05,0.13-0.08,0.24-0.19,0.35c-0.37,0.35-0.64,0.75-0.99,1.12
			c-0.24,0.24-0.45,0.56-0.72,0.8c-0.13,0.11-0.21,0.27-0.32,0.43c0.05,0,0.08,0.05,0.08,0.05c-0.08,0.03-0.03,0-0.08-0.05h-0.03
			c-0.11,0.16-0.21,0.29-0.35,0.43l-0.29,0.37c-0.13,0.11-0.21,0.24-0.24,0.37c-0.05,0.11-0.08,0.24-0.13,0.27
			c-0.16,0.11-0.11,0.32-0.24,0.4c-0.08,0.03-0.11,0.13-0.16,0.16c-0.13,0.11-0.08,0.27-0.16,0.37c-0.08,0.13-0.24,0.19-0.27,0.35
			c0,0.03-0.05,0.11-0.08,0.16c-0.05,0.16-0.27,0.16-0.29,0.35c-0.05,0.13-0.16,0.24-0.21,0.37l-0.27,0.43c0,0-0.05,0.03-0.05,0.05
			c-0.05,0.05-0.11,0.05-0.13,0c-0.03-0.05-0.03-0.19-0.13-0.03c-0.11,0.22-0.24,0.37-0.35,0.59l-0.16,0.11v0.05
			c0.03,0.08,0.03,0.16-0.05,0.24c-0.08,0.11-0.19,0.29-0.24,0.45h-0.05c0,0.11,0,0.21-0.03,0.32c-0.11,0-0.08,0.11-0.08,0.16h-0.03
			c-0.11,0-0.19-0.05-0.24-0.03c-0.08,0.05,0.03,0.13,0.05,0.22v0.13c0.13-0.05,0.21-0.13,0.21-0.29c0.11-0.03,0.11-0.13,0.11-0.19
			c0.13-0.08,0.05-0.21,0.11-0.32c0.03-0.03,0.11-0.05,0.16-0.05c0,0.05,0,0.16-0.03,0.24c-0.08,0.16-0.13,0.27-0.19,0.43
			c0,0.08-0.03,0.19-0.08,0.21c-0.21,0.24-0.21,0.59-0.48,0.75v-0.37c0.08-0.03,0.08-0.13,0.08-0.21c-0.08,0.05-0.08,0.11-0.08,0.19
			c-0.08,0.03-0.16,0.05-0.19,0.11c-0.03,0.29-0.13,0.59-0.4,0.77c0-0.03,0-0.03-0.08-0.03c0.03,0.03,0.03,0.03,0.08,0.03v0.11
			c0,0.13-0.05,0.32-0.24,0.24c0,0-0.05,0.03-0.08,0.08c0,0-0.03,0.03-0.05,0.03v-0.13c0.05-0.22,0.16-0.43,0.27-0.62
			c0.05-0.21,0.11-0.43,0.24-0.59c0.13-0.19,0.13-0.43,0.29-0.59c0.08-0.11,0.11-0.21,0.19-0.32c0.37-0.75,0.75-1.47,1.23-2.19
			v-0.13c0,0-0.03,0.03-0.05,0.03c-0.19,0.13-0.29,0.35-0.4,0.56c-0.24,0.48-0.53,0.96-0.77,1.44l-0.69,1.2l-0.03,0.03
			c0,0.08,0,0.13-0.11,0.19v-0.19c-0.11,0.08-0.11,0.11,0,0.19c0.03,0.32-0.27,0.53-0.35,0.85c-0.16-0.08-0.11,0.05-0.13,0.13
			c0.08,0,0.11,0.05,0.11,0.13c0,0.08-0.03,0.13-0.13,0.13c-0.13,0.03-0.13,0.11-0.19,0.21h0.11c0,0.11-0.03,0.21-0.03,0.27
			c-0.11,0.32-0.24,0.61-0.32,0.93c-0.13,0.53-0.27,1.1-0.24,1.68v0.45H43.9c-0.08-0.19-0.13-0.35-0.13-0.53
			c-0.03-0.29-0.03-0.64-0.03-0.96c0-0.05,0.03-0.13,0.08-0.16c0.05-0.03,0.08-0.08,0.05-0.11c-0.08-0.11-0.05-0.24,0-0.35
			c0.24-0.85,0.48-1.71,0.85-2.54l0.16-0.45c0.32-0.67,0.69-1.33,1.04-1.98l1.01-1.79c0.29-0.48,0.56-0.96,0.88-1.44
			c0.24-0.37,0.43-0.75,0.72-1.15c0.43-0.61,0.77-1.25,1.23-1.84c0.35-0.4,0.59-0.88,0.88-1.31c0.11-0.16,0.24-0.29,0.35-0.48
			l0.11-0.13h-0.35c-0.21-0.03-0.4,0-0.61,0.03c-0.21,0.08-0.48,0.08-0.72,0.13c-0.16,0.05-0.35,0.16-0.56,0.11
			c-0.05,0-0.16,0.11-0.24,0.19c-0.05,0.03-0.13,0.03-0.24,0c0.05-0.24-0.13-0.13-0.24-0.19c0.05-0.03,0.08-0.05,0.08-0.11
			c0.11-0.03,0.13-0.03,0.03-0.08c-0.05,0-0.05-0.08,0-0.08c0.19-0.08,0.37-0.13,0.59-0.11h0.11v0.08h0.24c0,0,0-0.05,0.03-0.05
			c-0.03,0-0.03-0.03-0.03-0.03h-0.24v-0.11h-0.27c-0.05-0.03-0.08-0.03-0.08-0.05h0.03c0.29-0.08,0.53-0.24,0.83-0.24
			c0.05,0,0.11,0.03,0.13,0.03c-0.03,0.03-0.05,0.08-0.08,0.08c-0.16,0.03-0.29,0.13-0.45,0.08c-0.03,0-0.08,0.08-0.11,0.11h0.16
			c0.11,0,0.21,0.05,0.24,0.13c0.05,0.05,0.05,0.05,0.08,0.05V34.5c0.03-0.16,0.08-0.21,0.21-0.21c0.13,0.05,0.24,0.08,0.37,0.08
			c0.03,0,0.03,0,0.05-0.03c0,0-0.03,0-0.03-0.05c0-0.03-0.11-0.05-0.03-0.05c0.27-0.08,0.51-0.19,0.83-0.13
			c0.03,0.03,0.03,0.05,0.05,0.05C50.89,34.21,50.94,34.16,50.97,34.16z M43.82,36.08c-0.03,0-0.05,0-0.03,0.05
			C43.79,36.13,43.79,36.08,43.82,36.08z M43.82,35.46c0.05-0.03,0.05-0.03,0.05-0.05C43.92,35.46,43.87,35.46,43.82,35.46z
			 M43.87,35.7H44c-0.03,0.03-0.08,0.03-0.11,0.03L43.87,35.7z M44.86,46.86c-0.03-0.03-0.03-0.03-0.03-0.08
			c-0.13,0.08-0.11,0.19-0.11,0.29c0.05,0.03,0.11,0.11,0.11,0.16c-0.05,0.03-0.08,0.11-0.08,0.19c-0.03,0.08-0.03,0.16-0.03,0.27
			c0,0.03,0.03,0.03,0.03,0.03h0.03c0.11-0.27,0.24-0.53,0.32-0.83c0.03-0.24,0.27-0.4,0.13-0.67c0.24-0.29,0.32-0.59,0.51-0.91
			c0.05-0.03,0.11-0.05,0.16-0.11v0.24c0,0.11,0,0.24-0.16,0.29l-0.29,0.61c0,0,0,0.03,0.03,0.05c0.03,0.08,0,0.13-0.03,0.19
			c-0.32,0.43-0.37,0.64-0.43,1.23c-0.03,0.08-0.05,0.13-0.13,0.21c-0.05,0.05-0.11,0.13-0.05,0.24c0.03,0.05,0.03,0.05,0.05,0.03
			c0.05-0.03,0.05-0.11,0.11-0.08v0.08c0,0.08-0.03,0.13-0.05,0.16c-0.11,0.08-0.05,0.21-0.08,0.24c-0.11,0.08-0.13,0.16-0.13,0.29
			c0,0.05,0.03,0.16,0.03,0.27c0.03,0.13,0.03,0.27,0.03,0.4c0.05,0.16,0,0.32,0.05,0.45c0,0.51,0.19,0.67,0.72,0.51
			c0.24-0.03,0.4-0.16,0.61-0.24c0.11-0.03,0.21,0.05,0.21,0.16c0.03,0.08,0,0.24-0.08,0.32c-0.13,0.19-0.24,0.4-0.51,0.35
			c0,0-0.05,0.05-0.08,0.05c-0.35,0.13-0.64,0.03-0.93-0.21c-0.08-0.08-0.16-0.21-0.29-0.27c-0.08,0-0.11-0.11-0.13-0.16
			c-0.05-0.29-0.43-0.43-0.43-0.77c0.08-0.03,0.08-0.08,0.11-0.13V49.1c0-0.08,0.03-0.16,0.11-0.16v0.48c0,0.08,0.08,0.11,0.11,0.08
			c0,0,0.03-0.03,0.05-0.03v-0.19c0-0.16-0.03-0.37,0.05-0.51c0.11-0.27,0.05-0.56,0.05-0.83h-0.05c-0.05,0.11-0.05,0.21-0.05,0.27
			c0,0.08-0.03,0.11-0.05,0.16c0,0.13-0.03,0.29-0.03,0.43c0,0.08,0,0.11-0.08,0.13v-0.51c0-0.03,0.03-0.05,0.08-0.05
			c0-0.11,0.03-0.19,0.03-0.29c0-0.05,0.03-0.11,0.05-0.13c0-0.27,0.11-0.53,0.21-0.77c0.03-0.05,0.08-0.08,0.11-0.08v0.08
			c0,0.03,0.03,0.03,0.03,0.05l0.08-0.05V47.1h-0.11c0-0.13,0.03-0.27,0.08-0.37c0-0.03,0.03-0.08,0.05-0.11
			c0.03,0.03,0.03,0.08,0.08,0.13v0.03c0.03,0,0.03,0.05,0.05,0.05C44.86,46.83,44.86,46.83,44.86,46.86z M44.08,35.94H44
			c-0.03,0-0.03,0-0.03-0.03c0.03,0,0.05-0.03,0.05-0.03C44.03,35.92,44.08,35.94,44.08,35.94z M44.06,35.44
			c-0.03-0.03,0-0.03,0.05-0.03C44.11,35.41,44.11,35.44,44.06,35.44z M44.14,35.41h-0.03c0,0,0-0.05,0.03-0.05V35.41z M44.14,35.97
			c-0.03,0-0.03,0-0.03-0.03C44.11,35.94,44.14,35.94,44.14,35.97z M47.26,35.06l0.21-0.19c0.03,0.13,0.16,0.11,0.24,0.08
			c0.13-0.11,0.27-0.08,0.43-0.08c-0.03,0.13-0.03,0.13-0.13,0.13c-0.03,0-0.11,0.05-0.11,0.05c0.05,0.13-0.05,0.13-0.13,0.11
			c-0.05,0-0.13-0.05-0.19-0.08h-0.11c-0.05,0.03-0.05,0.08-0.05,0.08c0,0.05,0.05,0.13-0.03,0.16c-0.05,0.08-0.21,0.08-0.24,0
			c-0.13-0.16-0.27-0.08-0.37-0.03c-0.11,0.03,0,0.05,0,0.05c0.08,0.08,0.08,0.13,0,0.13l-0.03,0.05c-0.08-0.05-0.13,0-0.21,0.03
			c-0.35,0.13-0.69,0.21-1.04,0.21c0,0.03,0,0.11-0.03,0.13c-0.05,0.03-0.13,0.05-0.16,0.03c-0.13-0.05-0.24-0.03-0.37,0
			c-0.05,0.08-0.08,0.11-0.19,0.03H44.4c0,0.05-0.03,0.11-0.11,0.11c-0.05,0-0.13-0.03-0.16-0.03v-0.08h0.27
			c-0.03-0.03-0.11-0.05-0.13-0.13v-0.05c0.03-0.05,0.11-0.08,0.19-0.08c0.05-0.03,0.16-0.03,0.27-0.03
			c0.03,0.03,0.05,0.05,0.11,0.05c0,0.05,0.03,0,0.05-0.03h-0.03c-0.03-0.03-0.11-0.03-0.13-0.03c0.03-0.13,0.21-0.08,0.27-0.13
			c0.08-0.08,0.19-0.05,0.27,0c0.05,0.03,0.11,0.03,0.19,0.03c0.03,0,0.05-0.03,0.11-0.03c-0.05-0.05-0.08-0.05-0.08-0.08h-0.11
			l-0.03-0.03l0.03-0.03c0.13-0.05,0.29,0,0.37,0.05c0.08,0.03,0.16,0,0.16-0.05c0.08-0.05,0.16-0.05,0.24-0.05
			c0-0.03,0-0.05-0.05-0.05c0-0.05-0.11-0.05-0.03-0.08c0.13-0.05,0.24-0.11,0.37-0.11c0.08-0.03,0.13-0.03,0.21,0
			c0.13,0.08,0.21,0,0.29-0.11c0,0,0.05-0.03,0.11-0.03h0.05C47.13,35.06,47.15,35.09,47.26,35.06z M44.14,35.35
			c0-0.05,0.08-0.05,0.11-0.05h0.16C44.35,35.44,44.24,35.35,44.14,35.35z M44.4,46.51c-0.03,0-0.03,0.03-0.05,0.08
			c0,0,0.03,0.03,0.03,0.05c0-0.03,0.03-0.03,0.03-0.03V46.51z M44.4,35.3v-0.05h0.05L44.4,35.3z M44.64,35.25h-0.19
			c0.03-0.08,0.08-0.05,0.19-0.05c0,0,0,0.03,0.05,0.03C44.64,35.22,44.64,35.25,44.64,35.25z M44.48,36.21h-0.03l0.03-0.03h0.13
			C44.59,36.21,44.54,36.26,44.48,36.21z M44.46,47.9v0.05C44.48,47.95,44.51,47.95,44.46,47.9z M44.51,46.49
			c0.03-0.03,0.03-0.03,0.03-0.08C44.62,46.49,44.54,46.49,44.51,46.49z M44.59,35.81h-0.05v0.03L44.59,35.81z M44.62,46.01
			c-0.03,0.03-0.08,0.05-0.08,0.05c0,0.05,0,0.08,0.05,0.11v-0.05C44.62,46.06,44.62,46.03,44.62,46.01z M44.59,47.45l-0.05-0.03
			v0.08c0,0,0,0.05,0.05,0.05V47.45z M44.59,49.66h-0.05v0.05L44.59,49.66z M44.62,36.16c0.03,0,0.03-0.03,0.03-0.08
			C44.7,36.16,44.64,36.16,44.62,36.16z M44.7,48.03v-0.05l-0.05,0.05H44.7z M44.7,50.36v-0.11l-0.05,0.05v0.08L44.7,50.36z
			 M44.88,46.49h-0.11l-0.03-0.03c0.03,0,0.08-0.05,0.08-0.05C44.86,46.41,44.86,46.46,44.88,46.49z M44.86,35.17
			c0,0,0-0.05-0.03-0.05c0.03,0,0.05,0,0.05-0.03C44.88,35.12,44.88,35.12,44.86,35.17z M44.94,35.09c0.19-0.16,0.4-0.22,0.64-0.22
			v0.05C45.36,35.01,45.18,35.12,44.94,35.09z M44.94,46.49h0.05c0,0.03-0.03,0.05-0.03,0.05S44.94,46.51,44.94,46.49z M44.99,45.15
			h-0.03v0.03L44.99,45.15z M45.07,46.3c0,0.05,0.03,0.08,0.03,0.08c-0.03,0.03-0.08,0.08-0.08,0.11v-0.13L45.07,46.3z M45.2,44.72
			c0-0.03-0.03-0.03-0.03-0.05c-0.05,0.03-0.05,0.03-0.05,0.05c0,0.05,0,0.08-0.03,0.08h0.11V44.72z M45.18,45.82h-0.05l0.05,0.05
			V45.82z M45.47,35.78c0-0.05-0.03-0.08-0.05-0.08c0-0.03-0.05,0-0.08,0.03h0.03C45.42,35.78,45.45,35.78,45.47,35.78z
			 M45.36,44.24l-0.03,0.05h0.03V44.24z M45.36,45.45h-0.03v0.05L45.36,45.45z M45.47,44.06c-0.03,0-0.05,0,0,0.05V44.06z
			 M45.5,35.2h0.08c0,0.03,0,0.03-0.03,0.05c-0.05,0-0.08,0-0.08-0.03C45.47,35.22,45.47,35.2,45.5,35.2z M45.55,43.98L45.5,44
			C45.55,44,45.58,44,45.55,43.98z M45.61,35.2h-0.03l0.03-0.03V35.2z M45.79,34.87h-0.19c0-0.05,0.08-0.05,0.13-0.05h0.11
			L45.79,34.87z M45.61,35.17l0.05-0.05C45.69,35.2,45.66,35.17,45.61,35.17z M45.69,44.91c0-0.05,0-0.05-0.03-0.08v0.03
			L45.69,44.91z M45.74,44.7c0-0.03,0.05-0.08,0.05-0.11l-0.05-0.03c0,0.03-0.03,0.05-0.03,0.05C45.71,44.67,45.71,44.67,45.74,44.7
			z M45.82,35.12c0,0,0.03-0.03,0.03,0c0.05,0,0.05,0.05,0,0.05C45.82,35.17,45.82,35.12,45.82,35.12z M45.9,35.35
			c-0.05,0-0.05,0-0.08-0.03C45.9,35.3,45.9,35.33,45.9,35.35z M45.98,44.62c0.11-0.03,0.11-0.13,0.11-0.19
			C45.98,44.46,45.98,44.54,45.98,44.62z M46.03,34.74c0-0.03,0.03-0.03,0.03-0.03h0.24c-0.08,0.11-0.13,0.05-0.24,0.05
			C46.06,34.74,46.03,34.74,46.03,34.74z M46.06,35.06l-0.03-0.05h0.03V35.06z M46.38,34.61l0.96-0.32c0.08-0.03,0.19,0,0.32,0
			c-0.03,0.05-0.03,0.08-0.05,0.08l-1.07,0.32c-0.11,0.03-0.16,0-0.24,0C46.33,34.64,46.33,34.61,46.38,34.61z M46.38,43.63
			c0-0.03,0-0.11-0.08-0.03C46.33,43.6,46.38,43.63,46.38,43.63z M46.46,34.93c0.05,0,0.08-0.05,0.11-0.05
			c-0.03,0.05-0.03,0.08-0.05,0.08c-0.05,0.03-0.08,0-0.08-0.03H46.46z M46.81,34.82l0.05,0.03l-0.05,0.03h-0.19
			C46.65,34.77,46.7,34.77,46.81,34.82z M46.67,43.52c0.03-0.03,0.03-0.05,0.11-0.05C46.78,43.5,46.75,43.52,46.67,43.52z
			 M46.81,41.6c0,0,0,0.05-0.03,0.05C46.81,41.66,46.86,41.66,46.81,41.6z M46.78,43.42c0.03-0.29,0.13-0.4,0.37-0.48
			c-0.05,0.16-0.13,0.29-0.24,0.4C46.89,43.36,46.86,43.39,46.78,43.42z M47.02,42.3h-0.03l0.03,0.03V42.3z M47.02,34.77v-0.05h0.21
			v0.03C47.15,34.74,47.1,34.77,47.02,34.77z M47.05,41.23l-0.03-0.03v0.03H47.05z M47.1,34.98c0-0.03,0.03-0.03,0.03-0.05
			C47.15,34.98,47.13,34.98,47.1,34.98z M47.26,41.41c-0.11,0-0.08,0.08-0.08,0.16C47.26,41.55,47.26,41.47,47.26,41.41z
			 M47.23,35.22h-0.05l0.05,0.03V35.22z M47.23,42.91l-0.05,0.03v-0.05C47.23,42.88,47.23,42.91,47.23,42.91z M47.29,41.31v0.05
			C47.34,41.36,47.37,41.36,47.29,41.31z M47.42,34.61h0.32c0,0.03,0,0.03,0.03,0.08h-0.35c0,0,0-0.05-0.03-0.05
			C47.42,34.64,47.42,34.61,47.42,34.61z M47.42,41.07v-0.05h-0.03L47.42,41.07z M47.58,34.87h-0.11c0.03-0.03,0.03-0.05,0.05-0.05
			h0.08C47.61,34.85,47.58,34.87,47.58,34.87z M47.63,40.72c-0.03,0-0.03,0-0.03,0.03L47.63,40.72z M47.63,41.66V41.6l-0.03,0.05
			H47.63z M47.66,34.29v-0.03c0.21-0.11,0.45-0.21,0.69-0.16C48.14,34.26,47.9,34.29,47.66,34.29z M47.71,40.61
			c0,0.03-0.05,0.03-0.05,0.08C47.71,40.69,47.74,40.69,47.71,40.61z M47.77,34.61h-0.03v-0.03h0.03V34.61z M47.98,34.58h-0.21
			c0.05-0.11,0.13-0.08,0.21-0.08c0.03,0,0.03,0.03,0.03,0.03L47.98,34.58z M47.77,34.72h0.21c0.03,0,0.03,0.03,0.03,0.03
			l-0.03,0.03C47.9,34.77,47.82,34.82,47.77,34.72z M47.85,41.2c-0.03,0-0.08,0-0.03,0.05C47.85,41.23,47.85,41.2,47.85,41.2z
			 M47.9,41.12c-0.03,0-0.03,0.05-0.03,0.05C47.9,41.18,47.95,41.18,47.9,41.12z M48.22,40.75c-0.03-0.03-0.03-0.03-0.08-0.03
			c0,0-0.03,0-0.03,0.03v0.03C48.14,40.75,48.19,40.75,48.22,40.75z M48.19,34.45h0.03v0.03L48.19,34.45z M48.33,40.35H48.3
			l0.03,0.03V40.35z M48.35,34.1c0.03-0.05,0.03-0.08,0.03-0.08c0.21-0.03,0.43-0.05,0.64-0.11c0.05-0.03,0.08-0.05,0.16-0.05
			c0.03-0.05,0.08,0,0.13,0l-0.05,0.05c-0.24,0.11-0.48,0.19-0.77,0.19H48.35z M48.62,34.72c-0.03,0-0.05,0-0.03,0.03
			C48.62,34.74,48.62,34.72,48.62,34.72z M48.7,34.61c-0.03,0.03-0.03,0.08-0.03,0.08C48.7,34.69,48.73,34.69,48.7,34.61z
			 M48.94,34.61c-0.03,0-0.03,0.03-0.08,0.03c0.05,0,0.05,0.05,0.08,0.05V34.61z M49.07,34.74l-0.03-0.03h-0.11
			c0.03,0.03,0.03,0.03,0.08,0.03C49.02,34.77,49.05,34.74,49.07,34.74z M49.5,34.64c0-0.03-0.05-0.03-0.05-0.03
			C49.45,34.64,49.45,34.69,49.5,34.64z M49.8,33.73h0.32c-0.08,0.13-0.21,0.08-0.32,0.05c-0.03,0-0.03-0.03-0.03-0.03L49.8,33.73z
			 M49.8,34.02h0.32c-0.08,0.11-0.21,0.08-0.32,0.08l-0.03-0.05C49.77,34.02,49.8,34.02,49.8,34.02z M50.01,34.53h-0.03v0.05
			L50.01,34.53z M50.12,33.99h0.03l-0.03,0.03V33.99z M52.57,33.62l-0.11,0.11c-0.4-0.05-0.8,0.08-1.2,0.13
			c-0.37,0.05-0.75,0.16-1.12,0.13c0,0,0.03-0.03,0.03-0.08c0.53-0.05,1.04-0.19,1.52-0.29c0.29-0.05,0.59-0.08,0.88-0.11
			c0,0,0.05,0.03,0.08,0.03C52.62,33.57,52.57,33.57,52.57,33.62z M50.22,33.62h0.29c-0.03,0.05-0.05,0.11-0.13,0.11h-0.24
			C50.17,33.68,50.22,33.62,50.22,33.62z M50.54,34.26c0-0.03,0-0.03-0.03-0.05c-0.03,0.03-0.03,0.03-0.05,0.03
			c0,0.03,0.03,0.03,0.03,0.03H50.54z M51.98,33.3c0,0.03,0,0.03-0.03,0.03c-0.03,0.05-0.05,0.08-0.11,0.08
			c-0.43,0.08-0.88,0.24-1.33,0.21c0-0.05,0.03-0.08,0.03-0.08c0.24-0.03,0.48-0.11,0.72-0.13C51.5,33.41,51.74,33.3,51.98,33.3z
			 M51.37,34.39c0-0.03-0.03-0.05-0.03-0.05v-0.11c-0.03,0-0.08,0-0.11,0.03c-0.13,0.08-0.13,0.21-0.13,0.32
			c0.11-0.05,0.21-0.08,0.32-0.11C51.5,34.39,51.42,34.39,51.37,34.39z M51.58,34.29c0-0.03,0-0.05-0.08-0.03
			C51.56,34.26,51.58,34.26,51.58,34.29z M51.96,34.16c-0.03,0-0.05-0.03-0.11-0.03c0,0,0,0.03-0.03,0.03
			c0.03,0,0.08,0.05,0.11,0.05C51.93,34.21,51.93,34.16,51.96,34.16z M52.14,33.25c0.16,0,0.37,0,0.53-0.05
			c-0.03,0.05-0.05,0.11-0.11,0.11h-0.59C52.04,33.25,52.06,33.25,52.14,33.25z M52.06,33.97c-0.03-0.05-0.03-0.05-0.08-0.05
			C51.98,33.97,51.98,33.99,52.06,33.97z M52.28,33.97h-0.05v0.03L52.28,33.97z M53.29,33.76v-0.03c-0.03,0.03-0.05,0.03-0.11,0.03
			c0.05,0,0.05,0.03,0.05,0.03S53.26,33.78,53.29,33.76z M53.37,34.1c0.03-0.05,0.03-0.05,0.03-0.08
			C53.43,34.1,53.4,34.1,53.37,34.1z M54.39,33.49v-0.05c-0.24-0.03-0.43-0.03-0.67,0c0,0-0.05,0.05-0.05,0.08h0.69
			C54.39,33.51,54.39,33.49,54.39,33.49z M54.15,33.62h-0.48c0,0.03,0.05,0.05,0.05,0.05h0.48C54.2,33.65,54.15,33.62,54.15,33.62z
			 M54.39,33.65h-0.03l0.03,0.03V33.65z M55.19,33.33h-0.03c-0.08-0.03-0.19-0.03-0.29-0.03c-0.03,0-0.08,0.03-0.19,0.08
			c0.05,0.05,0.16,0.03,0.27,0.03h0.16C55.16,33.41,55.16,33.38,55.19,33.33z M54.97,33.57c0-0.03,0-0.03-0.03-0.03
			c-0.03-0.03-0.08-0.03-0.11-0.03h-0.05c-0.05,0.03-0.08,0.03-0.11,0.03c0.03,0.03,0.05,0.03,0.11,0.03c0.05,0.05,0.08,0,0.16,0
			H54.97z M56.23,33.19c-0.11,0-0.21,0-0.32,0.05h-0.48c-0.08,0-0.11,0.05-0.08,0.13c0,0.03,0.05,0.11,0.08,0.11
			c0.16,0.03,0.32,0.03,0.48,0.03c0.03,0,0.03-0.03,0.08-0.08h-0.05c-0.16-0.03-0.29-0.03-0.43-0.03l-0.05-0.03
			c0-0.05,0.05-0.05,0.05-0.05c0.27,0,0.53-0.03,0.8-0.03C56.31,33.25,56.36,33.14,56.23,33.19z M56.17,33.43h-0.03l0.03,0.05V33.43
			z M56.39,33.33h-0.08C56.31,33.38,56.31,33.41,56.39,33.33z M56.44,33.91h0.11c0,0,0,0.05,0.05,0.05c-0.05,0-0.08,0.03-0.08,0.03
			L56.44,33.91z M57.94,33.17l-0.03-0.03h-1.36c-0.03,0-0.08,0-0.08,0.05l0.08,0.19h0.05c0.05-0.22,0.24-0.13,0.4-0.13
			c0.32-0.05,0.59-0.05,0.91-0.05L57.94,33.17z M57.46,33.38c-0.03,0-0.03-0.05-0.08-0.05c-0.05-0.03-0.13,0-0.24,0V33.3H56.9
			c0,0.03-0.03,0.03-0.03,0.03c0,0.05,0.03,0.08,0.03,0.08h0.48C57.43,33.41,57.43,33.38,57.46,33.38z M58.15,33.86
			c0,0,0,0.03-0.05,0.03c-0.11,0-0.19,0.03-0.29,0.08c-0.13,0-0.21-0.05-0.19-0.08c0.05-0.08,0.11-0.08,0.13-0.08h0.35L58.15,33.86z
			 M59.03,33.28C59,33.25,59,33.25,58.95,33.25c-0.08,0-0.19-0.05-0.29-0.05s-0.21,0-0.32,0.05c-0.03,0-0.05,0-0.11,0.03
			c0.05,0,0.05,0.03,0.08,0.03h0.64C58.95,33.3,59,33.28,59.03,33.28z M58.71,33.09h0.16c0.03,0,0.03,0,0.05-0.03l-0.03-0.03
			c-0.08,0-0.11,0.03-0.13,0.03C58.71,33.06,58.71,33.06,58.71,33.09z M59.54,33.03h-0.27c-0.03,0-0.03,0.03-0.03,0.03l0.03,0.03
			h0.35C59.59,33.06,59.59,33.03,59.54,33.03z M59.35,33.28l-0.05-0.03v0.03H59.35z M60.02,33.06h-0.03v0.03L60.02,33.06z
			 M60.12,33.68c0,0.05-0.03,0.08-0.03,0.08s-0.03,0-0.03-0.03c0,0,0.03-0.05,0.03-0.08C60.1,33.68,60.12,33.68,60.12,33.68z
			 M60.31,33.06h-0.05l0.05,0.03V33.06z M61.67,33.57l-0.08-0.05h-0.27l-0.03,0.03c0,0.03,0.03,0.08,0.03,0.08h0.32
			C61.65,33.62,61.65,33.57,61.67,33.57z M63.75,32.85h-0.03l0.03,0.05V32.85z M64.16,32.85h-0.11c0,0.05,0,0.05,0.03,0.05
			C64.07,32.9,64.1,32.9,64.16,32.85z M64.56,32.85h-0.24c0.03,0.05,0.11,0.05,0.13,0.05C64.48,32.9,64.53,32.9,64.56,32.85z"/>
		<path class="st0" d="M68.94,43.58c-0.32,0.05-0.59,0.24-0.77,0.48c-0.53,0.19-1.47,0.56-1.68,0.67c-0.05,0.08-0.05,0.08-0.05,0.11
			c0.05,0,0.11,0.08,0.11,0.08c0.24-0.08,0.51-0.19,0.8-0.27v0.03h-0.03c-0.32,0.05-0.53,0.29-0.69,0.51h-0.08
			c-0.32-0.03-0.35,0.27-0.53,0.35l-0.77,0.27c-0.53,0.32-1.07,0.53-1.65,0.67c-0.43,0.08-0.85,0.13-1.31,0.24H62
			c-0.37,0.27-0.72,0.08-1.04-0.03c-0.29-0.11-0.61-0.22-0.75-0.56c-0.03-0.11-0.08-0.19-0.11-0.32c-0.53-0.56-0.45-1.2-0.32-1.84
			c0.05-0.37,0.21-0.69,0.32-1.07v-0.05c-0.08-0.08-0.08-0.08-0.11-0.03l-1.9,1.33c-0.37,0.21-0.75,0.45-1.07,0.67
			c-0.4,0.29-0.77,0.64-1.2,0.85c-0.45,0.35-0.96,0.62-1.44,0.91c-0.08,0.03-0.19,0.11-0.27,0.11c-0.29,0-0.59,0.03-0.88,0
			c-0.72-0.13-0.99-0.53-1.09-1.33c-0.03-0.29,0.08-0.62,0.19-0.83c0.19-0.27,0.45-0.56,0.64-0.85c0.56-0.67,1.2-1.25,1.76-1.81
			c0.56-0.56,1.17-0.96,1.84-1.44c0.56-0.37,1.2-0.56,1.84-0.75c0.37-0.19,1.17,0.19,1.36,0.51c0.13,0.19,0.11,0.4-0.08,0.35
			c-0.69-0.21-1.23,0.13-1.65,0.27c-0.67,0.35-1.12,0.8-1.65,1.28c-0.24,0.32-0.59,0.59-0.93,0.93c-0.51,0.37-0.83,0.83-1.26,1.25
			c-0.21,0.11-0.11,0.37-0.27,0.48c-0.53,0.53-0.53,0.53-0.4,0.62c0.24,0,0.43-0.16,0.64-0.24c0.77-0.37,1.52-0.85,2.22-1.36
			c0.77-0.48,1.52-1.01,2.27-1.55c0.56-0.4,1.09-0.75,1.65-1.09c0.13-0.05,0.21-0.13,0.29-0.16c0.05-0.05,0.13-0.05,0.16-0.05
			c0.21,0.32,0.51,0.21,0.75,0.35c0.03,0.05,0.11,0.05,0.19,0.08c-0.16,0.21,0.19,0.21,0.19,0.4c-0.05,0.13,0.08,0.35-0.05,0.43
			c-0.13,0.27-0.11,0.59-0.19,0.83c-0.19,0.35-0.35,0.75-0.48,1.09c-0.11,0.21-0.21,0.43-0.27,0.67c0,0.24-0.29,0.32-0.16,0.53
			c0.24,0.08,0.43,0.08,0.67,0.08c0.67,0,1.33-0.16,2-0.43l1.44-0.64c1.47-0.56,2.88-1.17,4.35-1.63c0.32-0.08,0.72-0.13,1.07-0.27
			c0.08,0,0.13,0,0.21-0.05l0.05,0.08c-0.03,0.03-0.03,0.11-0.03,0.11c-0.03,0.03-0.08,0.05-0.11,0.11c-0.48,0-0.99,0.19-1.41,0.35
			v0.03c0.21,0.08,0.43,0.11,0.61,0.16c0,0-0.03,0.03-0.08,0.11C69.34,43.28,69.1,43.36,68.94,43.58z M57.22,43.58h-0.05v0.05
			L57.22,43.58z M57.36,43.39c-0.03,0-0.08,0.11-0.08,0.13C57.33,43.52,57.36,43.52,57.36,43.39z M57.73,43.15
			c-0.13,0-0.27,0.13-0.35,0.24C57.57,43.39,57.7,43.31,57.73,43.15z M58.16,42.88c-0.13,0-0.27,0.08-0.37,0.27
			C58.02,43.18,58.13,43.07,58.16,42.88z M58.61,42.62c-0.19,0-0.35,0.03-0.37,0.21C58.34,42.83,58.59,42.8,58.61,42.62z
			 M59.01,42.32c-0.21,0-0.32,0.08-0.4,0.29C58.8,42.62,58.9,42.54,59.01,42.32z M59.44,42.06c-0.21,0.03-0.35,0.08-0.4,0.27
			C59.23,42.32,59.33,42.22,59.44,42.06z M59.84,41.79c-0.24-0.03-0.29,0.05-0.4,0.27C59.6,42.06,59.76,42,59.84,41.79z
			 M60.21,41.52c-0.19,0-0.32,0.05-0.37,0.24C60.03,41.79,60.19,41.71,60.21,41.52z M60.32,41.41h-0.03v0.03L60.32,41.41z
			 M64.86,45.23c-0.19,0-0.37-0.05-0.59,0c-0.53,0.11-1.04,0.24-1.63,0.37c-0.03,0-0.05,0.05-0.16,0.11v0.05c0,0,0,0.03,0.05,0.03
			c0,0,0,0.03,0.05,0.03c0.37-0.05,0.72-0.37,1.2-0.11h0.08C64.14,45.53,64.59,45.53,64.86,45.23z M65.1,44.49
			c0-0.08-0.05-0.08-0.08-0.08h-0.05c0.05,0.08,0.08,0.08,0.08,0.08H65.1z M65.26,45.18c-0.03,0-0.05,0-0.03,0.08
			C65.23,45.23,65.26,45.23,65.26,45.18z M65.6,45.1c-0.03,0-0.03-0.05-0.05-0.05c-0.11,0-0.19,0.05-0.19,0.13h0.21
			C65.58,45.18,65.6,45.15,65.6,45.1z M65.55,44.27h-0.08l0.08,0.05V44.27z M65.95,44.08c-0.08,0.05-0.29-0.03-0.37,0.16h0.24
			C65.92,44.24,65.95,44.19,65.95,44.08z M66.67,43.84c-0.29-0.03-0.48,0-0.67,0.24c0.21,0.05,0.48-0.03,0.67-0.19V43.84z
			 M67.34,43.58c-0.27-0.05-0.45,0.05-0.67,0.24C66.97,43.84,67.18,43.82,67.34,43.58z M67.39,44.62c-0.03,0-0.05,0.03-0.05,0.03
			S67.37,44.62,67.39,44.62z M67.79,43.39h-0.32c-0.03,0-0.05,0.13-0.05,0.19C67.53,43.58,67.66,43.63,67.79,43.39z M68.97,43.07
			h0.03c-0.45-0.08-0.83,0.11-1.2,0.29v0.03C68.19,43.36,68.57,43.26,68.97,43.07z M68.41,43.52V43.5h-0.05L68.41,43.52z
			 M69.85,42.88c-0.05,0.05-0.11,0.13-0.11,0.19h-0.03c-0.11-0.08-0.19-0.08-0.11-0.19C69.74,42.83,69.77,42.88,69.85,42.88z
			 M69.88,42.88c0-0.05,0-0.05,0.05-0.05C69.9,42.86,69.88,42.86,69.88,42.88z"/>
		<path class="st0" d="M80.27,42.22c-0.05,0.16-0.11,0.29-0.21,0.43c-0.21,0.35-2.08,1.55-2.3,1.9c-0.35,0.45-0.77,0.48-1.28,0.48
			c-0.19,0-0.27-0.03-0.4-0.21c-0.03-0.16-0.11-0.24-0.13-0.37c-0.27-0.51-0.4-0.72-0.24-1.31c0-0.08-0.13-0.16-0.21-0.13
			c-0.27,0.13-0.56,0.21-0.8,0.35c-1.15,0.75-2.3,1.36-3.28,2.24c-0.13,0.11-0.32,0.21-0.48,0.32c-0.13,0.16-0.32,0.27-0.48,0.43
			c-0.35,0.32-0.69,0.59-0.91,0.99c-0.4,0.51-0.91,0.99-1.25,1.58c-0.13,0.29-0.37,0.43-0.48,0.67c-0.11,0.19-0.19,0.21-0.35,0.13
			c-0.11-0.05-0.19-0.05-0.21-0.08c-0.13-0.22-0.29-0.35-0.4-0.53c-0.05-0.21,0-0.43,0-0.61c0.08-0.16,0.11-0.24,0.21-0.37
			c0.43-0.78,0.85-1.52,1.31-2.38c0.53-0.91,1.04-1.9,1.52-2.86c0.21-0.43,0.45-0.8,0.61-1.31c0.11-0.29,0.56-0.45,0.85-0.24
			l0.43,0.24c0.08,0.13,0.16,0.32,0.05,0.4c-0.35,0.37-0.43,0.88-0.67,1.25l-0.72,1.31c-0.03,0-0.03,0.11,0,0.13h0.08
			c1.07-0.91,2.27-1.65,3.5-2.32c0.67-0.32,1.33-0.56,1.97-0.88c0.45-0.24,1.01-0.05,1.31,0.29l0.43,0.45
			c0.11,0.13,0.11,0.37-0.08,0.56c-0.16,0.11-0.24,0.24-0.35,0.43c-0.08,0.32-0.37,0.53-0.43,0.83c0.67-0.13,2.72-1.71,3.34-1.95
			C80.27,42.08,80.27,42.19,80.27,42.22z"/>
		<path class="st0" d="M96.69,42.19c-0.05,0.05-0.19,0.13-0.21,0.13c-0.32,0.03-0.56,0.19-0.83,0.35c-0.88,0.59-1.79,1.28-2.69,1.92
			c-0.24,0.21-0.43,0.37-0.69,0.53c-0.24,0.16-0.4,0.37-0.62,0.51c-0.72,0.61-1.36,1.17-2.08,1.73c-0.24,0.19-0.53,0.35-0.75,0.45
			c-0.53,0.29-1.01,0.64-1.55,0.93c-0.19,0.13-0.37,0.19-0.64,0.21c-0.27,0.05-0.61,0.11-0.88,0.24c-0.19,0-0.32,0-0.51-0.11
			c-0.99-0.53-1.2-1.52-1.01-2.43c0-0.11,0.03-0.29,0.11-0.43c0.35-0.75,0.75-1.52,1.12-2.27c0.29-0.48,0.56-0.99,0.88-1.47
			c0.08-0.08,0.19-0.27,0.19-0.4c-0.19,0.08-0.35,0.24-0.51,0.4c-0.35,0.48-0.77,0.8-1.12,1.2c-0.35,0.37-0.67,0.75-0.96,1.17
			c-0.59,0.69-1.26,1.36-1.9,1.92c-0.11,0.08-0.21,0.19-0.29,0.21c-0.21,0.32-0.45,0.56-0.77,0.75c-0.16,0.03-0.21,0.13-0.29,0.16
			c-0.35,0.32-0.69,0.43-1.09,0.59c-0.19,0.05-0.37,0.03-0.56,0c-0.67-0.19-1.12-0.88-1.15-1.5c-0.08-0.45,0.08-0.91,0.27-1.33
			c0.4-0.96,0.88-1.84,1.5-2.69c0.27-0.37,0.64-0.8,0.99-1.1c0.53-0.53,1.07-1.12,1.65-1.57c0.4-0.27,0.88-0.51,1.33-0.51
			c0.51,0.08,0.93,0.11,1.39,0.32c0.21,0.16,0.45,0.27,0.64,0.45c0.21,0.11,0.21,0.11,0.43,0c0.05-0.03,0.11-0.11,0.13-0.13
			c0,0.19,0,0.32-0.08,0.43c-0.05,0.11,0,0.19,0.05,0.24c0.03,0.03,0.05,0.08,0.19,0.03l0.16-0.08c0.48-0.59,1.12-1.04,1.55-1.74
			c0.22-0.19,0.4-0.37,0.62-0.53c0.37-0.32,0.64-0.77,0.93-1.2c0.53-0.61,1.04-1.28,1.49-1.87c0.27-0.32,0.48-0.53,0.45-0.93
			c0-0.05,0.03-0.16,0.08-0.22c0.43-0.45,0.88-0.88,1.25-1.31c0.43-0.4,0.85-0.85,1.18-1.36c0.24-0.29,0.56-0.53,0.8-0.75
			c0.32-0.27,0.75,0,0.77,0.32c0,0.13,0,0.27-0.03,0.35c-0.05,0.11-0.05,0.29,0,0.4c0.11,0.19,0.03,0.37-0.16,0.53
			c-0.24,0.21-0.48,0.48-0.69,0.7c-0.69,0.67-1.41,1.31-1.9,2.08c-0.19,0.27-0.51,0.53-0.75,0.78c-0.32,0.51-0.69,1.04-1.04,1.49
			c-0.35,0.43-0.59,0.91-0.96,1.31c-0.56,0.69-1.07,1.47-1.63,2.24c-0.19,0.21-0.29,0.56-0.62,0.61c-0.03,0-0.03,0.11-0.03,0.11
			c0.03,0.24-0.05,0.35-0.21,0.45c-0.11,0.13-0.13,0.4-0.21,0.53c-0.35,0.48-0.56,0.99-0.91,1.44c-0.19,0.21-0.32,0.56-0.45,0.85
			c-0.08,0.19-0.19,0.32-0.32,0.53c-0.32,0.48-0.53,1.04-0.72,1.6c-0.13,0.59-0.03,0.75,0.56,0.51c0.64-0.11,1.31-0.45,1.87-0.85
			c0.75-0.48,1.52-1.01,2.16-1.58c1.12-0.96,2.27-1.73,3.39-2.64c0.75-0.59,1.55-1.01,2.32-1.49c0.19-0.13,0.43-0.08,0.61-0.03
			c0.08,0.27,0.43,0.16,0.56,0.32c0.08,0.03,0.13,0.13,0.19,0.16C96.74,41.92,96.74,42.16,96.69,42.19z M83.79,42.86
			c0.24-0.22,0.43-0.35,0.62-0.53c0.27-0.35,0.51-0.64,0.8-0.96c0.03-0.13,0-0.21-0.11-0.21h-0.61c-0.88-0.03-1.36,0.21-1.87,0.59
			c-0.43,0.27-0.8,0.61-1.12,0.93c-0.16,0.08-0.24,0.27-0.32,0.4c-0.08,0.24-0.32,0.43-0.45,0.61c-0.53,0.59-0.91,1.12-1.34,1.81
			c-0.24,0.43-0.37,0.96-0.53,1.44c-0.05,0.08,0,0.19,0.03,0.21c0.08,0,0.13,0,0.19-0.03l1.09-0.72c0.45-0.37,0.93-0.83,1.44-1.25
			C82.35,44.4,83.15,43.63,83.79,42.86z M85.58,41.63c-0.03-0.05-0.13-0.08-0.21,0c-0.16,0.13-0.29,0.29-0.37,0.45l-1.76,1.95
			c-0.03,0.05-0.11,0.13-0.21,0.24c-0.08,0.13-0.24,0.27-0.35,0.43c0.13-0.08,0.27-0.11,0.35-0.19c0.67-0.48,1.2-1.1,1.76-1.65
			c0.24-0.24,0.45-0.51,0.67-0.75l0.19-0.22C85.66,41.87,85.64,41.74,85.58,41.63z M86.36,40.29l0.72-0.83
			c0.03,0,0.11,0.03,0.24,0.03c-0.05-0.21,0-0.35,0.13-0.43c0.24-0.3,0.53-0.53,0.83-0.83c0.11-0.11,0.19-0.29,0.35-0.43
			c0.22-0.13,0.4-0.27,0.51-0.53c0-0.03,0.16-0.03,0.19-0.08c0.05-0.11,0.08-0.19,0.16-0.21c0-0.08,0.03-0.08,0.03-0.08
			c0,0.08,0.05,0.11,0.05,0.11c-0.05,0.24-0.08,0.48-0.35,0.61c-0.27,0.22-0.53,0.53-0.8,0.75c-0.32,0.4-0.61,0.75-0.99,1.1
			c0,0.03-0.05,0.03-0.11,0.03v0.05c-0.24,0.27-0.37,0.56-0.7,0.77C86.54,40.4,86.44,40.32,86.36,40.29z M91.56,44.7
			c-0.19,0-0.32,0.11-0.45,0.24C91.32,44.97,91.46,44.88,91.56,44.7z M92.07,44.16c-0.13,0-0.22,0.11-0.22,0.24
			C92.07,44.4,92.07,44.4,92.07,44.16z M94.45,42.62c0.21-0.11,0.43-0.27,0.61-0.43c-0.21,0-0.43,0.05-0.67,0.24
			c-0.35,0.19-0.67,0.43-0.96,0.67c-0.32,0.08-0.48,0.27-0.67,0.45c-0.21,0.21-0.51,0.32-0.69,0.53c0.27,0.08,0.37-0.03,0.61-0.13
			C93.24,43.5,93.86,43.02,94.45,42.62z"/>
		<path class="st0" d="M104.14,44.03v-0.16c-0.08,0-0.24,0-0.32,0.16c-0.08,0-0.13,0-0.21,0.05c-0.22,0.08-0.35,0.11-0.43,0.32
			c-0.11,0.05-0.24,0.05-0.29,0.13c-0.19,0-0.29,0.08-0.4,0.29h0.27v0.11c-0.35,0.24-0.8,0.45-1.04,0.75
			c-0.43,0.13-0.75,0.45-1.1,0.7c-0.4,0.19-0.75,0.43-1.09,0.64c-0.64,0.35-1.28,0.78-2.03,1.07c-0.35,0.11-0.67,0.24-1.01,0.37
			c-0.67,0.24-1.41,0.24-2.11,0.05c-0.05,0-0.19-0.05-0.21-0.08c-0.19-0.32-0.43-0.53-0.56-0.93c-0.19-0.43-0.29-0.91-0.24-1.39
			c0.08-0.43,0.19-0.83,0.29-1.23c0.4-1.01,0.93-1.9,1.63-2.72c0.21-0.27,0.53-0.53,0.75-0.8c0.24-0.24,0.56-0.29,0.85-0.16
			c0.24,0.16,0.45,0.35,0.67,0.53c0.08,0.13,0,0.35-0.11,0.35h-0.08c-0.37-0.08-0.67,0.16-0.8,0.45c-0.27,0.45-0.53,0.77-0.75,1.15
			c-0.43,0.59-0.85,1.25-1.07,1.9c-0.05,0.24-0.16,0.45-0.32,0.7c-0.11,0.32-0.13,0.61-0.05,0.99c0.24,0.19,0.64,0.19,0.99,0.11
			c0.32-0.11,0.67-0.21,1.01-0.35c0.32-0.08,0.64-0.21,0.99-0.37c0.27-0.19,0.64-0.27,0.96-0.51c0.67-0.29,1.2-0.67,1.9-1.07
			c0.51-0.27,0.96-0.62,1.52-0.88c0.13-0.03,0.35-0.13,0.45-0.24c0.29-0.32,0.75-0.51,1.07-0.69c0.32-0.16,0.56-0.32,0.85-0.51
			c0.13-0.08,0.77-0.4,0.93-0.37c0.13,0.05-0.13,0.3-0.03,0.56C104.65,43.52,104.28,43.98,104.14,44.03z M97.82,37.68
			c0.27-0.19,0.53-0.29,0.88-0.27c0.05,0,0.11,0.08,0.16,0.08c0.13,0.19,0.35,0.32,0.37,0.56c0,0.13,0.08,0.29-0.03,0.45
			c-0.19,0.11-0.35,0.27-0.64,0.29h-0.24c-0.08-0.03-0.24-0.03-0.4-0.08C97.49,38.59,97.39,37.97,97.82,37.68z M104.11,43.5
			c-0.4,0.11-0.77,0.27-1.15,0.48c-0.56,0.35-1.12,0.64-1.68,0.99c-0.11,0.05-0.27,0.16-0.27,0.21c0.27,0,0.48-0.11,0.72-0.24
			c0.72-0.4,1.44-0.88,2.19-1.25C103.98,43.68,104.06,43.55,104.11,43.5z"/>
		<path class="st0" d="M115.46,43.63c0,0.05-0.13,0.08-0.16,0.08c-0.45,0.05-0.83,0.27-1.28,0.45c-0.67,0.29-1.33,0.53-1.98,0.8
			c-0.08,0.05-0.19,0.05-0.21,0.11c-0.53,0.4-1.2,0.51-1.76,0.83c-0.59,0.24-1.17,0.51-1.73,0.77c-0.8,0.45-1.68,0.77-2.62,0.91
			c-0.16,0.05-0.27,0.05-0.37,0.19c-0.53,0.22-0.99,0.03-1.44-0.13c-0.29-0.08-0.51-0.21-0.69-0.4c-0.32-0.24-0.45-0.59-0.56-0.91
			c-0.11-0.59-0.11-0.69,0-1.17l0.19-0.35c0.43-0.96,1.07-1.73,1.87-2.38c0.75-0.69,1.52-1.31,2.43-1.79
			c0.24-0.19,0.62-0.35,0.96-0.4c0.24-0.11,0.56-0.13,0.8-0.24c0.35-0.24,0.64-0.29,0.96-0.08c0.05,0.08,0.13,0,0.24,0.08
			c0.11,0.03,0.27,0.05,0.29,0.11c0.22,0.19,0.35,0.45,0.43,0.59c0.21,0.37,0.21,0.75-0.05,1.04c-0.35,0.43-0.56,0.91-1.09,1.12
			l-0.37,0.24c-0.72,0.59-1.6,0.85-2.48,0.99c-0.24,0.11-0.53,0.08-0.77,0.08c-0.35,0-0.78-0.08-1.2-0.08c-0.08,0-0.13,0-0.24,0.11
			c-0.43,0.61-0.96,1.17-1.2,1.87c-0.08,0.27,0.03,0.43,0.21,0.51c0.29,0.08,0.64,0.24,0.91,0.08c0.59,0,1.17-0.19,1.71-0.32
			c0.45-0.08,0.93-0.37,1.36-0.51c0.51-0.24,0.91-0.45,1.36-0.7c0.13,0.16,0.13,0.16,0.27,0c0.19-0.19,0.43-0.32,0.69-0.43
			c0.05-0.11,0.19-0.11,0.35-0.16c0.88-0.37,1.79-0.83,2.62-1.17c0.27-0.16,0.51-0.19,0.77-0.29c0.21-0.08,0.48-0.21,0.67-0.35
			c0.35-0.11,0.56-0.08,0.77,0.21c0.08,0.08,0.16,0.13,0.24,0.16C115.52,43.2,115.62,43.5,115.46,43.63z M105.03,43.68
			c0.08,0.08,0.24,0,0.32,0c0.11-0.05,0.22-0.05,0.35-0.05v0.05c0.24-0.05,0.56-0.08,0.77-0.13c0.32-0.11,0.56-0.19,0.91-0.35
			c0.72-0.21,1.31-0.53,1.87-0.96c0.29-0.16,0.53-0.48,0.67-0.8c0.08-0.08,0.08-0.24,0.08-0.37c0.08-0.13-0.03-0.19-0.13-0.29
			c-0.08-0.08-0.19,0.03-0.21,0.11c-0.03,0.11-0.16,0.13-0.32,0.13c-0.59,0.05-1.17,0.21-1.68,0.53c-0.67,0.32-1.2,0.77-1.74,1.17
			l-0.72,0.69C105.16,43.44,105,43.6,105.03,43.68z"/>
		<path class="st0" d="M127.21,42.64c-0.27,0.32-0.56,0.53-0.88,0.75c-0.32,0.29-0.75,0.53-1.18,0.77c-0.35,0.22-0.67,0.4-0.99,0.7
			c-0.24,0.19-0.48,0.32-0.72,0.51c-0.27,0.19-0.56,0.32-0.83,0.56c-0.67,0.51-1.31,0.85-2.14,0.99c-0.16,0-0.29,0.08-0.48,0.08
			c-0.45,0.11-0.75,0.08-1.01-0.35c-0.03-0.08-0.03-0.11-0.08-0.19c-0.35-0.24-0.37-0.53-0.37-0.88v-0.32
			c0-0.32,0.03-0.64,0.21-0.91c0.05-0.21,0.13-0.4,0.21-0.61c0-0.03-0.05-0.03-0.05-0.05h-0.03c-0.08,0-0.11,0.03-0.11,0.03
			c-0.45,0.43-0.96,0.8-1.41,1.2c-0.45,0.32-0.91,0.67-1.36,1.01c-0.19,0.11-0.32,0.27-0.48,0.43c-0.43,0.43-0.99,0.64-1.55,0.85
			c-0.27,0.19-0.53,0.13-0.75-0.08c-0.48-0.43-0.62-0.91-0.48-1.47c0.13-0.53,0.35-1.04,0.67-1.52c0.56-0.91,1.12-1.84,1.84-2.62
			c0.27-0.29,0.43-0.29,0.69-0.05c0.05,0.05,0.11,0.08,0.11,0.16c0.08,0.08,0.11,0.21,0,0.27c-0.13,0.16-0.24,0.32-0.35,0.53
			c-0.19,0.32-0.35,0.72-0.62,1.07c-0.16,0.22-0.32,0.56-0.48,0.85c-0.21,0.35-0.45,0.7-0.64,1.1c-0.11,0.16-0.13,0.37-0.24,0.51
			l0.13,0.08c0.13-0.08,0.32-0.11,0.48-0.24c0.8-0.61,1.6-1.23,2.45-1.79l3.26-2.35c0.16-0.13,0.35-0.19,0.56-0.21
			c0-0.05,0.05,0,0.13,0.03c0.03,0.08,0.19,0.08,0.27,0.16c0.24,0.08,0.35,0.21,0.24,0.45c0,0.11-0.05,0.32-0.08,0.4
			c-0.24,0.21-0.32,0.56-0.53,0.75c-0.03,0.03-0.13,0.08-0.13,0.08c-0.32,0.77-0.78,1.52-1.07,2.3c-0.03,0.19,0,0.22,0.11,0.22
			c0.51,0.05,0.88-0.03,1.28-0.27c0.88-0.51,1.65-1.04,2.46-1.6c0.88-0.53,1.68-1.01,2.56-1.65l0.35-0.22
			c0.62-0.43,0.78-0.51,1.26,0C127.53,42.3,127.37,42.51,127.21,42.64z M123.61,44.16c-0.21,0-0.35,0.08-0.37,0.29
			C123.4,44.46,123.58,44.38,123.61,44.16z M123.93,43.95c0,0-0.11-0.03-0.11,0c-0.08,0.05-0.13,0.13-0.16,0.19
			c0.08,0,0.16,0,0.27-0.08V43.95z M124.81,43.74c-0.11,0-0.21,0-0.24,0.19C124.7,43.92,124.78,43.92,124.81,43.74z M125.67,43.23
			c-0.21-0.05-0.35,0.03-0.4,0.27C125.45,43.5,125.56,43.39,125.67,43.23z M125.4,42.99c0.05,0.05,0.13,0.05,0.16,0.05
			c0,0.03,0.03,0,0.11,0c0.03-0.05,0.08-0.11,0.11-0.24c-0.08,0-0.21,0-0.24,0.13L125.4,42.99z"/>
	</g>
</g>
</svg>
