<svg xmlns="http://www.w3.org/2000/svg" viewBox="0 0 50 50"><defs><style>.cls-1{fill:#2e2d2c;}</style></defs><g id="behance_off"><path id="Behance" class="cls-1" d="M45.15,13.85H32.63V10.74H45.15v3.11ZM24.29,26.61a8.29,8.29,0,0,1,1.21,4.56,9.12,9.12,0,0,1-1.38,5,8.62,8.62,0,0,1-2.21,2.44,8.39,8.39,0,0,1-3.51,1.56,21.57,21.57,0,0,1-4.39.43H0V9.44H15c3.79.07,6.48,1.16,8.06,3.32a7.93,7.93,0,0,1,1.43,4.75,6.94,6.94,0,0,1-1.44,4.58,7.4,7.4,0,0,1-2.37,1.77A6.94,6.94,0,0,1,24.29,26.61ZM7.17,21.71h6.59a6.31,6.31,0,0,0,3.29-.77,3,3,0,0,0,1.26-2.74,2.8,2.8,0,0,0-1.67-2.87A11.83,11.83,0,0,0,13,14.85H7.17Zm11.77,9a3.33,3.33,0,0,0-2-3.33,7.71,7.71,0,0,0-3.11-.53H7.17v8.29h6.58a7.44,7.44,0,0,0,3.15-.54C18.26,33.93,18.94,32.64,18.94,30.72ZM49.8,25.66A29.15,29.15,0,0,1,50,30.08H33.77c.09,2.24.86,3.81,2.33,4.71a5.85,5.85,0,0,0,3.21.83,4.88,4.88,0,0,0,3.23-1,4.78,4.78,0,0,0,1.2-1.53h5.95a7.32,7.32,0,0,1-2.16,4q-3,3.26-8.38,3.25a12.13,12.13,0,0,1-7.85-2.74q-3.4-2.74-3.4-8.93,0-5.79,3.07-8.88a10.71,10.71,0,0,1,8-3.09,12.67,12.67,0,0,1,5.24,1A9,9,0,0,1,48,21.05,10.88,10.88,0,0,1,49.8,25.66ZM44,26.24a4.87,4.87,0,0,0-1.56-3.52,5.09,5.09,0,0,0-3.45-1.21,4.61,4.61,0,0,0-3.48,1.28,6,6,0,0,0-1.55,3.45Z"/></g></svg>