<?xml version="1.0" encoding="utf-8"?>
<!-- Generator: Adobe Illustrator 23.0.1, SVG Export Plug-In . SVG Version: 6.00 Build 0)  -->
<svg version="1.1" xmlns="http://www.w3.org/2000/svg" xmlns:xlink="http://www.w3.org/1999/xlink" x="0px" y="0px"
	 viewBox="0 0 50 50" style="enable-background:new 0 0 50 50;" xml:space="preserve">
<style type="text/css">
	.st0{fill:#99D1C2;}
	.st1{fill:#007976;}
</style>
<g id="insta_x5F_off">
</g>
<g id="insta_x5F_on">
</g>
<g id="linkdin_x5F_on">
</g>
<g id="linkdin_x5F_off">
</g>
<g id="behance_x5F_on">
	<g>
		<g>
			<path id="Behance_2_" class="st1" d="M45.15,13.85H32.63v-3.11h12.53L45.15,13.85C45.15,13.85,45.15,13.85,45.15,13.85z
				 M24.29,26.61c0.81,1.25,1.21,2.77,1.21,4.56c0,1.85-0.46,3.5-1.38,4.96c-0.59,0.97-1.32,1.79-2.2,2.44
				c-0.99,0.76-2.16,1.28-3.51,1.56c-1.35,0.28-2.82,0.42-4.39,0.42H0V9.44h15.02c3.79,0.06,6.47,1.16,8.06,3.31
				c0.95,1.32,1.42,2.91,1.42,4.75c0,1.9-0.48,3.42-1.44,4.58c-0.53,0.65-1.32,1.24-2.37,1.77C22.28,24.44,23.48,25.35,24.29,26.61z
				 M7.17,21.71h6.58c1.35,0,2.45-0.26,3.29-0.77c0.84-0.51,1.26-1.43,1.26-2.74c0-1.45-0.56-2.41-1.67-2.87
				c-0.96-0.32-2.18-0.49-3.67-0.49H7.17V21.71z M18.94,30.72c0-1.62-0.66-2.73-1.98-3.33c-0.74-0.34-1.78-0.51-3.11-0.53H7.17v8.29
				h6.57c1.35,0,2.4-0.18,3.15-0.55C18.26,33.93,18.94,32.64,18.94,30.72z M49.8,25.66c0.15,1.02,0.22,2.49,0.19,4.42H33.77
				c0.09,2.24,0.86,3.81,2.33,4.7c0.88,0.56,1.96,0.84,3.21,0.84c1.32,0,2.4-0.33,3.23-1.02c0.45-0.36,0.85-0.88,1.2-1.53h5.95
				c-0.16,1.32-0.87,2.66-2.16,4.03c-1.99,2.17-4.79,3.25-8.38,3.25c-2.97,0-5.58-0.92-7.85-2.74c-2.26-1.83-3.4-4.8-3.4-8.93
				c0-3.87,1.02-6.83,3.07-8.88c2.05-2.06,4.7-3.09,7.97-3.09c1.94,0,3.68,0.35,5.24,1.04c1.55,0.7,2.84,1.79,3.85,3.3
				C48.94,22.38,49.53,23.91,49.8,25.66z M43.95,26.24c-0.11-1.55-0.63-2.72-1.56-3.52c-0.92-0.8-2.08-1.21-3.45-1.21
				c-1.5,0-2.65,0.43-3.48,1.28c-0.83,0.85-1.34,1.99-1.55,3.45L43.95,26.24L43.95,26.24z"/>
		</g>
	</g>
</g>
<g id="behance_x5F_off">
</g>
<g id="dribbble_x5F_on">
</g>
<g id="dribbble_x5F_off">
</g>
</svg>
