<svg xmlns="http://www.w3.org/2000/svg" viewBox="0 0 50 50"><defs><style>.cls-1{fill:#2e2d2c;}</style></defs><g id="dribbble_off"><path class="cls-1" d="M25,0A25,25,0,1,0,50,25,25,25,0,0,0,25,0ZM41.45,11.55a21.12,21.12,0,0,1,4.8,13.22,45.64,45.64,0,0,0-14.79-.69,34.84,34.84,0,0,0-1.84-4.24A27.36,27.36,0,0,0,41.45,11.55ZM25,3.75A21.16,21.16,0,0,1,39.1,9.1c-3.05,3.78-6.65,5.9-11.17,7.63a97.58,97.58,0,0,0-7.87-12.4A21.14,21.14,0,0,1,25,3.75Zm-9,2A115.65,115.65,0,0,1,23.86,18c-4.7,1.52-14.44,2.76-19.66,2.61A21.31,21.31,0,0,1,16,5.76ZM3.75,25c0-.22,0-.44,0-.66a75.71,75.71,0,0,0,21.8-3.06,24.56,24.56,0,0,1,1.82,3.63c-8.9,2.57-14.84,9.16-18.2,14.27A21.13,21.13,0,0,1,3.75,25ZM25,46.25a21.17,21.17,0,0,1-13.08-4.5A30.66,30.66,0,0,1,28.71,28.41a77,77,0,0,1,4.61,16.15A21.14,21.14,0,0,1,25,46.25Zm11.88-3.63a78.47,78.47,0,0,0-4.11-15.18A28.42,28.42,0,0,1,46,28.35,21.25,21.25,0,0,1,36.88,42.62Z"/></g></svg>