<?xml version="1.0" encoding="utf-8"?>
<!-- Generator: Adobe Illustrator 23.0.1, SVG Export Plug-In . SVG Version: 6.00 Build 0)  -->
<svg version="1.1" xmlns="http://www.w3.org/2000/svg" xmlns:xlink="http://www.w3.org/1999/xlink" x="0px" y="0px"
	 viewBox="0 0 50 50" style="enable-background:new 0 0 50 50;" xml:space="preserve">
<style type="text/css">
	.st0{fill:#C1E1D8;}
	.st1{fill:#007976;}
</style>
<g id="insta_x5F_off">
</g>
<g id="insta_x5F_on">
</g>
<g id="linkdin_x5F_on">
</g>
<g id="linkdin_x5F_off">
</g>
<g id="behance_x5F_on">
</g>
<g id="behance_x5F_off">
</g>
<g id="dribbble_x5F_on">
</g>
<g id="dribbble_x5F_off">
	<path class="st0" d="M25,0C11.19,0,0,11.19,0,25s11.19,25,25,25s25-11.19,25-25S38.81,0,25,0z M41.45,11.55
		c2.95,3.61,4.74,8.21,4.79,13.22c-4.51-1.08-10.65-1.26-14.79-0.69c-0.46-1.34-1.17-2.93-1.84-4.24
		C34.71,17.94,38.66,14.99,41.45,11.55z M25,3.75c5.41,0,10.35,2.02,14.1,5.35c-3.05,3.78-6.65,5.9-11.17,7.63
		c-1.98-3.78-5.62-9.58-7.87-12.41C21.64,3.95,23.3,3.75,25,3.75z M15.96,5.76c1.97,2.42,5.89,8.64,7.91,12.24
		c-4.7,1.52-14.45,2.76-19.66,2.62C5.58,14.03,10.02,8.56,15.96,5.76z M3.75,25c0-0.22,0-0.44,0.01-0.66c6,0.08,14.59-0.8,21.8-3.06
		c0.75,1.24,1.42,2.61,1.82,3.63c-8.9,2.57-14.84,9.16-18.2,14.28C5.8,35.42,3.75,30.45,3.75,25z M25,46.25
		c-4.93,0-9.47-1.68-13.08-4.5c3.37-5.82,9.13-10.69,16.79-13.34c1.99,4.6,4,11.94,4.61,16.15C30.77,45.65,27.95,46.25,25,46.25z
		 M36.88,42.62c-0.97-5.64-2.53-11.26-4.12-15.18c3.96-0.78,9.16-0.41,13.22,0.91C45.05,34.28,41.66,39.39,36.88,42.62z"/>
</g>
<g id="twitter_x5F_on">
</g>
<g id="twitter_x5F_off">
</g>
</svg>
