<?xml version="1.0" encoding="utf-8"?>
<!-- Generator: Adobe Illustrator 23.0.1, SVG Export Plug-In . SVG Version: 6.00 Build 0)  -->
<svg version="1.1" xmlns="http://www.w3.org/2000/svg" xmlns:xlink="http://www.w3.org/1999/xlink" x="0px" y="0px"
	 viewBox="0 0 50 50" style="enable-background:new 0 0 50 50;" xml:space="preserve">
<style type="text/css">
	.st0{fill:#C1E1D8;}
	.st1{fill:#007976;}
</style>
<g id="insta_x5F_off">
</g>
<g id="insta_x5F_on">
	<g>
		<path class="st1" d="M25.09,0.05c3.51,0,7.01-0.04,10.52,0.01c8.51,0.1,14.35,5.98,14.37,14.49c0.02,7.01,0.03,14.03,0,21.04
			c-0.03,8.28-5.85,14.22-14.15,14.32c-7.2,0.09-14.4,0.08-21.6,0c-8.28-0.09-14.15-6.03-14.2-14.29c-0.04-7.08-0.04-14.15,0-21.23
			C0.08,6.11,5.92,0.2,14.19,0.06C17.83,0,21.46,0.05,25.09,0.05z M45.89,25.08c0-3.63,0.02-7.27-0.01-10.9
			c-0.05-5.71-4-9.97-9.69-10.08c-7.39-0.15-14.78-0.14-22.17,0C8.12,4.2,4.14,8.46,4.12,14.38c-0.02,7.08-0.02,14.15,0,21.23
			c0.01,5.83,3.94,10.14,9.72,10.26c7.45,0.16,14.91,0.16,22.36,0c5.72-0.12,9.65-4.37,9.69-10.08
			C45.92,32.22,45.89,28.65,45.89,25.08z"/>
		<path class="st1" d="M25.07,37.88c-7.15,0.02-12.95-5.69-13.01-12.8c-0.06-7.18,5.78-13.02,13-12.99
			c7.16,0.02,12.89,5.76,12.9,12.89C37.96,32.12,32.22,37.86,25.07,37.88z M25.07,33.74c4.83-0.02,8.73-3.91,8.74-8.72
			c0.02-4.91-3.91-8.82-8.84-8.79c-4.83,0.03-8.74,3.91-8.77,8.71C16.17,29.8,20.16,33.77,25.07,33.74z"/>
		<path class="st1" d="M38.3,15.15c-1.81,0.03-3.35-1.5-3.35-3.32c0-1.82,1.54-3.36,3.34-3.33c1.71,0.03,3.19,1.5,3.27,3.24
			C41.64,13.55,40.13,15.12,38.3,15.15z"/>
	</g>
</g>
<g id="linkdin_x5F_on">
</g>
<g id="linkdin_x5F_off">
</g>
<g id="behance_x5F_on">
</g>
<g id="behance_x5F_off">
</g>
<g id="dribbble_x5F_on">
</g>
<g id="dribbble_x5F_off">
</g>
<g id="twitter_x5F_on">
</g>
<g id="twitter_x5F_off">
</g>
</svg>
