<svg id="insta_off" xmlns="http://www.w3.org/2000/svg" viewBox="0 0 50 50"><defs><style>.cls-1{fill:#2e2d2c;}</style></defs><path class="cls-1" d="M25.09.05c3.51,0,7,0,10.52,0C44.12.16,50,6,50,14.54q0,10.53,0,21c0,8.29-5.85,14.23-14.15,14.33q-10.8.12-21.6,0C6,49.81.08,43.88,0,35.62Q0,25,0,14.39C.08,6.11,5.92.2,14.19.06,17.83,0,21.46.05,25.09.05Zm20.8,25c0-3.63,0-7.27,0-10.9,0-5.7-4-10-9.7-10.08Q25.12,3.88,14,4.1c-5.9.1-9.88,4.36-9.9,10.28q0,10.6,0,21.23c0,5.83,3.94,10.13,9.72,10.26q11.18.24,22.35,0c5.72-.12,9.65-4.37,9.7-10.08C45.92,32.22,45.89,28.65,45.89,25.08Z"/><path class="cls-1" d="M25.07,37.88A12.9,12.9,0,1,1,38,25,12.93,12.93,0,0,1,25.07,37.88Zm0-4.14a8.76,8.76,0,1,0-8.87-8.8A8.76,8.76,0,0,0,25.07,33.74Z"/><path class="cls-1" d="M38.3,15.15a3.33,3.33,0,1,1,0-6.65,3.43,3.43,0,0,1,3.26,3.25A3.33,3.33,0,0,1,38.3,15.15Z"/></svg>