<svg xmlns="http://www.w3.org/2000/svg" viewBox="0 0 50 50"><defs><style>.cls-1{fill:#00f0be;}</style></defs><g id="linkdin_on"><path class="cls-1" d="M17.29,48.72h8.55c.69,0,1.38-.05,2.07-.08,0-.7.07-1.39.07-2.08,0-5.49,0-11,.05-16.48a5.71,5.71,0,0,1,5.26-5.67,4.73,4.73,0,0,1,5.37,3.33,12.32,12.32,0,0,1,.57,4.13q0,8.05,0,16.13c0,.55.1.75.7.74,3.14,0,6.27,0,9.4,0,.51,0,.67-.12.67-.66,0-5.85,0-11.7,0-17.55a20.47,20.47,0,0,0-1-6.63A11.27,11.27,0,0,0,44.77,18a12.58,12.58,0,0,0-9.47-1.88,10.12,10.12,0,0,0-6.94,4.54c-.08.11-.18.2-.37.41,0-1.36,0-2.56,0-3.76,0-.54-.17-.66-.68-.66-3.13,0-6.26,0-9.4,0h-.63Z"/><path class="cls-1" d="M.62,16.74v.53q0,15.42,0,30.85c0,.53.19.61.66.61q4.73,0,9.45,0c.52,0,.67-.14.67-.66q0-15.37,0-30.74c0-.5-.12-.64-.62-.64-3.17,0-6.34,0-9.51,0C1.05,16.7.87,16.72.62,16.74Z"/><path class="cls-1" d="M6.14,1.27C3.22,1.33,1,2.72.2,5.33a5.51,5.51,0,0,0,2.7,6.29,6.94,6.94,0,0,0,5.54.28,5.37,5.37,0,0,0,2.9-7.75A5.67,5.67,0,0,0,6.14,1.27Z"/></g></svg>