<?xml version="1.0" encoding="utf-8"?>
<!-- Generator: Adobe Illustrator 23.0.1, SVG Export Plug-In . SVG Version: 6.00 Build 0)  -->
<svg version="1.1" xmlns="http://www.w3.org/2000/svg" xmlns:xlink="http://www.w3.org/1999/xlink" x="0px" y="0px"
	 viewBox="0 0 50 50" style="enable-background:new 0 0 50 50;" xml:space="preserve">
<style type="text/css">
	.st0{fill:#C1E1D8;}
	.st1{fill:#007976;}
</style>
<g id="insta_x5F_off">
</g>
<g id="insta_x5F_on">
</g>
<g id="linkdin_x5F_on">
	<g>
		<path class="st1" d="M17.29,48.72c0.3,0,0.55,0,0.79,0c2.59,0,5.17,0.01,7.76,0c0.69,0,1.38-0.05,2.07-0.08
			c0.02-0.69,0.07-1.39,0.07-2.08c0.02-5.49-0.01-10.98,0.06-16.48c0.04-3.02,2.25-5.37,5.25-5.67c2.53-0.25,4.5,0.82,5.37,3.33
			c0.47,1.34,0.57,2.72,0.57,4.12c0.01,5.38,0.01,10.76-0.01,16.14c0,0.55,0.1,0.75,0.71,0.74c3.13-0.03,6.27-0.03,9.4,0
			c0.51,0,0.67-0.12,0.67-0.66c-0.02-5.85,0-11.7-0.02-17.55c-0.01-2.25-0.25-4.48-0.99-6.63c-0.82-2.38-2.13-4.41-4.22-5.86
			c-2.88-1.99-6.1-2.39-9.47-1.88c-2.97,0.46-5.24,2.08-6.94,4.54c-0.08,0.11-0.18,0.2-0.37,0.42c0-1.36-0.03-2.56,0.01-3.77
			c0.02-0.54-0.17-0.66-0.68-0.66c-3.13,0.02-6.27,0.01-9.4,0.01c-0.2,0-0.4,0-0.63,0C17.29,27.4,17.29,38.01,17.29,48.72z"/>
		<path class="st1" d="M0.62,16.74c0,0.23,0,0.38,0,0.53c0,10.28,0,20.57-0.01,30.85c0,0.53,0.19,0.61,0.65,0.61
			c3.15-0.02,6.3-0.02,9.45,0c0.52,0,0.67-0.14,0.67-0.66c-0.02-10.25-0.02-20.49,0-30.74c0-0.49-0.12-0.64-0.63-0.64
			c-3.17,0.02-6.34,0.01-9.51,0.01C1.05,16.7,0.87,16.72,0.62,16.74z"/>
		<path class="st1" d="M6.14,1.27C3.22,1.33,0.96,2.72,0.2,5.33c-0.69,2.35,0.49,5.22,2.7,6.29c1.81,0.88,3.67,0.94,5.55,0.28
			c3.19-1.13,4.55-4.8,2.9-7.75C10.17,2.06,8.27,1.33,6.14,1.27z"/>
	</g>
</g>
<g id="linkdin_x5F_off">
</g>
<g id="behance_x5F_on">
</g>
<g id="behance_x5F_off">
</g>
<g id="dribbble_x5F_on">
</g>
<g id="dribbble_x5F_off">
</g>
<g id="twitter_x5F_on">
</g>
<g id="twitter_x5F_off">
</g>
</svg>
