<?xml version="1.0" encoding="utf-8"?>
<!-- Generator: Adobe Illustrator 23.0.1, SVG Export Plug-In . SVG Version: 6.00 Build 0)  -->
<svg version="1.1" xmlns="http://www.w3.org/2000/svg" xmlns:xlink="http://www.w3.org/1999/xlink" x="0px" y="0px"
	 viewBox="0 0 50 50" style="enable-background:new 0 0 50 50;" xml:space="preserve">
<style type="text/css">
	.st0{fill:#C1E1D8;}
	.st1{fill:#007976;}
</style>
<g id="insta_x5F_off">
</g>
<g id="insta_x5F_on">
</g>
<g id="linkdin_x5F_on">
</g>
<g id="linkdin_x5F_off">
</g>
<g id="behance_x5F_on">
</g>
<g id="behance_x5F_off">
</g>
<g id="dribbble_x5F_on">
</g>
<g id="dribbble_x5F_off">
</g>
<g id="twitter_x5F_on">
	<g>
		<path class="st1" d="M50,9.49c-1.84,0.82-3.82,1.37-5.89,1.62c2.12-1.27,3.74-3.28,4.51-5.68c-1.98,1.18-4.18,2.03-6.51,2.49
			c-1.87-1.99-4.54-3.24-7.49-3.24c-5.67,0-10.26,4.59-10.26,10.26c0,0.8,0.09,1.59,0.27,2.34C16.1,16.85,8.54,12.77,3.48,6.56
			C2.6,8.08,2.09,9.84,2.09,11.72c0,3.56,1.81,6.7,4.56,8.54c-1.68-0.05-3.26-0.51-4.65-1.28c0,0.04,0,0.08,0,0.13
			c0,4.97,3.53,9.11,8.23,10.06c-0.86,0.23-1.77,0.36-2.71,0.36c-0.66,0-1.3-0.07-1.93-0.18c1.3,4.08,5.09,7.04,9.58,7.12
			c-3.51,2.75-7.94,4.39-12.74,4.39c-0.83,0-1.65-0.05-2.45-0.15c4.54,2.91,9.93,4.61,15.72,4.61c18.87,0,29.19-15.63,29.19-29.19
			c0-0.45-0.01-0.89-0.03-1.33C46.89,13.36,48.63,11.55,50,9.49"/>
	</g>
</g>
<g id="twitter_x5F_off">
</g>
</svg>
