<svg xmlns="http://www.w3.org/2000/svg" viewBox="0 0 50 50"><defs><style>.cls-1{fill:#2e2d2c;}</style></defs><g id="twitter_off"><path class="cls-1" d="M50,9.49a20.48,20.48,0,0,1-5.89,1.62,10.34,10.34,0,0,0,4.51-5.68,20.45,20.45,0,0,1-6.51,2.49,10.27,10.27,0,0,0-17.75,7,10.62,10.62,0,0,0,.26,2.34A29.12,29.12,0,0,1,3.48,6.56,10.26,10.26,0,0,0,6.65,20.25,10.12,10.12,0,0,1,2,19v.13a10.26,10.26,0,0,0,8.23,10.06,10.07,10.07,0,0,1-2.71.36,10.27,10.27,0,0,1-1.93-.18,10.28,10.28,0,0,0,9.59,7.12A20.6,20.6,0,0,1,2.45,40.85,21.94,21.94,0,0,1,0,40.71a29,29,0,0,0,15.72,4.61c18.87,0,29.19-15.63,29.19-29.19,0-.44,0-.89,0-1.33A20.52,20.52,0,0,0,50,9.49"/></g></svg>